  0
SECTION
  2
HEADER
  9
$ACADVER
  1
AC1024
  9
$ACADMAINTVER
 70
6
  9
$DWGCODEPAGE
  3
ANSI_1252
  9
$LASTSAVEDBY
  1
ezdxf
  9
$INSBASE
 10
0.0
 20
0.0
 30
0.0
  9
$EXTMIN
 10
1e+20
 20
1e+20
 30
1e+20
  9
$EXTMAX
 10
-1e+20
 20
-1e+20
 30
-1e+20
  9
$LIMMIN
 10
0.0
 20
0.0
  9
$LIMMAX
 10
420.0
 20
297.0
  9
$ORTHOMODE
 70
0
  9
$REGENMODE
 70
1
  9
$FILLMODE
 70
1
  9
$QTEXTMODE
 70
0
  9
$MIRRTEXT
 70
1
  9
$LTSCALE
 40
1.0
  9
$ATTMODE
 70
1
  9
$TEXTSIZE
 40
2.5
  9
$TRACEWID
 40
1.0
  9
$TEXTSTYLE
  7
Standard
  9
$CLAYER
  8
0
  9
$CELTYPE
  6
ByLayer
  9
$CECOLOR
 62
256
  9
$CELTSCALE
 40
1.0
  9
$DISPSILH
 70
0
  9
$DIMSCALE
 40
1.0
  9
$DIMASZ
 40
2.5
  9
$DIMEXO
 40
0.625
  9
$DIMDLI
 40
3.75
  9
$DIMRND
 40
0.0
  9
$DIMDLE
 40
0.0
  9
$DIMEXE
 40
1.25
  9
$DIMTP
 40
0.0
  9
$DIMTM
 40
0.0
  9
$DIMTXT
 40
2.5
  9
$DIMCEN
 40
2.5
  9
$DIMTSZ
 40
0.0
  9
$DIMTOL
 70
0
  9
$DIMLIM
 70
0
  9
$DIMTIH
 70
0
  9
$DIMTOH
 70
0
  9
$DIMSE1
 70
0
  9
$DIMSE2
 70
0
  9
$DIMTAD
 70
1
  9
$DIMZIN
 70
8
  9
$DIMBLK
  1

  9
$DIMASO
 70
1
  9
$DIMSHO
 70
1
  9
$DIMPOST
  1

  9
$DIMAPOST
  1

  9
$DIMALT
 70
0
  9
$DIMALTD
 70
3
  9
$DIMALTF
 40
0.03937007874
  9
$DIMLFAC
 40
1.0
  9
$DIMTOFL
 70
1
  9
$DIMTVP
 40
0.0
  9
$DIMTIX
 70
0
  9
$DIMSOXD
 70
0
  9
$DIMSAH
 70
0
  9
$DIMBLK1
  1

  9
$DIMBLK2
  1

  9
$DIMSTYLE
  2
ISO-25
  9
$DIMCLRD
 70
0
  9
$DIMCLRE
 70
0
  9
$DIMCLRT
 70
0
  9
$DIMTFAC
 40
1.0
  9
$DIMGAP
 40
0.625
  9
$DIMJUST
 70
0
  9
$DIMSD1
 70
0
  9
$DIMSD2
 70
0
  9
$DIMTOLJ
 70
0
  9
$DIMTZIN
 70
8
  9
$DIMALTZ
 70
0
  9
$DIMALTTZ
 70
0
  9
$DIMUPT
 70
0
  9
$DIMDEC
 70
2
  9
$DIMTDEC
 70
2
  9
$DIMALTU
 70
2
  9
$DIMALTTD
 70
3
  9
$DIMTXSTY
  7
Standard
  9
$DIMAUNIT
 70
0
  9
$DIMADEC
 70
0
  9
$DIMALTRND
 40
0.0
  9
$DIMAZIN
 70
0
  9
$DIMDSEP
 70
44
  9
$DIMATFIT
 70
3
  9
$DIMFRAC
 70
0
  9
$DIMLDRBLK
  1

  9
$DIMLUNIT
 70
2
  9
$DIMLWD
 70
-2
  9
$DIMLWE
 70
-2
  9
$DIMTMOVE
 70
0
  9
$DIMFXL
 40
1.0
  9
$DIMFXLON
 70
0
  9
$DIMJOGANG
 40
0.785398163397
  9
$DIMTFILL
 70
0
  9
$DIMTFILLCLR
 70
0
  9
$DIMARCSYM
 70
0
  9
$DIMLTYPE
  6

  9
$DIMLTEX1
  6

  9
$DIMLTEX2
  6

  9
$DIMTXTDIRECTION
 70
0
  9
$LUNITS
 70
2
  9
$LUPREC
 70
4
  9
$SKETCHINC
 40
1.0
  9
$FILLETRAD
 40
10.0
  9
$AUNITS
 70
0
  9
$AUPREC
 70
2
  9
$MENU
  1
.
  9
$ELEVATION
 40
0.0
  9
$PELEVATION
 40
0.0
  9
$THICKNESS
 40
0.0
  9
$LIMCHECK
 70
0
  9
$CHAMFERA
 40
0.0
  9
$CHAMFERB
 40
0.0
  9
$CHAMFERC
 40
0.0
  9
$CHAMFERD
 40
0.0
  9
$SKPOLY
 70
0
  9
$TDCREATE
 40
2461309.4673032407
  9
$TDUCREATE
 40
2458532.153996898
  9
$TDUPDATE
 40
2461309.4673032407
  9
$TDUUPDATE
 40
2458532.1544311
  9
$TDINDWG
 40
0.0
  9
$TDUSRTIMER
 40
0.0
  9
$USRTIMER
 70
1
  9
$ANGBASE
 50
0.0
  9
$ANGDIR
 70
0
  9
$PDMODE
 70
0
  9
$PDSIZE
 40
0.0
  9
$PLINEWID
 40
0.0
  9
$SPLFRAME
 70
0
  9
$SPLINETYPE
 70
6
  9
$SPLINESEGS
 70
8
  9
$HANDSEED
  5
81
  9
$SURFTAB1
 70
6
  9
$SURFTAB2
 70
6
  9
$SURFTYPE
 70
6
  9
$SURFU
 70
6
  9
$SURFV
 70
6
  9
$UCSBASE
  2

  9
$UCSNAME
  2

  9
$UCSORG
 10
0.0
 20
0.0
 30
0.0
  9
$UCSXDIR
 10
1.0
 20
0.0
 30
0.0
  9
$UCSYDIR
 10
0.0
 20
1.0
 30
0.0
  9
$UCSORTHOREF
  2

  9
$UCSORTHOVIEW
 70
0
  9
$UCSORGTOP
 10
0.0
 20
0.0
 30
0.0
  9
$UCSORGBOTTOM
 10
0.0
 20
0.0
 30
0.0
  9
$UCSORGLEFT
 10
0.0
 20
0.0
 30
0.0
  9
$UCSORGRIGHT
 10
0.0
 20
0.0
 30
0.0
  9
$UCSORGFRONT
 10
0.0
 20
0.0
 30
0.0
  9
$UCSORGBACK
 10
0.0
 20
0.0
 30
0.0
  9
$PUCSBASE
  2

  9
$PUCSNAME
  2

  9
$PUCSORG
 10
0.0
 20
0.0
 30
0.0
  9
$PUCSXDIR
 10
1.0
 20
0.0
 30
0.0
  9
$PUCSYDIR
 10
0.0
 20
1.0
 30
0.0
  9
$PUCSORTHOREF
  2

  9
$PUCSORTHOVIEW
 70
0
  9
$PUCSORGTOP
 10
0.0
 20
0.0
 30
0.0
  9
$PUCSORGBOTTOM
 10
0.0
 20
0.0
 30
0.0
  9
$PUCSORGLEFT
 10
0.0
 20
0.0
 30
0.0
  9
$PUCSORGRIGHT
 10
0.0
 20
0.0
 30
0.0
  9
$PUCSORGFRONT
 10
0.0
 20
0.0
 30
0.0
  9
$PUCSORGBACK
 10
0.0
 20
0.0
 30
0.0
  9
$USERI1
 70
0
  9
$USERI2
 70
0
  9
$USERI3
 70
0
  9
$USERI4
 70
0
  9
$USERI5
 70
0
  9
$USERR1
 40
0.0
  9
$USERR2
 40
0.0
  9
$USERR3
 40
0.0
  9
$USERR4
 40
0.0
  9
$USERR5
 40
0.0
  9
$WORLDVIEW
 70
1
  9
$SHADEDGE
 70
3
  9
$SHADEDIF
 70
70
  9
$TILEMODE
 70
1
  9
$MAXACTVP
 70
64
  9
$PINSBASE
 10
0.0
 20
0.0
 30
0.0
  9
$PLIMCHECK
 70
0
  9
$PEXTMIN
 10
1e+20
 20
1e+20
 30
1e+20
  9
$PEXTMAX
 10
-1e+20
 20
-1e+20
 30
-1e+20
  9
$PLIMMIN
 10
0.0
 20
0.0
  9
$PLIMMAX
 10
420.0
 20
297.0
  9
$UNITMODE
 70
0
  9
$VISRETAIN
 70
1
  9
$PLINEGEN
 70
0
  9
$PSLTSCALE
 70
1
  9
$TREEDEPTH
 70
3020
  9
$CMLSTYLE
  2
Standard
  9
$CMLJUST
 70
0
  9
$CMLSCALE
 40
20.0
  9
$PROXYGRAPHICS
 70
1
  9
$MEASUREMENT
 70
1
  9
$CELWEIGHT
370
-1
  9
$ENDCAPS
280
0
  9
$JOINSTYLE
280
0
  9
$LWDISPLAY
290
0
  9
$INSUNITS
 70
6
  9
$HYPERLINKBASE
  1

  9
$STYLESHEET
  1

  9
$XEDIT
290
1
  9
$CEPSNTYPE
380
0
  9
$PSTYLEMODE
290
1
  9
$FINGERPRINTGUID
  2
{7F638444-AA30-4E2F-9F57-6F2EE09E9DDE}
  9
$VERSIONGUID
  2
{FE6222CD-3E9F-4350-A348-B9D74605C942}
  9
$EXTNAMES
290
1
  9
$PSVPSCALE
 40
0.0
  9
$OLESTARTUP
290
0
  9
$SORTENTS
280
127
  9
$INDEXCTL
280
0
  9
$HIDETEXT
280
1
  9
$XCLIPFRAME
280
1
  9
$HALOGAP
280
0
  9
$OBSCOLOR
 70
257
  9
$OBSLTYPE
280
0
  9
$INTERSECTIONDISPLAY
280
0
  9
$INTERSECTIONCOLOR
 70
257
  9
$DIMASSOC
280
2
  9
$PROJECTNAME
  1

  9
$CAMERADISPLAY
290
0
  9
$LENSLENGTH
 40
50.0
  9
$CAMERAHEIGHT
 40
0.0
  9
$STEPSPERSEC
 40
24.0
  9
$STEPSIZE
 40
100.0
  9
$3DDWFPREC
 40
2.0
  9
$PSOLWIDTH
 40
0.005
  9
$PSOLHEIGHT
 40
0.08
  9
$LOFTANG1
 40
1.570796326795
  9
$LOFTANG2
 40
1.570796326795
  9
$LOFTMAG1
 40
0.0
  9
$LOFTMAG2
 40
0.0
  9
$LOFTPARAM
 70
7
  9
$LOFTNORMALS
280
1
  9
$LATITUDE
 40
37.795
  9
$LONGITUDE
 40
-122.394
  9
$NORTHDIRECTION
 40
0.0
  9
$TIMEZONE
 70
-8000
  9
$LIGHTGLYPHDISPLAY
280
1
  9
$TILEMODELIGHTSYNCH
280
1
  9
$CMATERIAL
347
20
  9
$SOLIDHIST
280
0
  9
$SHOWHIST
280
1
  9
$DWFFRAME
280
2
  9
$DGNFRAME
280
2
  9
$REALWORLDSCALE
290
1
  9
$INTERFERECOLOR
 62
256
  9
$CSHADOW
280
0
  9
$SHADOWPLANELOCATION
 40
0.0
  0
ENDSEC
  0
SECTION
  2
CLASSES
  0
CLASS
  1
ACDBDICTIONARYWDFLT
  2
AcDbDictionaryWithDefault
  3
ObjectDBX Classes
 90
0
 91
0
280
0
281
0
  0
CLASS
  1
SUN
  2
AcDbSun
  3
SCENEOE
 90
1153
 91
0
280
0
281
0
  0
CLASS
  1
VISUALSTYLE
  2
AcDbVisualStyle
  3
ObjectDBX Classes
 90
4095
 91
0
280
0
281
0
  0
CLASS
  1
MATERIAL
  2
AcDbMaterial
  3
ObjectDBX Classes
 90
1153
 91
0
280
0
281
0
  0
CLASS
  1
SCALE
  2
AcDbScale
  3
ObjectDBX Classes
 90
1153
 91
0
280
0
281
0
  0
CLASS
  1
TABLESTYLE
  2
AcDbTableStyle
  3
ObjectDBX Classes
 90
4095
 91
0
280
0
281
0
  0
CLASS
  1
MLEADERSTYLE
  2
AcDbMLeaderStyle
  3
ACDB_MLEADERSTYLE_CLASS
 90
4095
 91
0
280
0
281
0
  0
CLASS
  1
DICTIONARYVAR
  2
AcDbDictionaryVar
  3
ObjectDBX Classes
 90
0
 91
0
280
0
281
0
  0
CLASS
  1
CELLSTYLEMAP
  2
AcDbCellStyleMap
  3
ObjectDBX Classes
 90
1152
 91
0
280
0
281
0
  0
CLASS
  1
MENTALRAYRENDERSETTINGS
  2
AcDbMentalRayRenderSettings
  3
SCENEOE
 90
1024
 91
0
280
0
281
0
  0
CLASS
  1
ACDBDETAILVIEWSTYLE
  2
AcDbDetailViewStyle
  3
ObjectDBX Classes
 90
1025
 91
0
280
0
281
0
  0
CLASS
  1
ACDBSECTIONVIEWSTYLE
  2
AcDbSectionViewStyle
  3
ObjectDBX Classes
 90
1025
 91
0
280
0
281
0
  0
CLASS
  1
RASTERVARIABLES
  2
AcDbRasterVariables
  3
ISM
 90
0
 91
0
280
0
281
0
  0
CLASS
  1
LAYOUT
  2
AcDbLayout
  3
ObjectDBX Classes
 90
0
 91
0
280
0
281
0
  0
CLASS
  1
ACDBPLACEHOLDER
  2
AcDbPlaceHolder
  3
ObjectDBX Classes
 90
0
 91
0
280
0
281
0
  0
ENDSEC
  0
SECTION
  2
TABLES
  0
TABLE
  2
VPORT
  5
8
330
0
100
AcDbSymbolTable
 70
1
  0
VPORT
  5
23
330
8
100
AcDbSymbolTableRecord
100
AcDbViewportTableRecord
  2
*Active
 70
0
 10
0.0
 20
0.0
 11
1.0
 21
1.0
 12
0.0
 22
0.0
 13
0.0
 23
0.0
 14
0.5
 24
0.5
 15
0.5
 25
0.5
 16
0.0
 26
0.0
 36
1.0
 17
0.0
 27
0.0
 37
0.0
 40
1000.0
 41
1.34
 42
50.0
 43
0.0
 44
0.0
 50
0.0
 51
0.0
 71
0
 72
1000
 73
1
 74
3
 75
0
 76
0
 77
0
 78
0
281
0
 65
0
146
0.0
  0
ENDTAB
  0
TABLE
  2
LTYPE
  5
2
330
0
100
AcDbSymbolTable
 70
3
  0
LTYPE
  5
24
330
2
100
AcDbSymbolTableRecord
100
AcDbLinetypeTableRecord
  2
ByBlock
 70
0
  3

 72
65
 73
0
 40
0.0
  0
LTYPE
  5
25
330
2
100
AcDbSymbolTableRecord
100
AcDbLinetypeTableRecord
  2
ByLayer
 70
0
  3

 72
65
 73
0
 40
0.0
  0
LTYPE
  5
26
330
2
100
AcDbSymbolTableRecord
100
AcDbLinetypeTableRecord
  2
Continuous
 70
0
  3

 72
65
 73
0
 40
0.0
  0
ENDTAB
  0
TABLE
  2
LAYER
  5
1
330
0
100
AcDbSymbolTable
 70
14
  0
LAYER
  5
27
330
1
100
AcDbSymbolTableRecord
100
AcDbLayerTableRecord
  2
0
 70
0
 62
7
  6
Continuous
370
-3
390
13
347
21
  0
LAYER
  5
28
330
1
100
AcDbSymbolTableRecord
100
AcDbLayerTableRecord
  2
Defpoints
 70
0
 62
7
  6
Continuous
290
0
370
-3
390
13
347
21
  0
LAYER
  5
2F
330
1
100
AcDbSymbolTableRecord
100
AcDbLayerTableRecord
  2
TIER_01
 70
0
 62
30
  6
Continuous
370
-3
390
13
347
21
  0
LAYER
  5
38
330
1
100
AcDbSymbolTableRecord
100
AcDbLayerTableRecord
  2
TIER_02
 70
0
 62
30
  6
Continuous
370
-3
390
13
347
21
  0
LAYER
  5
41
330
1
100
AcDbSymbolTableRecord
100
AcDbLayerTableRecord
  2
TIER_03
 70
0
 62
30
  6
Continuous
370
-3
390
13
347
21
  0
LAYER
  5
4A
330
1
100
AcDbSymbolTableRecord
100
AcDbLayerTableRecord
  2
TIER_04
 70
0
 62
30
  6
Continuous
370
-3
390
13
347
21
  0
LAYER
  5
53
330
1
100
AcDbSymbolTableRecord
100
AcDbLayerTableRecord
  2
TIER_05
 70
0
 62
30
  6
Continuous
370
-3
390
13
347
21
  0
LAYER
  5
5C
330
1
100
AcDbSymbolTableRecord
100
AcDbLayerTableRecord
  2
TIER_06
 70
0
 62
30
  6
Continuous
370
-3
390
13
347
21
  0
LAYER
  5
65
330
1
100
AcDbSymbolTableRecord
100
AcDbLayerTableRecord
  2
TIER_07
 70
0
 62
30
  6
Continuous
370
-3
390
13
347
21
  0
LAYER
  5
6E
330
1
100
AcDbSymbolTableRecord
100
AcDbLayerTableRecord
  2
TIER_08
 70
0
 62
30
  6
Continuous
370
-3
390
13
347
21
  0
LAYER
  5
71
330
1
100
AcDbSymbolTableRecord
100
AcDbLayerTableRecord
  2
TIER_09
 70
0
 62
30
  6
Continuous
370
-3
390
13
347
21
  0
LAYER
  5
74
330
1
100
AcDbSymbolTableRecord
100
AcDbLayerTableRecord
  2
TIER_10
 70
0
 62
30
  6
Continuous
370
-3
390
13
347
21
  0
LAYER
  5
77
330
1
100
AcDbSymbolTableRecord
100
AcDbLayerTableRecord
  2
TIER_11
 70
0
 62
30
  6
Continuous
370
-3
390
13
347
21
  0
LAYER
  5
7A
330
1
100
AcDbSymbolTableRecord
100
AcDbLayerTableRecord
  2
TIER_12
 70
0
 62
30
  6
Continuous
370
-3
390
13
347
21
  0
ENDTAB
  0
TABLE
  2
STYLE
  5
5
330
0
100
AcDbSymbolTable
 70
1
  0
STYLE
  5
29
330
5
100
AcDbSymbolTableRecord
100
AcDbTextStyleTableRecord
  2
Standard
 70
0
 40
0.0
 41
1.0
 50
0.0
 71
0
 42
2.5
  3
txt
  4

  0
ENDTAB
  0
TABLE
  2
VIEW
  5
7
330
0
100
AcDbSymbolTable
 70
0
  0
ENDTAB
  0
TABLE
  2
UCS
  5
6
330
0
100
AcDbSymbolTable
 70
0
  0
ENDTAB
  0
TABLE
  2
APPID
  5
3
330
0
100
AcDbSymbolTable
 70
3
  0
APPID
  5
2A
330
3
100
AcDbSymbolTableRecord
100
AcDbRegAppTableRecord
  2
ACAD
 70
0
  0
APPID
  5
7E
330
3
100
AcDbSymbolTableRecord
100
AcDbRegAppTableRecord
  2
HATCHBACKGROUNDCOLOR
 70
0
  0
APPID
  5
7F
330
3
100
AcDbSymbolTableRecord
100
AcDbRegAppTableRecord
  2
EZDXF
 70
0
  0
ENDTAB
  0
TABLE
  2
DIMSTYLE
  5
4
330
0
100
AcDbSymbolTable
 70
1
100
AcDbDimStyleTable
  0
DIMSTYLE
105
2B
330
4
100
AcDbSymbolTableRecord
100
AcDbDimStyleTableRecord
  2
Standard
 70
0
 40
1.0
 41
2.5
 42
0.625
 43
3.75
 44
1.25
 45
0.0
 46
0.0
 47
0.0
 48
0.0
 49
2.5
140
2.5
141
2.5
142
0.0
143
0.03937007874
144
1.0
145
0.0
146
1.0
147
0.625
148
0.0
 69
0
 70
0
 71
0
 72
0
 73
0
 74
0
 75
0
 76
0
 77
1
 78
8
 79
3
170
0
171
3
172
1
173
0
174
0
175
0
176
0
177
0
178
0
179
2
271
2
272
2
273
2
274
3
275
0
276
0
277
2
278
44
279
0
280
0
281
0
282
0
283
0
284
8
285
0
286
0
288
0
289
3
290
0
371
-2
372
-2
  0
ENDTAB
  0
TABLE
  2
BLOCK_RECORD
  5
9
330
0
100
AcDbSymbolTable
 70
2
  0
BLOCK_RECORD
  5
17
330
9
100
AcDbSymbolTableRecord
100
AcDbBlockTableRecord
  2
*Model_Space
340
1A
 70
0
280
1
281
0
  0
BLOCK_RECORD
  5
1B
330
9
100
AcDbSymbolTableRecord
100
AcDbBlockTableRecord
  2
*Paper_Space
340
1E
 70
0
280
1
281
0
  0
ENDTAB
  0
ENDSEC
  0
SECTION
  2
BLOCKS
  0
BLOCK
  5
18
330
17
100
AcDbEntity
  8
0
100
AcDbBlockBegin
  2
*Model_Space
 70
0
 10
0.0
 20
0.0
 30
0.0
  3
*Model_Space
  1

  0
ENDBLK
  5
19
330
17
100
AcDbEntity
  8
0
100
AcDbBlockEnd
  0
BLOCK
  5
1C
330
1B
100
AcDbEntity
  8
0
100
AcDbBlockBegin
  2
*Paper_Space
 70
0
 10
0.0
 20
0.0
 30
0.0
  3
*Paper_Space
  1

  0
ENDBLK
  5
1D
330
1B
100
AcDbEntity
  8
0
100
AcDbBlockEnd
  0
ENDSEC
  0
SECTION
  2
ENTITIES
  0
LWPOLYLINE
  5
30
330
17
100
AcDbEntity
  8
TIER_01
100
AcDbPolyline
 90
78
 70
1
 10
8153.690036417544
 20
-10739.532347943366
 10
6915.399352024899
 20
-11977.823032336013
 10
5223.862819874922
 20
-12431.068880093342
 10
3532.326287724947
 20
-11977.823032336013
 10
2294.0356033323005
 20
-10739.532347943365
 10
1943.0349932661393
 20
-9429.580237688777
 10
174.12876066249743
 20
-9903.557234201302
 10
174.12876066249743
 20
-2985.0644684999556
 10
-174.12876066249743
 20
-2985.0644684999556
 10
-174.12876066249743
 20
-9903.557234201304
 10
-1943.0349932661431
 20
-9429.580237688777
 10
-2294.0356033323055
 20
-10739.532347943365
 10
-3532.3262877249517
 20
-11977.823032336011
 10
-5223.862819874928
 20
-12431.068880093339
 10
-6915.399352024903
 20
-11977.823032336011
 10
-8153.69003641755
 20
-10739.532347943365
 10
-8606.935884174876
 20
-9047.99581579339
 10
-8153.690036417549
 20
-7356.459283643415
 10
-7194.738536229121
 20
-6397.507783454988
 10
-8489.667772320232
 20
-5102.578547363875
 10
-2498.077281324006
 20
-1643.3321645132012
 10
-2672.206041986503
 20
-1341.732303986755
 10
-8663.796532982731
 20
-4800.97868683743
 10
-9137.773529495256
 20
-3032.0724542337866
 10
-10447.725639749844
 20
-3383.073064299949
 10
-12139.262171899822
 20
-2929.8272165426206
 10
-13377.552856292468
 20
-1691.5365321499728
 10
-13830.798704049796
 20
1.6937843362565942e-12
 10
-13377.552856292468
 20
1691.536532149976
 10
-12139.26217189982
 20
2929.8272165426233
 10
-10447.725639749844
 20
3383.073064299951
 10
-9137.773529495256
 20
3032.072454233789
 10
-8663.796532982731
 20
4800.9786868374285
 10
-2672.2060419865034
 20
1341.7323039867545
 10
-2498.0772813240064
 20
1643.3321645132005
 10
-8489.667772320234
 20
5102.578547363874
 10
-7194.738536229116
 20
6397.507783454991
 10
-8153.6900364175435
 20
7356.459283643418
 10
-8606.935884174869
 20
9047.995815793392
 10
-8153.690036417542
 20
10739.532347943366
 10
-6915.399352024894
 20
11977.823032336013
 10
-5223.86281987492
 20
12431.068880093342
 10
-3532.326287724945
 20
11977.823032336013
 10
-2294.035603332298
 20
10739.532347943366
 10
-1943.0349932661359
 20
9429.580237688779
 10
-174.12876066249743
 20
9903.557234201304
 10
-174.12876066249743
 20
2985.0644684999556
 10
174.12876066249743
 20
2985.0644684999556
 10
174.12876066249743
 20
9903.557234201304
 10
1943.0349932661395
 20
9429.580237688779
 10
2294.035603332301
 20
10739.532347943365
 10
3532.3262877249495
 20
11977.823032336013
 10
5223.862819874924
 20
12431.068880093342
 10
6915.399352024899
 20
11977.823032336013
 10
8153.690036417546
 20
10739.532347943365
 10
8606.935884174874
 20
9047.99581579339
 10
8153.690036417544
 20
7356.459283643415
 10
7194.73853622912
 20
6397.507783454989
 10
8489.667772320234
 20
5102.578547363874
 10
2498.0772813240064
 20
1643.3321645132005
 10
2672.2060419865034
 20
1341.7323039867545
 10
8663.796532982731
 20
4800.9786868374285
 10
9137.773529495256
 20
3032.072454233788
 10
10447.725639749844
 20
3383.0730642999497
 10
12139.262171899822
 20
2929.8272165426224
 10
13377.552856292468
 20
1691.5365321499746
 10
13830.798704049796
 20
0.0
 10
13377.552856292465
 20
-1691.5365321499762
 10
12139.262171899822
 20
-2929.8272165426224
 10
10447.725639749844
 20
-3383.0730642999497
 10
9137.773529495256
 20
-3032.072454233787
 10
8663.796532982728
 20
-4800.978686837433
 10
2672.206041986503
 20
-1341.732303986756
 10
2498.077281324005
 20
-1643.332164513202
 10
8489.667772320232
 20
-5102.578547363879
 10
7194.73853622912
 20
-6397.507783454989
 10
8153.690036417546
 20
-7356.459283643417
 10
8606.935884174874
 20
-9047.99581579339
  0
LWPOLYLINE
  5
31
330
17
100
AcDbEntity
  8
TIER_01
100
AcDbPolyline
 90
24
 70
1
 10
-2239.276904136146
 20
-5371.073604429319
 10
-2164.7246037344703
 20
-5191.088429693481
 10
-2139.2962024249705
 20
-4997.940545866824
 10
-2164.72460373447
 20
-4804.792662040169
 10
-2239.2769041361457
 20
-4624.807487304331
 10
-2357.8724875611256
 20
-4470.25071387799
 10
-2512.4292609874656
 20
-4351.655130453011
 10
-2692.414435723304
 20
-4277.102830051335
 10
-2885.5623195499597
 20
-4251.674428741835
 10
-3078.710203376615
 20
-4277.102830051335
 10
-3258.695378112454
 20
-4351.655130453011
 10
-3413.2521515387934
 20
-4470.25071387799
 10
-3531.8477349637733
 20
-4624.807487304331
 10
-3606.400035365449
 20
-4804.792662040169
 10
-3631.8284366749485
 20
-4997.940545866824
 10
-3606.400035365449
 20
-5191.08842969348
 10
-3531.8477349637733
 20
-5371.073604429319
 10
-3413.2521515387934
 20
-5525.6303778556585
 10
-3258.6953781124544
 20
-5644.225961280638
 10
-3078.710203376615
 20
-5718.778261682314
 10
-2885.5623195499597
 20
-5744.206662991813
 10
-2692.4144357233045
 20
-5718.778261682314
 10
-2512.4292609874656
 20
-5644.225961280638
 10
-2357.872487561126
 20
-5525.6303778556585
  0
LWPOLYLINE
  5
32
330
17
100
AcDbEntity
  8
TIER_01
100
AcDbPolyline
 90
24
 70
1
 10
844.3037311821341
 20
-844.3037311821345
 10
1034.0566646621014
 20
-597.0128936999917
 10
1153.3403453047829
 20
-309.0366141226498
 10
1194.0257873999822
 20
0.0
 10
1153.340345304783
 20
309.0366141226488
 10
1034.0566646621019
 20
597.012893699991
 10
844.3037311821344
 20
844.3037311821344
 10
597.0128936999912
 20
1034.0566646621019
 10
309.0366141226488
 20
1153.340345304783
 10
7.31129929319393e-14
 20
1194.0257873999822
 10
-309.0366141226487
 20
1153.340345304783
 10
-597.0128936999909
 20
1034.0566646621019
 10
-844.3037311821342
 20
844.3037311821344
 10
-1034.0566646621019
 20
597.012893699991
 10
-1153.340345304783
 20
309.03661412264915
 10
-1194.0257873999822
 20
1.462259858638786e-13
 10
-1153.340345304783
 20
-309.0366141226489
 10
-1034.056664662102
 20
-597.0128936999907
 10
-844.3037311821348
 20
-844.3037311821338
 10
-597.0128936999917
 20
-1034.0566646621016
 10
-309.0366141226487
 20
-1153.340345304783
 10
-2.1933897879581792e-13
 20
-1194.0257873999822
 10
309.0366141226483
 20
-1153.3403453047833
 10
597.0128936999912
 20
-1034.0566646621019
  0
LWPOLYLINE
  5
33
330
17
100
AcDbEntity
  8
TIER_01
100
AcDbPolyline
 90
24
 70
1
 10
-5124.8392236861
 20
-373.13305856249406
 10
-5050.286923284424
 20
-193.14788382665546
 10
-5024.858521974925
 20
7.067589316754133e-13
 10
-5050.286923284424
 20
193.14788382665623
 10
-5124.8392236861
 20
373.133058562495
 10
-5243.43480711108
 20
527.6898319888346
 10
-5397.991580537419
 20
646.2854154138143
 10
-5577.976755273258
 20
720.8377158154902
 10
-5771.124639099914
 20
746.2661171249896
 10
-5964.272522926569
 20
720.8377158154902
 10
-6144.257697662408
 20
646.2854154138145
 10
-6298.814471088747
 20
527.6898319888346
 10
-6417.410054513727
 20
373.133058562495
 10
-6491.962354915403
 20
193.14788382665643
 10
-6517.390756224902
 20
7.981501728403374e-13
 10
-6491.962354915403
 20
-193.14788382665486
 10
-6417.410054513727
 20
-373.13305856249355
 10
-6298.814471088747
 20
-527.689831988833
 10
-6144.257697662408
 20
-646.2854154138128
 10
-5964.272522926569
 20
-720.8377158154889
 10
-5771.124639099914
 20
-746.2661171249881
 10
-5577.976755273258
 20
-720.8377158154889
 10
-5397.991580537419
 20
-646.285415413813
 10
-5243.43480711108
 20
-527.6898319888334
  0
LWPOLYLINE
  5
34
330
17
100
AcDbEntity
  8
TIER_01
100
AcDbPolyline
 90
24
 70
1
 10
-2357.872487561122
 20
4470.250713877992
 10
-2239.276904136142
 20
4624.807487304331
 10
-2164.7246037344667
 20
4804.7926620401695
 10
-2139.296202424967
 20
4997.940545866825
 10
-2164.724603734466
 20
5191.088429693481
 10
-2239.276904136142
 20
5371.07360442932
 10
-2357.8724875611215
 20
5525.630377855659
 10
-2512.429260987461
 20
5644.225961280639
 10
-2692.4144357233004
 20
5718.778261682315
 10
-2885.5623195499556
 20
5744.2066629918145
 10
-3078.7102033766114
 20
5718.778261682315
 10
-3258.69537811245
 20
5644.225961280639
 10
-3413.25215153879
 20
5525.630377855659
 10
-3531.8477349637697
 20
5371.07360442932
 10
-3606.400035365445
 20
5191.088429693481
 10
-3631.828436674945
 20
4997.940545866825
 10
-3606.400035365445
 20
4804.79266204017
 10
-3531.8477349637697
 20
4624.8074873043315
 10
-3413.25215153879
 20
4470.250713877992
 10
-3258.6953781124507
 20
4351.655130453012
 10
-3078.7102033766114
 20
4277.102830051336
 10
-2885.5623195499556
 20
4251.674428741837
 10
-2692.414435723301
 20
4277.102830051336
 10
-2512.429260987461
 20
4351.655130453012
  0
LWPOLYLINE
  5
35
330
17
100
AcDbEntity
  8
TIER_01
100
AcDbPolyline
 90
24
 70
1
 10
3413.2521515387916
 20
-5525.630377855659
 10
3531.847734963771
 20
-5371.073604429321
 10
3606.400035365447
 20
-5191.088429693482
 10
3631.8284366749463
 20
-4997.940545866825
 10
3606.400035365447
 20
-4804.79266204017
 10
3531.847734963771
 20
-4624.8074873043315
 10
3413.2521515387916
 20
-4470.250713877992
 10
3258.6953781124516
 20
-4351.655130453012
 10
3078.7102033766128
 20
-4277.102830051336
 10
2885.5623195499575
 20
-4251.674428741837
 10
2692.4144357233017
 20
-4277.102830051336
 10
2512.4292609874633
 20
-4351.655130453012
 10
2357.8724875611233
 20
-4470.250713877992
 10
2239.2769041361435
 20
-4624.8074873043315
 10
2164.724603734468
 20
-4804.79266204017
 10
2139.296202424968
 20
-4997.940545866825
 10
2164.724603734468
 20
-5191.088429693481
 10
2239.2769041361435
 20
-5371.07360442932
 10
2357.872487561123
 20
-5525.630377855659
 10
2512.4292609874624
 20
-5644.225961280639
 10
2692.4144357233017
 20
-5718.778261682315
 10
2885.5623195499575
 20
-5744.2066629918145
 10
3078.7102033766123
 20
-5718.778261682315
 10
3258.6953781124516
 20
-5644.225961280639
  0
LWPOLYLINE
  5
36
330
17
100
AcDbEntity
  8
TIER_01
100
AcDbPolyline
 90
24
 70
1
 10
6298.814471088747
 20
-527.689831988834
 10
6417.410054513727
 20
-373.1330585624948
 10
6491.962354915403
 20
-193.14788382665614
 10
6517.390756224902
 20
0.0
 10
6491.962354915403
 20
193.14788382665552
 10
6417.410054513727
 20
373.13305856249434
 10
6298.814471088747
 20
527.6898319888339
 10
6144.257697662408
 20
646.2854154138137
 10
5964.272522926569
 20
720.8377158154896
 10
5771.124639099914
 20
746.2661171249889
 10
5577.976755273258
 20
720.8377158154896
 10
5397.991580537419
 20
646.2854154138138
 10
5243.43480711108
 20
527.6898319888339
 10
5124.8392236861
 20
373.13305856249434
 10
5050.286923284424
 20
193.14788382665574
 10
5024.858521974925
 20
9.139124116492415e-14
 10
5050.286923284424
 20
-193.14788382665554
 10
5124.8392236861
 20
-373.1330585624942
 10
5243.43480711108
 20
-527.6898319888337
 10
5397.991580537419
 20
-646.2854154138134
 10
5577.976755273258
 20
-720.8377158154896
 10
5771.124639099914
 20
-746.2661171249889
 10
5964.272522926569
 20
-720.8377158154896
 10
6144.257697662408
 20
-646.2854154138137
  0
LWPOLYLINE
  5
37
330
17
100
AcDbEntity
  8
TIER_01
100
AcDbPolyline
 90
24
 70
1
 10
3413.2521515387916
 20
4470.250713877992
 10
3531.847734963771
 20
4624.807487304331
 10
3606.400035365447
 20
4804.7926620401695
 10
3631.8284366749463
 20
4997.940545866825
 10
3606.400035365447
 20
5191.088429693481
 10
3531.847734963771
 20
5371.07360442932
 10
3413.2521515387916
 20
5525.630377855659
 10
3258.6953781124516
 20
5644.225961280639
 10
3078.7102033766128
 20
5718.778261682315
 10
2885.5623195499575
 20
5744.2066629918145
 10
2692.4144357233017
 20
5718.778261682315
 10
2512.4292609874633
 20
5644.225961280639
 10
2357.8724875611233
 20
5525.630377855659
 10
2239.2769041361435
 20
5371.07360442932
 10
2164.724603734468
 20
5191.088429693481
 10
2139.296202424968
 20
4997.940545866825
 10
2164.724603734468
 20
4804.79266204017
 10
2239.2769041361435
 20
4624.8074873043315
 10
2357.872487561123
 20
4470.250713877992
 10
2512.4292609874624
 20
4351.655130453012
 10
2692.4144357233017
 20
4277.102830051336
 10
2885.5623195499575
 20
4251.674428741837
 10
3078.7102033766123
 20
4277.102830051336
 10
3258.6953781124516
 20
4351.655130453012
  0
LWPOLYLINE
  5
39
330
17
100
AcDbEntity
  8
TIER_02
100
AcDbPolyline
 90
90
 70
1
 10
-3880.583809049947
 20
-11374.623311283118
 10
-5223.862819874927
 20
-11734.55383744335
 10
-6567.141830699908
 20
-11374.623311283118
 10
-7550.490315364657
 20
-10391.274826618368
 10
-7910.420841524887
 20
-9047.99581579339
 10
-7550.490315364656
 20
-7704.71680496841
 10
-6567.141830699906
 20
-6721.368320303661
 10
-6241.46165955524
 20
-6634.1025814546165
 10
-8035.309540877794
 20
-4840.254700132061
 10
-2498.077281324006
 20
-1643.3321645132012
 10
-2672.206041986503
 20
-1341.732303986755
 10
-8209.438301540293
 20
-4538.654839605616
 10
-8866.032196629241
 20
-2088.2130631941054
 10
-9104.446628924865
 20
-2326.627495489728
 10
-10447.725639749844
 20
-2686.558021649959
 10
-11791.004650574825
 20
-2326.6274954897276
 10
-12774.353135239575
 20
-1343.2790108249778
 10
-13134.283661399804
 20
1.608485844502665e-12
 10
-12774.353135239575
 20
1343.2790108249812
 10
-11791.004650574825
 20
2326.6274954897312
 10
-10447.725639749844
 20
2686.558021649961
 10
-9104.446628924865
 20
2326.627495489731
 10
-8866.032196629241
 20
2088.2130631941077
 10
-8209.438301540293
 20
4538.654839605614
 10
-2672.2060419865034
 20
1341.7323039867545
 10
-2498.0772813240064
 20
1643.3321645132005
 10
-8035.309540877796
 20
4840.25470013206
 10
-6241.461659555234
 20
6634.10258145462
 10
-6567.141830699901
 20
6721.3683203036635
 10
-7550.490315364651
 20
7704.716804968413
 10
-7910.42084152488
 20
9047.995815793392
 10
-7550.49031536465
 20
10391.274826618372
 10
-6567.141830699899
 20
11374.623311283123
 10
-5223.86281987492
 20
11734.55383744335
 10
-3880.58380904994
 20
11374.623311283123
 10
-2897.235324385191
 20
10391.274826618372
 10
-2537.30479822496
 20
9047.995815793392
 10
-2624.5705370740034
 20
8722.315644648726
 10
-174.12876066249743
 20
9378.909539737675
 10
-174.12876066249743
 20
2985.0644684999556
 10
174.12876066249743
 20
2985.0644684999556
 10
174.12876066249743
 20
9378.909539737675
 10
2624.5705370740066
 20
8722.315644648726
 10
2537.304798224963
 20
9047.99581579339
 10
2897.235324385194
 20
10391.274826618372
 10
3880.583809049944
 20
11374.62331128312
 10
5223.862819874924
 20
11734.55383744335
 10
6567.141830699904
 20
11374.62331128312
 10
7550.490315364653
 20
10391.274826618372
 10
7910.420841524884
 20
9047.99581579339
 10
7550.490315364652
 20
7704.71680496841
 10
6567.141830699904
 20
6721.368320303662
 10
6241.461659555237
 20
6634.102581454619
 10
8035.309540877796
 20
4840.25470013206
 10
2498.0772813240064
 20
1643.3321645132005
 10
2672.2060419865034
 20
1341.7323039867545
 10
8209.438301540293
 20
4538.654839605614
 10
8866.032196629241
 20
2088.2130631941063
 10
9104.446628924865
 20
2326.62749548973
 10
10447.725639749844
 20
2686.55802164996
 10
11791.004650574825
 20
2326.6274954897294
 10
12774.353135239575
 20
1343.2790108249799
 10
13134.283661399804
 20
0.0
 10
12774.353135239575
 20
-1343.2790108249812
 10
11791.004650574825
 20
-2326.6274954897294
 10
10447.725639749844
 20
-2686.55802164996
 10
9104.446628924863
 20
-2326.627495489729
 10
8866.032196629241
 20
-2088.213063194106
 10
8209.43830154029
 20
-4538.654839605619
 10
2672.206041986503
 20
-1341.732303986756
 10
2498.077281324005
 20
-1643.332164513202
 10
8035.309540877793
 20
-4840.2547001320645
 10
6241.461659555238
 20
-6634.102581454619
 10
6567.141830699904
 20
-6721.368320303662
 10
7550.490315364653
 20
-7704.7168049684105
 10
7910.420841524884
 20
-9047.99581579339
 10
7550.490315364652
 20
-10391.274826618373
 10
6567.141830699904
 20
-11374.62331128312
 10
5223.862819874924
 20
-11734.55383744335
 10
3880.5838090499424
 20
-11374.62331128312
 10
2897.2353243851935
 20
-10391.274826618372
 10
2537.304798224963
 20
-9047.99581579339
 10
2624.5705370740066
 20
-8722.315644648725
 10
174.12876066249743
 20
-9378.909539737675
 10
174.12876066249743
 20
-2985.0644684999556
 10
-174.12876066249743
 20
-2985.0644684999556
 10
-174.12876066249743
 20
-9378.909539737675
 10
-2624.5705370740097
 20
-8722.315644648725
 10
-2537.304798224967
 20
-9047.99581579339
 10
-2897.2353243851985
 20
-10391.274826618372
  0
LWPOLYLINE
  5
3A
330
17
100
AcDbEntity
  8
TIER_02
100
AcDbPolyline
 90
24
 70
1
 10
-2239.276904136146
 20
-5371.073604429319
 10
-2164.7246037344703
 20
-5191.088429693481
 10
-2139.2962024249705
 20
-4997.940545866824
 10
-2164.72460373447
 20
-4804.792662040169
 10
-2239.2769041361457
 20
-4624.807487304331
 10
-2357.8724875611256
 20
-4470.25071387799
 10
-2512.4292609874656
 20
-4351.655130453011
 10
-2692.414435723304
 20
-4277.102830051335
 10
-2885.5623195499597
 20
-4251.674428741835
 10
-3078.710203376615
 20
-4277.102830051335
 10
-3258.695378112454
 20
-4351.655130453011
 10
-3413.2521515387934
 20
-4470.25071387799
 10
-3531.8477349637733
 20
-4624.807487304331
 10
-3606.400035365449
 20
-4804.792662040169
 10
-3631.8284366749485
 20
-4997.940545866824
 10
-3606.400035365449
 20
-5191.08842969348
 10
-3531.8477349637733
 20
-5371.073604429319
 10
-3413.2521515387934
 20
-5525.6303778556585
 10
-3258.6953781124544
 20
-5644.225961280638
 10
-3078.710203376615
 20
-5718.778261682314
 10
-2885.5623195499597
 20
-5744.206662991813
 10
-2692.4144357233045
 20
-5718.778261682314
 10
-2512.4292609874656
 20
-5644.225961280638
 10
-2357.872487561126
 20
-5525.6303778556585
  0
LWPOLYLINE
  5
3B
330
17
100
AcDbEntity
  8
TIER_02
100
AcDbPolyline
 90
24
 70
1
 10
844.3037311821341
 20
-844.3037311821345
 10
1034.0566646621014
 20
-597.0128936999917
 10
1153.3403453047829
 20
-309.0366141226498
 10
1194.0257873999822
 20
0.0
 10
1153.340345304783
 20
309.0366141226488
 10
1034.0566646621019
 20
597.012893699991
 10
844.3037311821344
 20
844.3037311821344
 10
597.0128936999912
 20
1034.0566646621019
 10
309.0366141226488
 20
1153.340345304783
 10
7.31129929319393e-14
 20
1194.0257873999822
 10
-309.0366141226487
 20
1153.340345304783
 10
-597.0128936999909
 20
1034.0566646621019
 10
-844.3037311821342
 20
844.3037311821344
 10
-1034.0566646621019
 20
597.012893699991
 10
-1153.340345304783
 20
309.03661412264915
 10
-1194.0257873999822
 20
1.462259858638786e-13
 10
-1153.340345304783
 20
-309.0366141226489
 10
-1034.056664662102
 20
-597.0128936999907
 10
-844.3037311821348
 20
-844.3037311821338
 10
-597.0128936999917
 20
-1034.0566646621016
 10
-309.0366141226487
 20
-1153.340345304783
 10
-2.1933897879581792e-13
 20
-1194.0257873999822
 10
309.0366141226483
 20
-1153.3403453047833
 10
597.0128936999912
 20
-1034.0566646621019
  0
LWPOLYLINE
  5
3C
330
17
100
AcDbEntity
  8
TIER_02
100
AcDbPolyline
 90
24
 70
1
 10
-5124.8392236861
 20
-373.13305856249406
 10
-5050.286923284424
 20
-193.14788382665546
 10
-5024.858521974925
 20
7.067589316754133e-13
 10
-5050.286923284424
 20
193.14788382665623
 10
-5124.8392236861
 20
373.133058562495
 10
-5243.43480711108
 20
527.6898319888346
 10
-5397.991580537419
 20
646.2854154138143
 10
-5577.976755273258
 20
720.8377158154902
 10
-5771.124639099914
 20
746.2661171249896
 10
-5964.272522926569
 20
720.8377158154902
 10
-6144.257697662408
 20
646.2854154138145
 10
-6298.814471088747
 20
527.6898319888346
 10
-6417.410054513727
 20
373.133058562495
 10
-6491.962354915403
 20
193.14788382665643
 10
-6517.390756224902
 20
7.981501728403374e-13
 10
-6491.962354915403
 20
-193.14788382665486
 10
-6417.410054513727
 20
-373.13305856249355
 10
-6298.814471088747
 20
-527.689831988833
 10
-6144.257697662408
 20
-646.2854154138128
 10
-5964.272522926569
 20
-720.8377158154889
 10
-5771.124639099914
 20
-746.2661171249881
 10
-5577.976755273258
 20
-720.8377158154889
 10
-5397.991580537419
 20
-646.285415413813
 10
-5243.43480711108
 20
-527.6898319888334
  0
LWPOLYLINE
  5
3D
330
17
100
AcDbEntity
  8
TIER_02
100
AcDbPolyline
 90
24
 70
1
 10
-2357.872487561122
 20
4470.250713877992
 10
-2239.276904136142
 20
4624.807487304331
 10
-2164.7246037344667
 20
4804.7926620401695
 10
-2139.296202424967
 20
4997.940545866825
 10
-2164.724603734466
 20
5191.088429693481
 10
-2239.276904136142
 20
5371.07360442932
 10
-2357.8724875611215
 20
5525.630377855659
 10
-2512.429260987461
 20
5644.225961280639
 10
-2692.4144357233004
 20
5718.778261682315
 10
-2885.5623195499556
 20
5744.2066629918145
 10
-3078.7102033766114
 20
5718.778261682315
 10
-3258.69537811245
 20
5644.225961280639
 10
-3413.25215153879
 20
5525.630377855659
 10
-3531.8477349637697
 20
5371.07360442932
 10
-3606.400035365445
 20
5191.088429693481
 10
-3631.828436674945
 20
4997.940545866825
 10
-3606.400035365445
 20
4804.79266204017
 10
-3531.8477349637697
 20
4624.8074873043315
 10
-3413.25215153879
 20
4470.250713877992
 10
-3258.6953781124507
 20
4351.655130453012
 10
-3078.7102033766114
 20
4277.102830051336
 10
-2885.5623195499556
 20
4251.674428741837
 10
-2692.414435723301
 20
4277.102830051336
 10
-2512.429260987461
 20
4351.655130453012
  0
LWPOLYLINE
  5
3E
330
17
100
AcDbEntity
  8
TIER_02
100
AcDbPolyline
 90
24
 70
1
 10
3413.2521515387916
 20
-5525.630377855659
 10
3531.847734963771
 20
-5371.073604429321
 10
3606.400035365447
 20
-5191.088429693482
 10
3631.8284366749463
 20
-4997.940545866825
 10
3606.400035365447
 20
-4804.79266204017
 10
3531.847734963771
 20
-4624.8074873043315
 10
3413.2521515387916
 20
-4470.250713877992
 10
3258.6953781124516
 20
-4351.655130453012
 10
3078.7102033766128
 20
-4277.102830051336
 10
2885.5623195499575
 20
-4251.674428741837
 10
2692.4144357233017
 20
-4277.102830051336
 10
2512.4292609874633
 20
-4351.655130453012
 10
2357.8724875611233
 20
-4470.250713877992
 10
2239.2769041361435
 20
-4624.8074873043315
 10
2164.724603734468
 20
-4804.79266204017
 10
2139.296202424968
 20
-4997.940545866825
 10
2164.724603734468
 20
-5191.088429693481
 10
2239.2769041361435
 20
-5371.07360442932
 10
2357.872487561123
 20
-5525.630377855659
 10
2512.4292609874624
 20
-5644.225961280639
 10
2692.4144357233017
 20
-5718.778261682315
 10
2885.5623195499575
 20
-5744.2066629918145
 10
3078.7102033766123
 20
-5718.778261682315
 10
3258.6953781124516
 20
-5644.225961280639
  0
LWPOLYLINE
  5
3F
330
17
100
AcDbEntity
  8
TIER_02
100
AcDbPolyline
 90
24
 70
1
 10
6298.814471088747
 20
-527.689831988834
 10
6417.410054513727
 20
-373.1330585624948
 10
6491.962354915403
 20
-193.14788382665614
 10
6517.390756224902
 20
0.0
 10
6491.962354915403
 20
193.14788382665552
 10
6417.410054513727
 20
373.13305856249434
 10
6298.814471088747
 20
527.6898319888339
 10
6144.257697662408
 20
646.2854154138137
 10
5964.272522926569
 20
720.8377158154896
 10
5771.124639099914
 20
746.2661171249889
 10
5577.976755273258
 20
720.8377158154896
 10
5397.991580537419
 20
646.2854154138138
 10
5243.43480711108
 20
527.6898319888339
 10
5124.8392236861
 20
373.13305856249434
 10
5050.286923284424
 20
193.14788382665574
 10
5024.858521974925
 20
9.139124116492415e-14
 10
5050.286923284424
 20
-193.14788382665554
 10
5124.8392236861
 20
-373.1330585624942
 10
5243.43480711108
 20
-527.6898319888337
 10
5397.991580537419
 20
-646.2854154138134
 10
5577.976755273258
 20
-720.8377158154896
 10
5771.124639099914
 20
-746.2661171249889
 10
5964.272522926569
 20
-720.8377158154896
 10
6144.257697662408
 20
-646.2854154138137
  0
LWPOLYLINE
  5
40
330
17
100
AcDbEntity
  8
TIER_02
100
AcDbPolyline
 90
24
 70
1
 10
3413.2521515387916
 20
4470.250713877992
 10
3531.847734963771
 20
4624.807487304331
 10
3606.400035365447
 20
4804.7926620401695
 10
3631.8284366749463
 20
4997.940545866825
 10
3606.400035365447
 20
5191.088429693481
 10
3531.847734963771
 20
5371.07360442932
 10
3413.2521515387916
 20
5525.630377855659
 10
3258.6953781124516
 20
5644.225961280639
 10
3078.7102033766128
 20
5718.778261682315
 10
2885.5623195499575
 20
5744.2066629918145
 10
2692.4144357233017
 20
5718.778261682315
 10
2512.4292609874633
 20
5644.225961280639
 10
2357.8724875611233
 20
5525.630377855659
 10
2239.2769041361435
 20
5371.07360442932
 10
2164.724603734468
 20
5191.088429693481
 10
2139.296202424968
 20
4997.940545866825
 10
2164.724603734468
 20
4804.79266204017
 10
2239.2769041361435
 20
4624.8074873043315
 10
2357.872487561123
 20
4470.250713877992
 10
2512.4292609874624
 20
4351.655130453012
 10
2692.4144357233017
 20
4277.102830051336
 10
2885.5623195499575
 20
4251.674428741837
 10
3078.7102033766123
 20
4277.102830051336
 10
3258.6953781124516
 20
4351.655130453012
  0
LWPOLYLINE
  5
42
330
17
100
AcDbEntity
  8
TIER_03
100
AcDbPolyline
 90
102
 70
1
 10
6947.29059431176
 20
-8052.974326293406
 10
7213.905798874894
 20
-9047.99581579339
 10
6947.290594311759
 20
-10043.017305293377
 10
6218.884309374909
 20
-10771.423590230226
 10
5223.862819874924
 20
-11038.038794793361
 10
4228.841330374938
 20
-10771.423590230226
 10
3500.4350454380865
 20
-10043.017305293375
 10
3233.819840874953
 20
-9047.99581579339
 10
3500.4350454380865
 20
-8052.974326293406
 10
3623.3685397708273
 20
-7930.040831960665
 10
174.12876066249743
 20
-8854.261845274046
 10
174.12876066249743
 20
-2985.0644684999556
 10
-174.12876066249743
 20
-2985.0644684999556
 10
-174.12876066249743
 20
-8854.261845274046
 10
-3623.3685397708305
 20
-7930.040831960665
 10
-3500.4350454380897
 20
-8052.974326293405
 10
-3233.8198408749563
 20
-9047.99581579339
 10
-3500.435045438091
 20
-10043.017305293377
 10
-4228.841330374941
 20
-10771.423590230226
 10
-5223.862819874927
 20
-11038.038794793361
 10
-6218.884309374913
 20
-10771.423590230226
 10
-6947.290594311764
 20
-10043.017305293375
 10
-7213.905798874898
 20
-9047.99581579339
 10
-6947.290594311764
 20
-8052.974326293405
 10
-6218.884309374912
 20
-7324.568041356552
 10
-5223.862819874927
 20
-7057.952836793419
 10
-5055.9325436404115
 20
-7102.949618695193
 10
-7580.951309435355
 20
-4577.930852900247
 10
-2498.077281324006
 20
-1643.3321645132012
 10
-2672.206041986503
 20
-1341.732303986755
 10
-7755.080070097854
 20
-4276.330992373802
 10
-8679.301083411236
 20
-827.0912132654684
 10
-8724.297865313009
 20
-995.0214894999848
 10
-9452.70415024986
 20
-1723.427774436835
 10
-10447.725639749844
 20
-1990.0429789999691
 10
-11442.74712924983
 20
-1723.4277744368349
 10
-12171.153414186683
 20
-995.0214894999834
 10
-12437.768618749815
 20
1.5231873527487357e-12
 10
-12171.153414186681
 20
995.0214894999864
 10
-11442.747129249829
 20
1723.4277744368383
 10
-10447.725639749844
 20
1990.0429789999719
 10
-9452.70415024986
 20
1723.4277744368378
 10
-8724.297865313009
 20
995.0214894999864
 10
-8679.301083411236
 20
827.0912132654717
 10
-7755.080070097854
 20
4276.3309923738
 10
-2672.2060419865034
 20
1341.7323039867545
 10
-2498.0772813240064
 20
1643.3321645132005
 10
-7580.951309435357
 20
4577.930852900246
 10
-5055.932543640407
 20
7102.949618695194
 10
-5223.86281987492
 20
7057.952836793421
 10
-6218.8843093749065
 20
7324.568041356556
 10
-6947.290594311758
 20
8052.974326293407
 10
-7213.905798874891
 20
9047.995815793392
 10
-6947.290594311758
 20
10043.017305293377
 10
-6218.884309374906
 20
10771.42359023023
 10
-5223.86281987492
 20
11038.038794793363
 10
-4228.841330374935
 20
10771.42359023023
 10
-3500.4350454380833
 20
10043.017305293377
 10
-3233.81984087495
 20
9047.995815793392
 10
-3500.435045438084
 20
8052.974326293406
 10
-3623.368539770824
 20
7930.040831960667
 10
-174.12876066249743
 20
8854.261845274046
 10
-174.12876066249743
 20
2985.0644684999556
 10
174.12876066249743
 20
2985.0644684999556
 10
174.12876066249743
 20
8854.261845274046
 10
3623.3685397708273
 20
7930.040831960666
 10
3500.4350454380865
 20
8052.974326293406
 10
3233.819840874953
 20
9047.99581579339
 10
3500.4350454380865
 20
10043.017305293377
 10
4228.8413303749385
 20
10771.423590230226
 10
5223.862819874924
 20
11038.038794793361
 10
6218.884309374909
 20
10771.423590230226
 10
6947.29059431176
 20
10043.017305293377
 10
7213.905798874894
 20
9047.99581579339
 10
6947.290594311759
 20
8052.974326293405
 10
6218.884309374909
 20
7324.568041356555
 10
5223.862819874924
 20
7057.952836793421
 10
5055.932543640408
 20
7102.949618695196
 10
7580.951309435357
 20
4577.930852900246
 10
2498.0772813240064
 20
1643.3321645132005
 10
2672.2060419865034
 20
1341.7323039867545
 10
7755.080070097854
 20
4276.3309923738
 10
8679.301083411236
 20
827.0912132654705
 10
8724.297865313009
 20
995.0214894999851
 10
9452.70415024986
 20
1723.4277744368367
 10
10447.725639749844
 20
1990.0429789999705
 10
11442.74712924983
 20
1723.4277744368364
 10
12171.153414186681
 20
995.0214894999851
 10
12437.768618749815
 20
0.0
 10
12171.153414186681
 20
-995.021489499986
 10
11442.74712924983
 20
-1723.4277744368364
 10
10447.725639749844
 20
-1990.0429789999705
 10
9452.70415024986
 20
-1723.4277744368362
 10
8724.297865313009
 20
-995.0214894999847
 10
8679.301083411236
 20
-827.0912132654696
 10
7755.080070097851
 20
-4276.330992373804
 10
2672.206041986503
 20
-1341.732303986756
 10
2498.077281324005
 20
-1643.332164513202
 10
7580.951309435354
 20
-4577.93085290025
 10
5055.932543640409
 20
-7102.949618695194
 10
5223.862819874924
 20
-7057.952836793421
 10
6218.884309374909
 20
-7324.568041356555
  0
LWPOLYLINE
  5
43
330
17
100
AcDbEntity
  8
TIER_03
100
AcDbPolyline
 90
24
 70
1
 10
-2239.276904136146
 20
-5371.073604429319
 10
-2164.7246037344703
 20
-5191.088429693481
 10
-2139.2962024249705
 20
-4997.940545866824
 10
-2164.72460373447
 20
-4804.792662040169
 10
-2239.2769041361457
 20
-4624.807487304331
 10
-2357.8724875611256
 20
-4470.25071387799
 10
-2512.4292609874656
 20
-4351.655130453011
 10
-2692.414435723304
 20
-4277.102830051335
 10
-2885.5623195499597
 20
-4251.674428741835
 10
-3078.710203376615
 20
-4277.102830051335
 10
-3258.695378112454
 20
-4351.655130453011
 10
-3413.2521515387934
 20
-4470.25071387799
 10
-3531.8477349637733
 20
-4624.807487304331
 10
-3606.400035365449
 20
-4804.792662040169
 10
-3631.8284366749485
 20
-4997.940545866824
 10
-3606.400035365449
 20
-5191.08842969348
 10
-3531.8477349637733
 20
-5371.073604429319
 10
-3413.2521515387934
 20
-5525.6303778556585
 10
-3258.6953781124544
 20
-5644.225961280638
 10
-3078.710203376615
 20
-5718.778261682314
 10
-2885.5623195499597
 20
-5744.206662991813
 10
-2692.4144357233045
 20
-5718.778261682314
 10
-2512.4292609874656
 20
-5644.225961280638
 10
-2357.872487561126
 20
-5525.6303778556585
  0
LWPOLYLINE
  5
44
330
17
100
AcDbEntity
  8
TIER_03
100
AcDbPolyline
 90
24
 70
1
 10
844.3037311821341
 20
-844.3037311821345
 10
1034.0566646621014
 20
-597.0128936999917
 10
1153.3403453047829
 20
-309.0366141226498
 10
1194.0257873999822
 20
0.0
 10
1153.340345304783
 20
309.0366141226488
 10
1034.0566646621019
 20
597.012893699991
 10
844.3037311821344
 20
844.3037311821344
 10
597.0128936999912
 20
1034.0566646621019
 10
309.0366141226488
 20
1153.340345304783
 10
7.31129929319393e-14
 20
1194.0257873999822
 10
-309.0366141226487
 20
1153.340345304783
 10
-597.0128936999909
 20
1034.0566646621019
 10
-844.3037311821342
 20
844.3037311821344
 10
-1034.0566646621019
 20
597.012893699991
 10
-1153.340345304783
 20
309.03661412264915
 10
-1194.0257873999822
 20
1.462259858638786e-13
 10
-1153.340345304783
 20
-309.0366141226489
 10
-1034.056664662102
 20
-597.0128936999907
 10
-844.3037311821348
 20
-844.3037311821338
 10
-597.0128936999917
 20
-1034.0566646621016
 10
-309.0366141226487
 20
-1153.340345304783
 10
-2.1933897879581792e-13
 20
-1194.0257873999822
 10
309.0366141226483
 20
-1153.3403453047833
 10
597.0128936999912
 20
-1034.0566646621019
  0
LWPOLYLINE
  5
45
330
17
100
AcDbEntity
  8
TIER_03
100
AcDbPolyline
 90
24
 70
1
 10
-5124.8392236861
 20
-373.13305856249406
 10
-5050.286923284424
 20
-193.14788382665546
 10
-5024.858521974925
 20
7.067589316754133e-13
 10
-5050.286923284424
 20
193.14788382665623
 10
-5124.8392236861
 20
373.133058562495
 10
-5243.43480711108
 20
527.6898319888346
 10
-5397.991580537419
 20
646.2854154138143
 10
-5577.976755273258
 20
720.8377158154902
 10
-5771.124639099914
 20
746.2661171249896
 10
-5964.272522926569
 20
720.8377158154902
 10
-6144.257697662408
 20
646.2854154138145
 10
-6298.814471088747
 20
527.6898319888346
 10
-6417.410054513727
 20
373.133058562495
 10
-6491.962354915403
 20
193.14788382665643
 10
-6517.390756224902
 20
7.981501728403374e-13
 10
-6491.962354915403
 20
-193.14788382665486
 10
-6417.410054513727
 20
-373.13305856249355
 10
-6298.814471088747
 20
-527.689831988833
 10
-6144.257697662408
 20
-646.2854154138128
 10
-5964.272522926569
 20
-720.8377158154889
 10
-5771.124639099914
 20
-746.2661171249881
 10
-5577.976755273258
 20
-720.8377158154889
 10
-5397.991580537419
 20
-646.285415413813
 10
-5243.43480711108
 20
-527.6898319888334
  0
LWPOLYLINE
  5
46
330
17
100
AcDbEntity
  8
TIER_03
100
AcDbPolyline
 90
24
 70
1
 10
-2357.872487561122
 20
4470.250713877992
 10
-2239.276904136142
 20
4624.807487304331
 10
-2164.7246037344667
 20
4804.7926620401695
 10
-2139.296202424967
 20
4997.940545866825
 10
-2164.724603734466
 20
5191.088429693481
 10
-2239.276904136142
 20
5371.07360442932
 10
-2357.8724875611215
 20
5525.630377855659
 10
-2512.429260987461
 20
5644.225961280639
 10
-2692.4144357233004
 20
5718.778261682315
 10
-2885.5623195499556
 20
5744.2066629918145
 10
-3078.7102033766114
 20
5718.778261682315
 10
-3258.69537811245
 20
5644.225961280639
 10
-3413.25215153879
 20
5525.630377855659
 10
-3531.8477349637697
 20
5371.07360442932
 10
-3606.400035365445
 20
5191.088429693481
 10
-3631.828436674945
 20
4997.940545866825
 10
-3606.400035365445
 20
4804.79266204017
 10
-3531.8477349637697
 20
4624.8074873043315
 10
-3413.25215153879
 20
4470.250713877992
 10
-3258.6953781124507
 20
4351.655130453012
 10
-3078.7102033766114
 20
4277.102830051336
 10
-2885.5623195499556
 20
4251.674428741837
 10
-2692.414435723301
 20
4277.102830051336
 10
-2512.429260987461
 20
4351.655130453012
  0
LWPOLYLINE
  5
47
330
17
100
AcDbEntity
  8
TIER_03
100
AcDbPolyline
 90
24
 70
1
 10
3413.2521515387916
 20
-5525.630377855659
 10
3531.847734963771
 20
-5371.073604429321
 10
3606.400035365447
 20
-5191.088429693482
 10
3631.8284366749463
 20
-4997.940545866825
 10
3606.400035365447
 20
-4804.79266204017
 10
3531.847734963771
 20
-4624.8074873043315
 10
3413.2521515387916
 20
-4470.250713877992
 10
3258.6953781124516
 20
-4351.655130453012
 10
3078.7102033766128
 20
-4277.102830051336
 10
2885.5623195499575
 20
-4251.674428741837
 10
2692.4144357233017
 20
-4277.102830051336
 10
2512.4292609874633
 20
-4351.655130453012
 10
2357.8724875611233
 20
-4470.250713877992
 10
2239.2769041361435
 20
-4624.8074873043315
 10
2164.724603734468
 20
-4804.79266204017
 10
2139.296202424968
 20
-4997.940545866825
 10
2164.724603734468
 20
-5191.088429693481
 10
2239.2769041361435
 20
-5371.07360442932
 10
2357.872487561123
 20
-5525.630377855659
 10
2512.4292609874624
 20
-5644.225961280639
 10
2692.4144357233017
 20
-5718.778261682315
 10
2885.5623195499575
 20
-5744.2066629918145
 10
3078.7102033766123
 20
-5718.778261682315
 10
3258.6953781124516
 20
-5644.225961280639
  0
LWPOLYLINE
  5
48
330
17
100
AcDbEntity
  8
TIER_03
100
AcDbPolyline
 90
24
 70
1
 10
6298.814471088747
 20
-527.689831988834
 10
6417.410054513727
 20
-373.1330585624948
 10
6491.962354915403
 20
-193.14788382665614
 10
6517.390756224902
 20
0.0
 10
6491.962354915403
 20
193.14788382665552
 10
6417.410054513727
 20
373.13305856249434
 10
6298.814471088747
 20
527.6898319888339
 10
6144.257697662408
 20
646.2854154138137
 10
5964.272522926569
 20
720.8377158154896
 10
5771.124639099914
 20
746.2661171249889
 10
5577.976755273258
 20
720.8377158154896
 10
5397.991580537419
 20
646.2854154138138
 10
5243.43480711108
 20
527.6898319888339
 10
5124.8392236861
 20
373.13305856249434
 10
5050.286923284424
 20
193.14788382665574
 10
5024.858521974925
 20
9.139124116492415e-14
 10
5050.286923284424
 20
-193.14788382665554
 10
5124.8392236861
 20
-373.1330585624942
 10
5243.43480711108
 20
-527.6898319888337
 10
5397.991580537419
 20
-646.2854154138134
 10
5577.976755273258
 20
-720.8377158154896
 10
5771.124639099914
 20
-746.2661171249889
 10
5964.272522926569
 20
-720.8377158154896
 10
6144.257697662408
 20
-646.2854154138137
  0
LWPOLYLINE
  5
49
330
17
100
AcDbEntity
  8
TIER_03
100
AcDbPolyline
 90
24
 70
1
 10
3413.2521515387916
 20
4470.250713877992
 10
3531.847734963771
 20
4624.807487304331
 10
3606.400035365447
 20
4804.7926620401695
 10
3631.8284366749463
 20
4997.940545866825
 10
3606.400035365447
 20
5191.088429693481
 10
3531.847734963771
 20
5371.07360442932
 10
3413.2521515387916
 20
5525.630377855659
 10
3258.6953781124516
 20
5644.225961280639
 10
3078.7102033766128
 20
5718.778261682315
 10
2885.5623195499575
 20
5744.2066629918145
 10
2692.4144357233017
 20
5718.778261682315
 10
2512.4292609874633
 20
5644.225961280639
 10
2357.8724875611233
 20
5525.630377855659
 10
2239.2769041361435
 20
5371.07360442932
 10
2164.724603734468
 20
5191.088429693481
 10
2139.296202424968
 20
4997.940545866825
 10
2164.724603734468
 20
4804.79266204017
 10
2239.2769041361435
 20
4624.8074873043315
 10
2357.872487561123
 20
4470.250713877992
 10
2512.4292609874624
 20
4351.655130453012
 10
2692.4144357233017
 20
4277.102830051336
 10
2885.5623195499575
 20
4251.674428741837
 10
3078.7102033766123
 20
4277.102830051336
 10
3258.6953781124516
 20
4351.655130453012
  0
LWPOLYLINE
  5
4B
330
17
100
AcDbEntity
  8
TIER_04
100
AcDbPolyline
 90
30
 70
1
 10
8376.271811608965
 20
0.0
 10
7300.721838655412
 20
-4014.0071451419894
 10
2672.206041986503
 20
-1341.732303986756
 10
2498.077281324005
 20
-1643.332164513202
 10
7126.593077992916
 20
-4315.607005668436
 10
4188.1359058044845
 20
-7254.064177856866
 10
174.12876066249743
 20
-8329.614150810417
 10
174.12876066249743
 20
-2985.0644684999556
 10
-174.12876066249743
 20
-2985.0644684999556
 10
-174.12876066249743
 20
-8329.614150810417
 10
-4188.135905804487
 20
-7254.064177856865
 10
-7126.593077992917
 20
-4315.607005668432
 10
-2498.077281324006
 20
-1643.3321645132012
 10
-2672.206041986503
 20
-1341.732303986755
 10
-7300.721838655415
 20
-4014.007145141987
 10
-8376.271811608965
 20
1.0257974462875123e-12
 10
-7300.721838655415
 20
4014.007145141985
 10
-2672.2060419865034
 20
1341.7323039867545
 10
-2498.0772813240064
 20
1643.3321645132005
 10
-7126.593077992918
 20
4315.607005668431
 10
-4188.135905804481
 20
7254.064177856866
 10
-174.12876066249743
 20
8329.614150810417
 10
-174.12876066249743
 20
2985.0644684999556
 10
174.12876066249743
 20
2985.0644684999556
 10
174.12876066249743
 20
8329.614150810417
 10
4188.1359058044845
 20
7254.064177856866
 10
7126.593077992918
 20
4315.607005668431
 10
2498.0772813240064
 20
1643.3321645132005
 10
2672.2060419865034
 20
1341.7323039867545
 10
7300.721838655415
 20
4014.007145141985
  0
LWPOLYLINE
  5
4C
330
17
100
AcDbEntity
  8
TIER_04
100
AcDbPolyline
 90
24
 70
1
 10
-2239.276904136146
 20
-5371.073604429319
 10
-2164.7246037344703
 20
-5191.088429693481
 10
-2139.2962024249705
 20
-4997.940545866824
 10
-2164.72460373447
 20
-4804.792662040169
 10
-2239.2769041361457
 20
-4624.807487304331
 10
-2357.8724875611256
 20
-4470.25071387799
 10
-2512.4292609874656
 20
-4351.655130453011
 10
-2692.414435723304
 20
-4277.102830051335
 10
-2885.5623195499597
 20
-4251.674428741835
 10
-3078.710203376615
 20
-4277.102830051335
 10
-3258.695378112454
 20
-4351.655130453011
 10
-3413.2521515387934
 20
-4470.25071387799
 10
-3531.8477349637733
 20
-4624.807487304331
 10
-3606.400035365449
 20
-4804.792662040169
 10
-3631.8284366749485
 20
-4997.940545866824
 10
-3606.400035365449
 20
-5191.08842969348
 10
-3531.8477349637733
 20
-5371.073604429319
 10
-3413.2521515387934
 20
-5525.6303778556585
 10
-3258.6953781124544
 20
-5644.225961280638
 10
-3078.710203376615
 20
-5718.778261682314
 10
-2885.5623195499597
 20
-5744.206662991813
 10
-2692.4144357233045
 20
-5718.778261682314
 10
-2512.4292609874656
 20
-5644.225961280638
 10
-2357.872487561126
 20
-5525.6303778556585
  0
LWPOLYLINE
  5
4D
330
17
100
AcDbEntity
  8
TIER_04
100
AcDbPolyline
 90
24
 70
1
 10
844.3037311821341
 20
-844.3037311821345
 10
1034.0566646621014
 20
-597.0128936999917
 10
1153.3403453047829
 20
-309.0366141226498
 10
1194.0257873999822
 20
0.0
 10
1153.340345304783
 20
309.0366141226488
 10
1034.0566646621019
 20
597.012893699991
 10
844.3037311821344
 20
844.3037311821344
 10
597.0128936999912
 20
1034.0566646621019
 10
309.0366141226488
 20
1153.340345304783
 10
7.31129929319393e-14
 20
1194.0257873999822
 10
-309.0366141226487
 20
1153.340345304783
 10
-597.0128936999909
 20
1034.0566646621019
 10
-844.3037311821342
 20
844.3037311821344
 10
-1034.0566646621019
 20
597.012893699991
 10
-1153.340345304783
 20
309.03661412264915
 10
-1194.0257873999822
 20
1.462259858638786e-13
 10
-1153.340345304783
 20
-309.0366141226489
 10
-1034.056664662102
 20
-597.0128936999907
 10
-844.3037311821348
 20
-844.3037311821338
 10
-597.0128936999917
 20
-1034.0566646621016
 10
-309.0366141226487
 20
-1153.340345304783
 10
-2.1933897879581792e-13
 20
-1194.0257873999822
 10
309.0366141226483
 20
-1153.3403453047833
 10
597.0128936999912
 20
-1034.0566646621019
  0
LWPOLYLINE
  5
4E
330
17
100
AcDbEntity
  8
TIER_04
100
AcDbPolyline
 90
24
 70
1
 10
-5124.8392236861
 20
-373.13305856249406
 10
-5050.286923284424
 20
-193.14788382665546
 10
-5024.858521974925
 20
7.067589316754133e-13
 10
-5050.286923284424
 20
193.14788382665623
 10
-5124.8392236861
 20
373.133058562495
 10
-5243.43480711108
 20
527.6898319888346
 10
-5397.991580537419
 20
646.2854154138143
 10
-5577.976755273258
 20
720.8377158154902
 10
-5771.124639099914
 20
746.2661171249896
 10
-5964.272522926569
 20
720.8377158154902
 10
-6144.257697662408
 20
646.2854154138145
 10
-6298.814471088747
 20
527.6898319888346
 10
-6417.410054513727
 20
373.133058562495
 10
-6491.962354915403
 20
193.14788382665643
 10
-6517.390756224902
 20
7.981501728403374e-13
 10
-6491.962354915403
 20
-193.14788382665486
 10
-6417.410054513727
 20
-373.13305856249355
 10
-6298.814471088747
 20
-527.689831988833
 10
-6144.257697662408
 20
-646.2854154138128
 10
-5964.272522926569
 20
-720.8377158154889
 10
-5771.124639099914
 20
-746.2661171249881
 10
-5577.976755273258
 20
-720.8377158154889
 10
-5397.991580537419
 20
-646.285415413813
 10
-5243.43480711108
 20
-527.6898319888334
  0
LWPOLYLINE
  5
4F
330
17
100
AcDbEntity
  8
TIER_04
100
AcDbPolyline
 90
24
 70
1
 10
-2357.872487561122
 20
4470.250713877992
 10
-2239.276904136142
 20
4624.807487304331
 10
-2164.7246037344667
 20
4804.7926620401695
 10
-2139.296202424967
 20
4997.940545866825
 10
-2164.724603734466
 20
5191.088429693481
 10
-2239.276904136142
 20
5371.07360442932
 10
-2357.8724875611215
 20
5525.630377855659
 10
-2512.429260987461
 20
5644.225961280639
 10
-2692.4144357233004
 20
5718.778261682315
 10
-2885.5623195499556
 20
5744.2066629918145
 10
-3078.7102033766114
 20
5718.778261682315
 10
-3258.69537811245
 20
5644.225961280639
 10
-3413.25215153879
 20
5525.630377855659
 10
-3531.8477349637697
 20
5371.07360442932
 10
-3606.400035365445
 20
5191.088429693481
 10
-3631.828436674945
 20
4997.940545866825
 10
-3606.400035365445
 20
4804.79266204017
 10
-3531.8477349637697
 20
4624.8074873043315
 10
-3413.25215153879
 20
4470.250713877992
 10
-3258.6953781124507
 20
4351.655130453012
 10
-3078.7102033766114
 20
4277.102830051336
 10
-2885.5623195499556
 20
4251.674428741837
 10
-2692.414435723301
 20
4277.102830051336
 10
-2512.429260987461
 20
4351.655130453012
  0
LWPOLYLINE
  5
50
330
17
100
AcDbEntity
  8
TIER_04
100
AcDbPolyline
 90
24
 70
1
 10
3413.2521515387916
 20
-5525.630377855659
 10
3531.847734963771
 20
-5371.073604429321
 10
3606.400035365447
 20
-5191.088429693482
 10
3631.8284366749463
 20
-4997.940545866825
 10
3606.400035365447
 20
-4804.79266204017
 10
3531.847734963771
 20
-4624.8074873043315
 10
3413.2521515387916
 20
-4470.250713877992
 10
3258.6953781124516
 20
-4351.655130453012
 10
3078.7102033766128
 20
-4277.102830051336
 10
2885.5623195499575
 20
-4251.674428741837
 10
2692.4144357233017
 20
-4277.102830051336
 10
2512.4292609874633
 20
-4351.655130453012
 10
2357.8724875611233
 20
-4470.250713877992
 10
2239.2769041361435
 20
-4624.8074873043315
 10
2164.724603734468
 20
-4804.79266204017
 10
2139.296202424968
 20
-4997.940545866825
 10
2164.724603734468
 20
-5191.088429693481
 10
2239.2769041361435
 20
-5371.07360442932
 10
2357.872487561123
 20
-5525.630377855659
 10
2512.4292609874624
 20
-5644.225961280639
 10
2692.4144357233017
 20
-5718.778261682315
 10
2885.5623195499575
 20
-5744.2066629918145
 10
3078.7102033766123
 20
-5718.778261682315
 10
3258.6953781124516
 20
-5644.225961280639
  0
LWPOLYLINE
  5
51
330
17
100
AcDbEntity
  8
TIER_04
100
AcDbPolyline
 90
24
 70
1
 10
6298.814471088747
 20
-527.689831988834
 10
6417.410054513727
 20
-373.1330585624948
 10
6491.962354915403
 20
-193.14788382665614
 10
6517.390756224902
 20
0.0
 10
6491.962354915403
 20
193.14788382665552
 10
6417.410054513727
 20
373.13305856249434
 10
6298.814471088747
 20
527.6898319888339
 10
6144.257697662408
 20
646.2854154138137
 10
5964.272522926569
 20
720.8377158154896
 10
5771.124639099914
 20
746.2661171249889
 10
5577.976755273258
 20
720.8377158154896
 10
5397.991580537419
 20
646.2854154138138
 10
5243.43480711108
 20
527.6898319888339
 10
5124.8392236861
 20
373.13305856249434
 10
5050.286923284424
 20
193.14788382665574
 10
5024.858521974925
 20
9.139124116492415e-14
 10
5050.286923284424
 20
-193.14788382665554
 10
5124.8392236861
 20
-373.1330585624942
 10
5243.43480711108
 20
-527.6898319888337
 10
5397.991580537419
 20
-646.2854154138134
 10
5577.976755273258
 20
-720.8377158154896
 10
5771.124639099914
 20
-746.2661171249889
 10
5964.272522926569
 20
-720.8377158154896
 10
6144.257697662408
 20
-646.2854154138137
  0
LWPOLYLINE
  5
52
330
17
100
AcDbEntity
  8
TIER_04
100
AcDbPolyline
 90
24
 70
1
 10
3413.2521515387916
 20
4470.250713877992
 10
3531.847734963771
 20
4624.807487304331
 10
3606.400035365447
 20
4804.7926620401695
 10
3631.8284366749463
 20
4997.940545866825
 10
3606.400035365447
 20
5191.088429693481
 10
3531.847734963771
 20
5371.07360442932
 10
3413.2521515387916
 20
5525.630377855659
 10
3258.6953781124516
 20
5644.225961280639
 10
3078.7102033766128
 20
5718.778261682315
 10
2885.5623195499575
 20
5744.2066629918145
 10
2692.4144357233017
 20
5718.778261682315
 10
2512.4292609874633
 20
5644.225961280639
 10
2357.8724875611233
 20
5525.630377855659
 10
2239.2769041361435
 20
5371.07360442932
 10
2164.724603734468
 20
5191.088429693481
 10
2139.296202424968
 20
4997.940545866825
 10
2164.724603734468
 20
4804.79266204017
 10
2239.2769041361435
 20
4624.8074873043315
 10
2357.872487561123
 20
4470.250713877992
 10
2512.4292609874624
 20
4351.655130453012
 10
2692.4144357233017
 20
4277.102830051336
 10
2885.5623195499575
 20
4251.674428741837
 10
3078.7102033766123
 20
4277.102830051336
 10
3258.6953781124516
 20
4351.655130453012
  0
LWPOLYLINE
  5
54
330
17
100
AcDbEntity
  8
TIER_05
100
AcDbPolyline
 90
30
 70
1
 10
7851.624117145338
 20
0.0
 10
6846.363607212974
 20
-3751.683297910175
 10
2672.206041986503
 20
-1341.732303986756
 10
2498.077281324005
 20
-1643.332164513202
 10
6672.2348465504765
 20
-4053.2831584366213
 10
3925.8120585726697
 20
-6799.705946414427
 10
174.12876066249743
 20
-7804.966456346789
 10
174.12876066249743
 20
-2985.0644684999556
 10
-174.12876066249743
 20
-2985.0644684999556
 10
-174.12876066249743
 20
-7804.966456346789
 10
-3925.812058572672
 20
-6799.705946414427
 10
-6672.234846550478
 20
-4053.2831584366177
 10
-2498.077281324006
 20
-1643.3321645132012
 10
-2672.206041986503
 20
-1341.732303986755
 10
-6846.363607212976
 20
-3751.6832979101728
 10
-7851.624117145338
 20
9.6154663431702e-13
 10
-6846.363607212976
 20
3751.683297910171
 10
-2672.2060419865034
 20
1341.7323039867545
 10
-2498.0772813240064
 20
1643.3321645132005
 10
-6672.234846550479
 20
4053.2831584366168
 10
-3925.812058572667
 20
6799.705946414428
 10
-174.12876066249743
 20
7804.966456346789
 10
-174.12876066249743
 20
2985.0644684999556
 10
174.12876066249743
 20
2985.0644684999556
 10
174.12876066249743
 20
7804.966456346789
 10
3925.8120585726697
 20
6799.705946414427
 10
6672.234846550479
 20
4053.2831584366168
 10
2498.0772813240064
 20
1643.3321645132005
 10
2672.2060419865034
 20
1341.7323039867545
 10
6846.363607212976
 20
3751.683297910171
  0
LWPOLYLINE
  5
55
330
17
100
AcDbEntity
  8
TIER_05
100
AcDbPolyline
 90
24
 70
1
 10
-2239.276904136146
 20
-5371.073604429319
 10
-2164.7246037344703
 20
-5191.088429693481
 10
-2139.2962024249705
 20
-4997.940545866824
 10
-2164.72460373447
 20
-4804.792662040169
 10
-2239.2769041361457
 20
-4624.807487304331
 10
-2357.8724875611256
 20
-4470.25071387799
 10
-2512.4292609874656
 20
-4351.655130453011
 10
-2692.414435723304
 20
-4277.102830051335
 10
-2885.5623195499597
 20
-4251.674428741835
 10
-3078.710203376615
 20
-4277.102830051335
 10
-3258.695378112454
 20
-4351.655130453011
 10
-3413.2521515387934
 20
-4470.25071387799
 10
-3531.8477349637733
 20
-4624.807487304331
 10
-3606.400035365449
 20
-4804.792662040169
 10
-3631.8284366749485
 20
-4997.940545866824
 10
-3606.400035365449
 20
-5191.08842969348
 10
-3531.8477349637733
 20
-5371.073604429319
 10
-3413.2521515387934
 20
-5525.6303778556585
 10
-3258.6953781124544
 20
-5644.225961280638
 10
-3078.710203376615
 20
-5718.778261682314
 10
-2885.5623195499597
 20
-5744.206662991813
 10
-2692.4144357233045
 20
-5718.778261682314
 10
-2512.4292609874656
 20
-5644.225961280638
 10
-2357.872487561126
 20
-5525.6303778556585
  0
LWPOLYLINE
  5
56
330
17
100
AcDbEntity
  8
TIER_05
100
AcDbPolyline
 90
24
 70
1
 10
844.3037311821341
 20
-844.3037311821345
 10
1034.0566646621014
 20
-597.0128936999917
 10
1153.3403453047829
 20
-309.0366141226498
 10
1194.0257873999822
 20
0.0
 10
1153.340345304783
 20
309.0366141226488
 10
1034.0566646621019
 20
597.012893699991
 10
844.3037311821344
 20
844.3037311821344
 10
597.0128936999912
 20
1034.0566646621019
 10
309.0366141226488
 20
1153.340345304783
 10
7.31129929319393e-14
 20
1194.0257873999822
 10
-309.0366141226487
 20
1153.340345304783
 10
-597.0128936999909
 20
1034.0566646621019
 10
-844.3037311821342
 20
844.3037311821344
 10
-1034.0566646621019
 20
597.012893699991
 10
-1153.340345304783
 20
309.03661412264915
 10
-1194.0257873999822
 20
1.462259858638786e-13
 10
-1153.340345304783
 20
-309.0366141226489
 10
-1034.056664662102
 20
-597.0128936999907
 10
-844.3037311821348
 20
-844.3037311821338
 10
-597.0128936999917
 20
-1034.0566646621016
 10
-309.0366141226487
 20
-1153.340345304783
 10
-2.1933897879581792e-13
 20
-1194.0257873999822
 10
309.0366141226483
 20
-1153.3403453047833
 10
597.0128936999912
 20
-1034.0566646621019
  0
LWPOLYLINE
  5
57
330
17
100
AcDbEntity
  8
TIER_05
100
AcDbPolyline
 90
24
 70
1
 10
-5124.8392236861
 20
-373.13305856249406
 10
-5050.286923284424
 20
-193.14788382665546
 10
-5024.858521974925
 20
7.067589316754133e-13
 10
-5050.286923284424
 20
193.14788382665623
 10
-5124.8392236861
 20
373.133058562495
 10
-5243.43480711108
 20
527.6898319888346
 10
-5397.991580537419
 20
646.2854154138143
 10
-5577.976755273258
 20
720.8377158154902
 10
-5771.124639099914
 20
746.2661171249896
 10
-5964.272522926569
 20
720.8377158154902
 10
-6144.257697662408
 20
646.2854154138145
 10
-6298.814471088747
 20
527.6898319888346
 10
-6417.410054513727
 20
373.133058562495
 10
-6491.962354915403
 20
193.14788382665643
 10
-6517.390756224902
 20
7.981501728403374e-13
 10
-6491.962354915403
 20
-193.14788382665486
 10
-6417.410054513727
 20
-373.13305856249355
 10
-6298.814471088747
 20
-527.689831988833
 10
-6144.257697662408
 20
-646.2854154138128
 10
-5964.272522926569
 20
-720.8377158154889
 10
-5771.124639099914
 20
-746.2661171249881
 10
-5577.976755273258
 20
-720.8377158154889
 10
-5397.991580537419
 20
-646.285415413813
 10
-5243.43480711108
 20
-527.6898319888334
  0
LWPOLYLINE
  5
58
330
17
100
AcDbEntity
  8
TIER_05
100
AcDbPolyline
 90
24
 70
1
 10
-2357.872487561122
 20
4470.250713877992
 10
-2239.276904136142
 20
4624.807487304331
 10
-2164.7246037344667
 20
4804.7926620401695
 10
-2139.296202424967
 20
4997.940545866825
 10
-2164.724603734466
 20
5191.088429693481
 10
-2239.276904136142
 20
5371.07360442932
 10
-2357.8724875611215
 20
5525.630377855659
 10
-2512.429260987461
 20
5644.225961280639
 10
-2692.4144357233004
 20
5718.778261682315
 10
-2885.5623195499556
 20
5744.2066629918145
 10
-3078.7102033766114
 20
5718.778261682315
 10
-3258.69537811245
 20
5644.225961280639
 10
-3413.25215153879
 20
5525.630377855659
 10
-3531.8477349637697
 20
5371.07360442932
 10
-3606.400035365445
 20
5191.088429693481
 10
-3631.828436674945
 20
4997.940545866825
 10
-3606.400035365445
 20
4804.79266204017
 10
-3531.8477349637697
 20
4624.8074873043315
 10
-3413.25215153879
 20
4470.250713877992
 10
-3258.6953781124507
 20
4351.655130453012
 10
-3078.7102033766114
 20
4277.102830051336
 10
-2885.5623195499556
 20
4251.674428741837
 10
-2692.414435723301
 20
4277.102830051336
 10
-2512.429260987461
 20
4351.655130453012
  0
LWPOLYLINE
  5
59
330
17
100
AcDbEntity
  8
TIER_05
100
AcDbPolyline
 90
24
 70
1
 10
3413.2521515387916
 20
-5525.630377855659
 10
3531.847734963771
 20
-5371.073604429321
 10
3606.400035365447
 20
-5191.088429693482
 10
3631.8284366749463
 20
-4997.940545866825
 10
3606.400035365447
 20
-4804.79266204017
 10
3531.847734963771
 20
-4624.8074873043315
 10
3413.2521515387916
 20
-4470.250713877992
 10
3258.6953781124516
 20
-4351.655130453012
 10
3078.7102033766128
 20
-4277.102830051336
 10
2885.5623195499575
 20
-4251.674428741837
 10
2692.4144357233017
 20
-4277.102830051336
 10
2512.4292609874633
 20
-4351.655130453012
 10
2357.8724875611233
 20
-4470.250713877992
 10
2239.2769041361435
 20
-4624.8074873043315
 10
2164.724603734468
 20
-4804.79266204017
 10
2139.296202424968
 20
-4997.940545866825
 10
2164.724603734468
 20
-5191.088429693481
 10
2239.2769041361435
 20
-5371.07360442932
 10
2357.872487561123
 20
-5525.630377855659
 10
2512.4292609874624
 20
-5644.225961280639
 10
2692.4144357233017
 20
-5718.778261682315
 10
2885.5623195499575
 20
-5744.2066629918145
 10
3078.7102033766123
 20
-5718.778261682315
 10
3258.6953781124516
 20
-5644.225961280639
  0
LWPOLYLINE
  5
5A
330
17
100
AcDbEntity
  8
TIER_05
100
AcDbPolyline
 90
24
 70
1
 10
6298.814471088747
 20
-527.689831988834
 10
6417.410054513727
 20
-373.1330585624948
 10
6491.962354915403
 20
-193.14788382665614
 10
6517.390756224902
 20
0.0
 10
6491.962354915403
 20
193.14788382665552
 10
6417.410054513727
 20
373.13305856249434
 10
6298.814471088747
 20
527.6898319888339
 10
6144.257697662408
 20
646.2854154138137
 10
5964.272522926569
 20
720.8377158154896
 10
5771.124639099914
 20
746.2661171249889
 10
5577.976755273258
 20
720.8377158154896
 10
5397.991580537419
 20
646.2854154138138
 10
5243.43480711108
 20
527.6898319888339
 10
5124.8392236861
 20
373.13305856249434
 10
5050.286923284424
 20
193.14788382665574
 10
5024.858521974925
 20
9.139124116492415e-14
 10
5050.286923284424
 20
-193.14788382665554
 10
5124.8392236861
 20
-373.1330585624942
 10
5243.43480711108
 20
-527.6898319888337
 10
5397.991580537419
 20
-646.2854154138134
 10
5577.976755273258
 20
-720.8377158154896
 10
5771.124639099914
 20
-746.2661171249889
 10
5964.272522926569
 20
-720.8377158154896
 10
6144.257697662408
 20
-646.2854154138137
  0
LWPOLYLINE
  5
5B
330
17
100
AcDbEntity
  8
TIER_05
100
AcDbPolyline
 90
24
 70
1
 10
3413.2521515387916
 20
4470.250713877992
 10
3531.847734963771
 20
4624.807487304331
 10
3606.400035365447
 20
4804.7926620401695
 10
3631.8284366749463
 20
4997.940545866825
 10
3606.400035365447
 20
5191.088429693481
 10
3531.847734963771
 20
5371.07360442932
 10
3413.2521515387916
 20
5525.630377855659
 10
3258.6953781124516
 20
5644.225961280639
 10
3078.7102033766128
 20
5718.778261682315
 10
2885.5623195499575
 20
5744.2066629918145
 10
2692.4144357233017
 20
5718.778261682315
 10
2512.4292609874633
 20
5644.225961280639
 10
2357.8724875611233
 20
5525.630377855659
 10
2239.2769041361435
 20
5371.07360442932
 10
2164.724603734468
 20
5191.088429693481
 10
2139.296202424968
 20
4997.940545866825
 10
2164.724603734468
 20
4804.79266204017
 10
2239.2769041361435
 20
4624.8074873043315
 10
2357.872487561123
 20
4470.250713877992
 10
2512.4292609874624
 20
4351.655130453012
 10
2692.4144357233017
 20
4277.102830051336
 10
2885.5623195499575
 20
4251.674428741837
 10
3078.7102033766123
 20
4277.102830051336
 10
3258.6953781124516
 20
4351.655130453012
  0
LWPOLYLINE
  5
5D
330
17
100
AcDbEntity
  8
TIER_06
100
AcDbPolyline
 90
30
 70
1
 10
7326.976422681709
 20
0.0
 10
6392.0053757705355
 20
-3489.35945067836
 10
2672.206041986503
 20
-1341.732303986756
 10
2498.077281324005
 20
-1643.332164513202
 10
6217.876615108038
 20
-3790.959311204807
 10
3663.488211340855
 20
-6345.347714971988
 10
174.12876066249743
 20
-7280.318761883161
 10
174.12876066249743
 20
-2985.0644684999556
 10
-174.12876066249743
 20
-2985.0644684999556
 10
-174.12876066249743
 20
-7280.318761883161
 10
-3663.4882113408576
 20
-6345.347714971988
 10
-6217.876615108039
 20
-3790.9593112048037
 10
-2498.077281324006
 20
-1643.3321645132012
 10
-2672.206041986503
 20
-1341.732303986755
 10
-6392.005375770537
 20
-3489.3594506783584
 10
-7326.976422681709
 20
8.972958223465278e-13
 10
-6392.005375770537
 20
3489.359450678357
 10
-2672.2060419865034
 20
1341.7323039867545
 10
-2498.0772813240064
 20
1643.3321645132005
 10
-6217.876615108041
 20
3790.959311204803
 10
-3663.4882113408526
 20
6345.347714971989
 10
-174.12876066249743
 20
7280.318761883161
 10
-174.12876066249743
 20
2985.0644684999556
 10
174.12876066249743
 20
2985.0644684999556
 10
174.12876066249743
 20
7280.318761883161
 10
3663.488211340855
 20
6345.347714971988
 10
6217.876615108041
 20
3790.959311204803
 10
2498.0772813240064
 20
1643.3321645132005
 10
2672.2060419865034
 20
1341.7323039867545
 10
6392.005375770537
 20
3489.359450678357
  0
LWPOLYLINE
  5
5E
330
17
100
AcDbEntity
  8
TIER_06
100
AcDbPolyline
 90
24
 70
1
 10
-2239.276904136146
 20
-5371.073604429319
 10
-2164.7246037344703
 20
-5191.088429693481
 10
-2139.2962024249705
 20
-4997.940545866824
 10
-2164.72460373447
 20
-4804.792662040169
 10
-2239.2769041361457
 20
-4624.807487304331
 10
-2357.8724875611256
 20
-4470.25071387799
 10
-2512.4292609874656
 20
-4351.655130453011
 10
-2692.414435723304
 20
-4277.102830051335
 10
-2885.5623195499597
 20
-4251.674428741835
 10
-3078.710203376615
 20
-4277.102830051335
 10
-3258.695378112454
 20
-4351.655130453011
 10
-3413.2521515387934
 20
-4470.25071387799
 10
-3531.8477349637733
 20
-4624.807487304331
 10
-3606.400035365449
 20
-4804.792662040169
 10
-3631.8284366749485
 20
-4997.940545866824
 10
-3606.400035365449
 20
-5191.08842969348
 10
-3531.8477349637733
 20
-5371.073604429319
 10
-3413.2521515387934
 20
-5525.6303778556585
 10
-3258.6953781124544
 20
-5644.225961280638
 10
-3078.710203376615
 20
-5718.778261682314
 10
-2885.5623195499597
 20
-5744.206662991813
 10
-2692.4144357233045
 20
-5718.778261682314
 10
-2512.4292609874656
 20
-5644.225961280638
 10
-2357.872487561126
 20
-5525.6303778556585
  0
LWPOLYLINE
  5
5F
330
17
100
AcDbEntity
  8
TIER_06
100
AcDbPolyline
 90
24
 70
1
 10
844.3037311821341
 20
-844.3037311821345
 10
1034.0566646621014
 20
-597.0128936999917
 10
1153.3403453047829
 20
-309.0366141226498
 10
1194.0257873999822
 20
0.0
 10
1153.340345304783
 20
309.0366141226488
 10
1034.0566646621019
 20
597.012893699991
 10
844.3037311821344
 20
844.3037311821344
 10
597.0128936999912
 20
1034.0566646621019
 10
309.0366141226488
 20
1153.340345304783
 10
7.31129929319393e-14
 20
1194.0257873999822
 10
-309.0366141226487
 20
1153.340345304783
 10
-597.0128936999909
 20
1034.0566646621019
 10
-844.3037311821342
 20
844.3037311821344
 10
-1034.0566646621019
 20
597.012893699991
 10
-1153.340345304783
 20
309.03661412264915
 10
-1194.0257873999822
 20
1.462259858638786e-13
 10
-1153.340345304783
 20
-309.0366141226489
 10
-1034.056664662102
 20
-597.0128936999907
 10
-844.3037311821348
 20
-844.3037311821338
 10
-597.0128936999917
 20
-1034.0566646621016
 10
-309.0366141226487
 20
-1153.340345304783
 10
-2.1933897879581792e-13
 20
-1194.0257873999822
 10
309.0366141226483
 20
-1153.3403453047833
 10
597.0128936999912
 20
-1034.0566646621019
  0
LWPOLYLINE
  5
60
330
17
100
AcDbEntity
  8
TIER_06
100
AcDbPolyline
 90
24
 70
1
 10
-5124.8392236861
 20
-373.13305856249406
 10
-5050.286923284424
 20
-193.14788382665546
 10
-5024.858521974925
 20
7.067589316754133e-13
 10
-5050.286923284424
 20
193.14788382665623
 10
-5124.8392236861
 20
373.133058562495
 10
-5243.43480711108
 20
527.6898319888346
 10
-5397.991580537419
 20
646.2854154138143
 10
-5577.976755273258
 20
720.8377158154902
 10
-5771.124639099914
 20
746.2661171249896
 10
-5964.272522926569
 20
720.8377158154902
 10
-6144.257697662408
 20
646.2854154138145
 10
-6298.814471088747
 20
527.6898319888346
 10
-6417.410054513727
 20
373.133058562495
 10
-6491.962354915403
 20
193.14788382665643
 10
-6517.390756224902
 20
7.981501728403374e-13
 10
-6491.962354915403
 20
-193.14788382665486
 10
-6417.410054513727
 20
-373.13305856249355
 10
-6298.814471088747
 20
-527.689831988833
 10
-6144.257697662408
 20
-646.2854154138128
 10
-5964.272522926569
 20
-720.8377158154889
 10
-5771.124639099914
 20
-746.2661171249881
 10
-5577.976755273258
 20
-720.8377158154889
 10
-5397.991580537419
 20
-646.285415413813
 10
-5243.43480711108
 20
-527.6898319888334
  0
LWPOLYLINE
  5
61
330
17
100
AcDbEntity
  8
TIER_06
100
AcDbPolyline
 90
24
 70
1
 10
-2357.872487561122
 20
4470.250713877992
 10
-2239.276904136142
 20
4624.807487304331
 10
-2164.7246037344667
 20
4804.7926620401695
 10
-2139.296202424967
 20
4997.940545866825
 10
-2164.724603734466
 20
5191.088429693481
 10
-2239.276904136142
 20
5371.07360442932
 10
-2357.8724875611215
 20
5525.630377855659
 10
-2512.429260987461
 20
5644.225961280639
 10
-2692.4144357233004
 20
5718.778261682315
 10
-2885.5623195499556
 20
5744.2066629918145
 10
-3078.7102033766114
 20
5718.778261682315
 10
-3258.69537811245
 20
5644.225961280639
 10
-3413.25215153879
 20
5525.630377855659
 10
-3531.8477349637697
 20
5371.07360442932
 10
-3606.400035365445
 20
5191.088429693481
 10
-3631.828436674945
 20
4997.940545866825
 10
-3606.400035365445
 20
4804.79266204017
 10
-3531.8477349637697
 20
4624.8074873043315
 10
-3413.25215153879
 20
4470.250713877992
 10
-3258.6953781124507
 20
4351.655130453012
 10
-3078.7102033766114
 20
4277.102830051336
 10
-2885.5623195499556
 20
4251.674428741837
 10
-2692.414435723301
 20
4277.102830051336
 10
-2512.429260987461
 20
4351.655130453012
  0
LWPOLYLINE
  5
62
330
17
100
AcDbEntity
  8
TIER_06
100
AcDbPolyline
 90
24
 70
1
 10
3413.2521515387916
 20
-5525.630377855659
 10
3531.847734963771
 20
-5371.073604429321
 10
3606.400035365447
 20
-5191.088429693482
 10
3631.8284366749463
 20
-4997.940545866825
 10
3606.400035365447
 20
-4804.79266204017
 10
3531.847734963771
 20
-4624.8074873043315
 10
3413.2521515387916
 20
-4470.250713877992
 10
3258.6953781124516
 20
-4351.655130453012
 10
3078.7102033766128
 20
-4277.102830051336
 10
2885.5623195499575
 20
-4251.674428741837
 10
2692.4144357233017
 20
-4277.102830051336
 10
2512.4292609874633
 20
-4351.655130453012
 10
2357.8724875611233
 20
-4470.250713877992
 10
2239.2769041361435
 20
-4624.8074873043315
 10
2164.724603734468
 20
-4804.79266204017
 10
2139.296202424968
 20
-4997.940545866825
 10
2164.724603734468
 20
-5191.088429693481
 10
2239.2769041361435
 20
-5371.07360442932
 10
2357.872487561123
 20
-5525.630377855659
 10
2512.4292609874624
 20
-5644.225961280639
 10
2692.4144357233017
 20
-5718.778261682315
 10
2885.5623195499575
 20
-5744.2066629918145
 10
3078.7102033766123
 20
-5718.778261682315
 10
3258.6953781124516
 20
-5644.225961280639
  0
LWPOLYLINE
  5
63
330
17
100
AcDbEntity
  8
TIER_06
100
AcDbPolyline
 90
24
 70
1
 10
6298.814471088747
 20
-527.689831988834
 10
6417.410054513727
 20
-373.1330585624948
 10
6491.962354915403
 20
-193.14788382665614
 10
6517.390756224902
 20
0.0
 10
6491.962354915403
 20
193.14788382665552
 10
6417.410054513727
 20
373.13305856249434
 10
6298.814471088747
 20
527.6898319888339
 10
6144.257697662408
 20
646.2854154138137
 10
5964.272522926569
 20
720.8377158154896
 10
5771.124639099914
 20
746.2661171249889
 10
5577.976755273258
 20
720.8377158154896
 10
5397.991580537419
 20
646.2854154138138
 10
5243.43480711108
 20
527.6898319888339
 10
5124.8392236861
 20
373.13305856249434
 10
5050.286923284424
 20
193.14788382665574
 10
5024.858521974925
 20
9.139124116492415e-14
 10
5050.286923284424
 20
-193.14788382665554
 10
5124.8392236861
 20
-373.1330585624942
 10
5243.43480711108
 20
-527.6898319888337
 10
5397.991580537419
 20
-646.2854154138134
 10
5577.976755273258
 20
-720.8377158154896
 10
5771.124639099914
 20
-746.2661171249889
 10
5964.272522926569
 20
-720.8377158154896
 10
6144.257697662408
 20
-646.2854154138137
  0
LWPOLYLINE
  5
64
330
17
100
AcDbEntity
  8
TIER_06
100
AcDbPolyline
 90
24
 70
1
 10
3413.2521515387916
 20
4470.250713877992
 10
3531.847734963771
 20
4624.807487304331
 10
3606.400035365447
 20
4804.7926620401695
 10
3631.8284366749463
 20
4997.940545866825
 10
3606.400035365447
 20
5191.088429693481
 10
3531.847734963771
 20
5371.07360442932
 10
3413.2521515387916
 20
5525.630377855659
 10
3258.6953781124516
 20
5644.225961280639
 10
3078.7102033766128
 20
5718.778261682315
 10
2885.5623195499575
 20
5744.2066629918145
 10
2692.4144357233017
 20
5718.778261682315
 10
2512.4292609874633
 20
5644.225961280639
 10
2357.8724875611233
 20
5525.630377855659
 10
2239.2769041361435
 20
5371.07360442932
 10
2164.724603734468
 20
5191.088429693481
 10
2139.296202424968
 20
4997.940545866825
 10
2164.724603734468
 20
4804.79266204017
 10
2239.2769041361435
 20
4624.8074873043315
 10
2357.872487561123
 20
4470.250713877992
 10
2512.4292609874624
 20
4351.655130453012
 10
2692.4144357233017
 20
4277.102830051336
 10
2885.5623195499575
 20
4251.674428741837
 10
3078.7102033766123
 20
4277.102830051336
 10
3258.6953781124516
 20
4351.655130453012
  0
LWPOLYLINE
  5
66
330
17
100
AcDbEntity
  8
TIER_07
100
AcDbPolyline
 90
30
 70
1
 10
6802.32872821808
 20
0.0
 10
5937.647144328097
 20
-3227.035603446546
 10
2672.206041986503
 20
-1341.732303986756
 10
2498.077281324005
 20
-1643.332164513202
 10
5763.518383665599
 20
-3528.635463972992
 10
3401.1643641090404
 20
-5890.989483529549
 10
174.12876066249743
 20
-6755.671067419532
 10
174.12876066249743
 20
-2985.0644684999556
 10
-174.12876066249743
 20
-2985.0644684999556
 10
-174.12876066249743
 20
-6755.671067419532
 10
-3401.1643641090427
 20
-5890.989483529548
 10
-5763.518383665601
 20
-3528.63546397299
 10
-2498.077281324006
 20
-1643.3321645132012
 10
-2672.206041986503
 20
-1341.732303986755
 10
-5937.647144328099
 20
-3227.035603446544
 10
-6802.32872821808
 20
8.330450103760358e-13
 10
-5937.647144328099
 20
3227.0356034465426
 10
-2672.2060419865034
 20
1341.7323039867545
 10
-2498.0772813240064
 20
1643.3321645132005
 10
-5763.5183836656015
 20
3528.635463972989
 10
-3401.1643641090386
 20
5890.989483529551
 10
-174.12876066249743
 20
6755.671067419532
 10
-174.12876066249743
 20
2985.0644684999556
 10
174.12876066249743
 20
2985.0644684999556
 10
174.12876066249743
 20
6755.671067419532
 10
3401.1643641090404
 20
5890.989483529549
 10
5763.5183836656015
 20
3528.635463972989
 10
2498.0772813240064
 20
1643.3321645132005
 10
2672.2060419865034
 20
1341.7323039867545
 10
5937.647144328099
 20
3227.0356034465426
  0
LWPOLYLINE
  5
67
330
17
100
AcDbEntity
  8
TIER_07
100
AcDbPolyline
 90
24
 70
1
 10
-2239.276904136146
 20
-5371.073604429319
 10
-2164.7246037344703
 20
-5191.088429693481
 10
-2139.2962024249705
 20
-4997.940545866824
 10
-2164.72460373447
 20
-4804.792662040169
 10
-2239.2769041361457
 20
-4624.807487304331
 10
-2357.8724875611256
 20
-4470.25071387799
 10
-2512.4292609874656
 20
-4351.655130453011
 10
-2692.414435723304
 20
-4277.102830051335
 10
-2885.5623195499597
 20
-4251.674428741835
 10
-3078.710203376615
 20
-4277.102830051335
 10
-3258.695378112454
 20
-4351.655130453011
 10
-3413.2521515387934
 20
-4470.25071387799
 10
-3531.8477349637733
 20
-4624.807487304331
 10
-3606.400035365449
 20
-4804.792662040169
 10
-3631.8284366749485
 20
-4997.940545866824
 10
-3606.400035365449
 20
-5191.08842969348
 10
-3531.8477349637733
 20
-5371.073604429319
 10
-3413.2521515387934
 20
-5525.6303778556585
 10
-3258.6953781124544
 20
-5644.225961280638
 10
-3078.710203376615
 20
-5718.778261682314
 10
-2885.5623195499597
 20
-5744.206662991813
 10
-2692.4144357233045
 20
-5718.778261682314
 10
-2512.4292609874656
 20
-5644.225961280638
 10
-2357.872487561126
 20
-5525.6303778556585
  0
LWPOLYLINE
  5
68
330
17
100
AcDbEntity
  8
TIER_07
100
AcDbPolyline
 90
24
 70
1
 10
844.3037311821341
 20
-844.3037311821345
 10
1034.0566646621014
 20
-597.0128936999917
 10
1153.3403453047829
 20
-309.0366141226498
 10
1194.0257873999822
 20
0.0
 10
1153.340345304783
 20
309.0366141226488
 10
1034.0566646621019
 20
597.012893699991
 10
844.3037311821344
 20
844.3037311821344
 10
597.0128936999912
 20
1034.0566646621019
 10
309.0366141226488
 20
1153.340345304783
 10
7.31129929319393e-14
 20
1194.0257873999822
 10
-309.0366141226487
 20
1153.340345304783
 10
-597.0128936999909
 20
1034.0566646621019
 10
-844.3037311821342
 20
844.3037311821344
 10
-1034.0566646621019
 20
597.012893699991
 10
-1153.340345304783
 20
309.03661412264915
 10
-1194.0257873999822
 20
1.462259858638786e-13
 10
-1153.340345304783
 20
-309.0366141226489
 10
-1034.056664662102
 20
-597.0128936999907
 10
-844.3037311821348
 20
-844.3037311821338
 10
-597.0128936999917
 20
-1034.0566646621016
 10
-309.0366141226487
 20
-1153.340345304783
 10
-2.1933897879581792e-13
 20
-1194.0257873999822
 10
309.0366141226483
 20
-1153.3403453047833
 10
597.0128936999912
 20
-1034.0566646621019
  0
LWPOLYLINE
  5
69
330
17
100
AcDbEntity
  8
TIER_07
100
AcDbPolyline
 90
24
 70
1
 10
-5124.8392236861
 20
-373.13305856249406
 10
-5050.286923284424
 20
-193.14788382665546
 10
-5024.858521974925
 20
7.067589316754133e-13
 10
-5050.286923284424
 20
193.14788382665623
 10
-5124.8392236861
 20
373.133058562495
 10
-5243.43480711108
 20
527.6898319888346
 10
-5397.991580537419
 20
646.2854154138143
 10
-5577.976755273258
 20
720.8377158154902
 10
-5771.124639099914
 20
746.2661171249896
 10
-5964.272522926569
 20
720.8377158154902
 10
-6144.257697662408
 20
646.2854154138145
 10
-6298.814471088747
 20
527.6898319888346
 10
-6417.410054513727
 20
373.133058562495
 10
-6491.962354915403
 20
193.14788382665643
 10
-6517.390756224902
 20
7.981501728403374e-13
 10
-6491.962354915403
 20
-193.14788382665486
 10
-6417.410054513727
 20
-373.13305856249355
 10
-6298.814471088747
 20
-527.689831988833
 10
-6144.257697662408
 20
-646.2854154138128
 10
-5964.272522926569
 20
-720.8377158154889
 10
-5771.124639099914
 20
-746.2661171249881
 10
-5577.976755273258
 20
-720.8377158154889
 10
-5397.991580537419
 20
-646.285415413813
 10
-5243.43480711108
 20
-527.6898319888334
  0
LWPOLYLINE
  5
6A
330
17
100
AcDbEntity
  8
TIER_07
100
AcDbPolyline
 90
24
 70
1
 10
-2357.872487561122
 20
4470.250713877992
 10
-2239.276904136142
 20
4624.807487304331
 10
-2164.7246037344667
 20
4804.7926620401695
 10
-2139.296202424967
 20
4997.940545866825
 10
-2164.724603734466
 20
5191.088429693481
 10
-2239.276904136142
 20
5371.07360442932
 10
-2357.8724875611215
 20
5525.630377855659
 10
-2512.429260987461
 20
5644.225961280639
 10
-2692.4144357233004
 20
5718.778261682315
 10
-2885.5623195499556
 20
5744.2066629918145
 10
-3078.7102033766114
 20
5718.778261682315
 10
-3258.69537811245
 20
5644.225961280639
 10
-3413.25215153879
 20
5525.630377855659
 10
-3531.8477349637697
 20
5371.07360442932
 10
-3606.400035365445
 20
5191.088429693481
 10
-3631.828436674945
 20
4997.940545866825
 10
-3606.400035365445
 20
4804.79266204017
 10
-3531.8477349637697
 20
4624.8074873043315
 10
-3413.25215153879
 20
4470.250713877992
 10
-3258.6953781124507
 20
4351.655130453012
 10
-3078.7102033766114
 20
4277.102830051336
 10
-2885.5623195499556
 20
4251.674428741837
 10
-2692.414435723301
 20
4277.102830051336
 10
-2512.429260987461
 20
4351.655130453012
  0
LWPOLYLINE
  5
6B
330
17
100
AcDbEntity
  8
TIER_07
100
AcDbPolyline
 90
24
 70
1
 10
3413.2521515387916
 20
-5525.630377855659
 10
3531.847734963771
 20
-5371.073604429321
 10
3606.400035365447
 20
-5191.088429693482
 10
3631.8284366749463
 20
-4997.940545866825
 10
3606.400035365447
 20
-4804.79266204017
 10
3531.847734963771
 20
-4624.8074873043315
 10
3413.2521515387916
 20
-4470.250713877992
 10
3258.6953781124516
 20
-4351.655130453012
 10
3078.7102033766128
 20
-4277.102830051336
 10
2885.5623195499575
 20
-4251.674428741837
 10
2692.4144357233017
 20
-4277.102830051336
 10
2512.4292609874633
 20
-4351.655130453012
 10
2357.8724875611233
 20
-4470.250713877992
 10
2239.2769041361435
 20
-4624.8074873043315
 10
2164.724603734468
 20
-4804.79266204017
 10
2139.296202424968
 20
-4997.940545866825
 10
2164.724603734468
 20
-5191.088429693481
 10
2239.2769041361435
 20
-5371.07360442932
 10
2357.872487561123
 20
-5525.630377855659
 10
2512.4292609874624
 20
-5644.225961280639
 10
2692.4144357233017
 20
-5718.778261682315
 10
2885.5623195499575
 20
-5744.2066629918145
 10
3078.7102033766123
 20
-5718.778261682315
 10
3258.6953781124516
 20
-5644.225961280639
  0
LWPOLYLINE
  5
6C
330
17
100
AcDbEntity
  8
TIER_07
100
AcDbPolyline
 90
24
 70
1
 10
6298.814471088747
 20
-527.689831988834
 10
6417.410054513727
 20
-373.1330585624948
 10
6491.962354915403
 20
-193.14788382665614
 10
6517.390756224902
 20
0.0
 10
6491.962354915403
 20
193.14788382665552
 10
6417.410054513727
 20
373.13305856249434
 10
6298.814471088747
 20
527.6898319888339
 10
6144.257697662408
 20
646.2854154138137
 10
5964.272522926569
 20
720.8377158154896
 10
5771.124639099914
 20
746.2661171249889
 10
5577.976755273258
 20
720.8377158154896
 10
5397.991580537419
 20
646.2854154138138
 10
5243.43480711108
 20
527.6898319888339
 10
5124.8392236861
 20
373.13305856249434
 10
5050.286923284424
 20
193.14788382665574
 10
5024.858521974925
 20
9.139124116492415e-14
 10
5050.286923284424
 20
-193.14788382665554
 10
5124.8392236861
 20
-373.1330585624942
 10
5243.43480711108
 20
-527.6898319888337
 10
5397.991580537419
 20
-646.2854154138134
 10
5577.976755273258
 20
-720.8377158154896
 10
5771.124639099914
 20
-746.2661171249889
 10
5964.272522926569
 20
-720.8377158154896
 10
6144.257697662408
 20
-646.2854154138137
  0
LWPOLYLINE
  5
6D
330
17
100
AcDbEntity
  8
TIER_07
100
AcDbPolyline
 90
24
 70
1
 10
3413.2521515387916
 20
4470.250713877992
 10
3531.847734963771
 20
4624.807487304331
 10
3606.400035365447
 20
4804.7926620401695
 10
3631.8284366749463
 20
4997.940545866825
 10
3606.400035365447
 20
5191.088429693481
 10
3531.847734963771
 20
5371.07360442932
 10
3413.2521515387916
 20
5525.630377855659
 10
3258.6953781124516
 20
5644.225961280639
 10
3078.7102033766128
 20
5718.778261682315
 10
2885.5623195499575
 20
5744.2066629918145
 10
2692.4144357233017
 20
5718.778261682315
 10
2512.4292609874633
 20
5644.225961280639
 10
2357.8724875611233
 20
5525.630377855659
 10
2239.2769041361435
 20
5371.07360442932
 10
2164.724603734468
 20
5191.088429693481
 10
2139.296202424968
 20
4997.940545866825
 10
2164.724603734468
 20
4804.79266204017
 10
2239.2769041361435
 20
4624.8074873043315
 10
2357.872487561123
 20
4470.250713877992
 10
2512.4292609874624
 20
4351.655130453012
 10
2692.4144357233017
 20
4277.102830051336
 10
2885.5623195499575
 20
4251.674428741837
 10
3078.7102033766123
 20
4277.102830051336
 10
3258.6953781124516
 20
4351.655130453012
  0
LWPOLYLINE
  5
6F
330
17
100
AcDbEntity
  8
TIER_08
100
AcDbPolyline
 90
126
 70
1
 10
6099.547021628564
 20
664.8051838099013
 10
5964.272522926569
 20
720.8377158154896
 10
5771.124639099914
 20
746.2661171249889
 10
5577.976755273258
 20
720.8377158154896
 10
5397.991580537419
 20
646.2854154138138
 10
5243.43480711108
 20
527.6898319888339
 10
5124.8392236861
 20
373.13305856249434
 10
5050.286923284424
 20
193.14788382665574
 10
5024.858521974925
 20
9.139124116492415e-14
 10
5050.286923284424
 20
-193.14788382665554
 10
5124.8392236861
 20
-373.1330585624942
 10
5243.43480711108
 20
-527.6898319888337
 10
5397.991580537419
 20
-646.2854154138134
 10
5577.976755273258
 20
-720.8377158154896
 10
5771.124639099914
 20
-746.2661171249889
 10
5964.272522926569
 20
-720.8377158154896
 10
6099.547021628564
 20
-664.8051838099015
 10
5483.288912885658
 20
-2964.711756214731
 10
2672.206041986503
 20
-1341.732303986756
 10
2498.077281324005
 20
-1643.332164513202
 10
5309.160152223161
 20
-3266.3116167411777
 10
3625.5116885612406
 20
-4949.960080403097
 10
3606.400035365447
 20
-4804.79266204017
 10
3531.847734963771
 20
-4624.8074873043315
 10
3413.2521515387916
 20
-4470.250713877992
 10
3258.6953781124516
 20
-4351.655130453012
 10
3078.7102033766128
 20
-4277.102830051336
 10
2885.5623195499575
 20
-4251.674428741837
 10
2692.4144357233017
 20
-4277.102830051336
 10
2512.4292609874633
 20
-4351.655130453012
 10
2357.8724875611233
 20
-4470.250713877992
 10
2239.2769041361435
 20
-4624.8074873043315
 10
2164.724603734468
 20
-4804.79266204017
 10
2139.296202424968
 20
-4997.940545866825
 10
2164.724603734468
 20
-5191.088429693481
 10
2239.2769041361435
 20
-5371.07360442932
 10
2357.872487561123
 20
-5525.630377855659
 10
2474.0353330673242
 20
-5614.765264212998
 10
174.12876066249743
 20
-6231.023372955903
 10
174.12876066249743
 20
-2985.0644684999556
 10
-174.12876066249743
 20
-2985.0644684999556
 10
-174.12876066249743
 20
-6231.023372955903
 10
-2474.035333067327
 20
-5614.765264212997
 10
-2357.872487561126
 20
-5525.6303778556585
 10
-2239.276904136146
 20
-5371.073604429319
 10
-2164.7246037344703
 20
-5191.088429693481
 10
-2139.2962024249705
 20
-4997.940545866824
 10
-2164.72460373447
 20
-4804.792662040169
 10
-2239.2769041361457
 20
-4624.807487304331
 10
-2357.8724875611256
 20
-4470.25071387799
 10
-2512.4292609874656
 20
-4351.655130453011
 10
-2692.414435723304
 20
-4277.102830051335
 10
-2885.5623195499597
 20
-4251.674428741835
 10
-3078.710203376615
 20
-4277.102830051335
 10
-3258.695378112454
 20
-4351.655130453011
 10
-3413.2521515387934
 20
-4470.25071387799
 10
-3531.8477349637733
 20
-4624.807487304331
 10
-3606.400035365449
 20
-4804.792662040169
 10
-3625.511688561243
 20
-4949.960080403094
 10
-5309.160152223161
 20
-3266.311616741175
 10
-2498.077281324006
 20
-1643.3321645132012
 10
-2672.206041986503
 20
-1341.732303986755
 10
-5483.28891288566
 20
-2964.711756214729
 10
-6099.547021628564
 20
-664.8051838099004
 10
-5964.272522926569
 20
-720.8377158154889
 10
-5771.124639099914
 20
-746.2661171249881
 10
-5577.976755273258
 20
-720.8377158154889
 10
-5397.991580537419
 20
-646.285415413813
 10
-5243.43480711108
 20
-527.6898319888334
 10
-5124.8392236861
 20
-373.13305856249406
 10
-5050.286923284424
 20
-193.14788382665546
 10
-5024.858521974925
 20
7.067589316754133e-13
 10
-5050.286923284424
 20
193.14788382665623
 10
-5124.8392236861
 20
373.133058562495
 10
-5243.43480711108
 20
527.6898319888346
 10
-5397.991580537419
 20
646.2854154138143
 10
-5577.976755273258
 20
720.8377158154902
 10
-5771.124639099914
 20
746.2661171249896
 10
-5964.272522926569
 20
720.8377158154902
 10
-6099.547021628564
 20
664.8051838099021
 10
-5483.2889128856605
 20
2964.711756214728
 10
-2672.2060419865034
 20
1341.7323039867545
 10
-2498.0772813240064
 20
1643.3321645132005
 10
-5309.160152223163
 20
3266.3116167411745
 10
-3625.511688561239
 20
4949.960080403097
 10
-3606.400035365445
 20
4804.79266204017
 10
-3531.8477349637697
 20
4624.8074873043315
 10
-3413.25215153879
 20
4470.250713877992
 10
-3258.6953781124507
 20
4351.655130453012
 10
-3078.7102033766114
 20
4277.102830051336
 10
-2885.5623195499556
 20
4251.674428741837
 10
-2692.414435723301
 20
4277.102830051336
 10
-2512.429260987461
 20
4351.655130453012
 10
-2357.872487561122
 20
4470.250713877992
 10
-2239.276904136142
 20
4624.807487304331
 10
-2164.7246037344667
 20
4804.7926620401695
 10
-2139.296202424967
 20
4997.940545866825
 10
-2164.724603734466
 20
5191.088429693481
 10
-2239.276904136142
 20
5371.07360442932
 10
-2357.8724875611215
 20
5525.630377855659
 10
-2474.0353330673233
 20
5614.765264212999
 10
-174.12876066249743
 20
6231.023372955903
 10
-174.12876066249743
 20
2985.0644684999556
 10
174.12876066249743
 20
2985.0644684999556
 10
174.12876066249743
 20
6231.023372955903
 10
2474.0353330673247
 20
5614.765264212998
 10
2357.8724875611233
 20
5525.630377855659
 10
2239.2769041361435
 20
5371.07360442932
 10
2164.724603734468
 20
5191.088429693481
 10
2139.296202424968
 20
4997.940545866825
 10
2164.724603734468
 20
4804.79266204017
 10
2239.2769041361435
 20
4624.8074873043315
 10
2357.872487561123
 20
4470.250713877992
 10
2512.4292609874624
 20
4351.655130453012
 10
2692.4144357233017
 20
4277.102830051336
 10
2885.5623195499575
 20
4251.674428741837
 10
3078.7102033766123
 20
4277.102830051336
 10
3258.6953781124516
 20
4351.655130453012
 10
3413.2521515387916
 20
4470.250713877992
 10
3531.847734963771
 20
4624.807487304331
 10
3606.400035365447
 20
4804.7926620401695
 10
3625.5116885612406
 20
4949.960080403096
 10
5309.160152223163
 20
3266.3116167411745
 10
2498.0772813240064
 20
1643.3321645132005
 10
2672.2060419865034
 20
1341.7323039867545
 10
5483.2889128856605
 20
2964.711756214728
  0
LWPOLYLINE
  5
70
330
17
100
AcDbEntity
  8
TIER_08
100
AcDbPolyline
 90
24
 70
1
 10
844.3037311821341
 20
-844.3037311821345
 10
1034.0566646621014
 20
-597.0128936999917
 10
1153.3403453047829
 20
-309.0366141226498
 10
1194.0257873999822
 20
0.0
 10
1153.340345304783
 20
309.0366141226488
 10
1034.0566646621019
 20
597.012893699991
 10
844.3037311821344
 20
844.3037311821344
 10
597.0128936999912
 20
1034.0566646621019
 10
309.0366141226488
 20
1153.340345304783
 10
7.31129929319393e-14
 20
1194.0257873999822
 10
-309.0366141226487
 20
1153.340345304783
 10
-597.0128936999909
 20
1034.0566646621019
 10
-844.3037311821342
 20
844.3037311821344
 10
-1034.0566646621019
 20
597.012893699991
 10
-1153.340345304783
 20
309.03661412264915
 10
-1194.0257873999822
 20
1.462259858638786e-13
 10
-1153.340345304783
 20
-309.0366141226489
 10
-1034.056664662102
 20
-597.0128936999907
 10
-844.3037311821348
 20
-844.3037311821338
 10
-597.0128936999917
 20
-1034.0566646621016
 10
-309.0366141226487
 20
-1153.340345304783
 10
-2.1933897879581792e-13
 20
-1194.0257873999822
 10
309.0366141226483
 20
-1153.3403453047833
 10
597.0128936999912
 20
-1034.0566646621019
  0
LWPOLYLINE
  5
72
330
17
100
AcDbEntity
  8
TIER_09
100
AcDbPolyline
 90
90
 70
1
 10
5561.692783958753
 20
714.0926740477272
 10
5397.991580537419
 20
646.2854154138138
 10
5243.43480711108
 20
527.6898319888339
 10
5124.8392236861
 20
373.13305856249434
 10
5050.286923284424
 20
193.14788382665574
 10
5024.858521974925
 20
9.139124116492415e-14
 10
5050.286923284424
 20
-193.14788382665554
 10
5124.8392236861
 20
-373.1330585624942
 10
5243.43480711108
 20
-527.6898319888337
 10
5397.991580537419
 20
-646.2854154138134
 10
5561.692783958753
 20
-714.0926740477272
 10
5028.930681443219
 20
-2702.3879089829165
 10
2672.206041986503
 20
-1341.732303986756
 10
2498.077281324005
 20
-1643.332164513202
 10
4854.801920780722
 20
-3003.9877695093633
 10
3399.2687883610697
 20
-4459.520901929014
 10
3258.6953781124516
 20
-4351.655130453012
 10
3078.7102033766128
 20
-4277.102830051336
 10
2885.5623195499575
 20
-4251.674428741837
 10
2692.4144357233017
 20
-4277.102830051336
 10
2512.4292609874633
 20
-4351.655130453012
 10
2357.8724875611233
 20
-4470.250713877992
 10
2239.2769041361435
 20
-4624.8074873043315
 10
2164.724603734468
 20
-4804.79266204017
 10
2139.296202424968
 20
-4997.940545866825
 10
2162.4239955976846
 20
-5173.613575976741
 10
174.12876066249743
 20
-5706.375678492274
 10
174.12876066249743
 20
-2985.0644684999556
 10
-174.12876066249743
 20
-2985.0644684999556
 10
-174.12876066249743
 20
-5706.375678492274
 10
-2162.423995597687
 20
-5173.61357597674
 10
-2139.2962024249705
 20
-4997.940545866824
 10
-2164.72460373447
 20
-4804.792662040169
 10
-2239.2769041361457
 20
-4624.807487304331
 10
-2357.8724875611256
 20
-4470.25071387799
 10
-2512.4292609874656
 20
-4351.655130453011
 10
-2692.414435723304
 20
-4277.102830051335
 10
-2885.5623195499597
 20
-4251.674428741835
 10
-3078.710203376615
 20
-4277.102830051335
 10
-3258.695378112454
 20
-4351.655130453011
 10
-3399.2687883610715
 20
-4459.520901929013
 10
-4854.801920780723
 20
-3003.9877695093605
 10
-2498.077281324006
 20
-1643.3321645132012
 10
-2672.206041986503
 20
-1341.732303986755
 10
-5028.93068144322
 20
-2702.387908982915
 10
-5561.692783958753
 20
-714.0926740477265
 10
-5397.991580537419
 20
-646.285415413813
 10
-5243.43480711108
 20
-527.6898319888334
 10
-5124.8392236861
 20
-373.13305856249406
 10
-5050.286923284424
 20
-193.14788382665546
 10
-5024.858521974925
 20
7.067589316754133e-13
 10
-5050.286923284424
 20
193.14788382665623
 10
-5124.8392236861
 20
373.133058562495
 10
-5243.43480711108
 20
527.6898319888346
 10
-5397.991580537419
 20
646.2854154138143
 10
-5561.692783958753
 20
714.092674047728
 10
-5028.93068144322
 20
2702.3879089829134
 10
-2672.2060419865034
 20
1341.7323039867545
 10
-2498.0772813240064
 20
1643.3321645132005
 10
-4854.801920780724
 20
3003.9877695093596
 10
-3399.268788361068
 20
4459.520901929015
 10
-3258.6953781124507
 20
4351.655130453012
 10
-3078.7102033766114
 20
4277.102830051336
 10
-2885.5623195499556
 20
4251.674428741837
 10
-2692.414435723301
 20
4277.102830051336
 10
-2512.429260987461
 20
4351.655130453012
 10
-2357.872487561122
 20
4470.250713877992
 10
-2239.276904136142
 20
4624.807487304331
 10
-2164.7246037344667
 20
4804.7926620401695
 10
-2139.296202424967
 20
4997.940545866825
 10
-2162.423995597683
 20
5173.613575976741
 10
-174.12876066249743
 20
5706.375678492274
 10
-174.12876066249743
 20
2985.0644684999556
 10
174.12876066249743
 20
2985.0644684999556
 10
174.12876066249743
 20
5706.375678492274
 10
2162.4239955976846
 20
5173.613575976741
 10
2139.296202424968
 20
4997.940545866825
 10
2164.724603734468
 20
4804.79266204017
 10
2239.2769041361435
 20
4624.8074873043315
 10
2357.872487561123
 20
4470.250713877992
 10
2512.4292609874624
 20
4351.655130453012
 10
2692.4144357233017
 20
4277.102830051336
 10
2885.5623195499575
 20
4251.674428741837
 10
3078.7102033766123
 20
4277.102830051336
 10
3258.6953781124516
 20
4351.655130453012
 10
3399.2687883610697
 20
4459.520901929014
 10
4854.801920780724
 20
3003.9877695093596
 10
2498.0772813240064
 20
1643.3321645132005
 10
2672.2060419865034
 20
1341.7323039867545
 10
5028.93068144322
 20
2702.3879089829134
  0
LWPOLYLINE
  5
73
330
17
100
AcDbEntity
  8
TIER_09
100
AcDbPolyline
 90
24
 70
1
 10
844.3037311821341
 20
-844.3037311821345
 10
1034.0566646621014
 20
-597.0128936999917
 10
1153.3403453047829
 20
-309.0366141226498
 10
1194.0257873999822
 20
0.0
 10
1153.340345304783
 20
309.0366141226488
 10
1034.0566646621019
 20
597.012893699991
 10
844.3037311821344
 20
844.3037311821344
 10
597.0128936999912
 20
1034.0566646621019
 10
309.0366141226488
 20
1153.340345304783
 10
7.31129929319393e-14
 20
1194.0257873999822
 10
-309.0366141226487
 20
1153.340345304783
 10
-597.0128936999909
 20
1034.0566646621019
 10
-844.3037311821342
 20
844.3037311821344
 10
-1034.0566646621019
 20
597.012893699991
 10
-1153.340345304783
 20
309.03661412264915
 10
-1194.0257873999822
 20
1.462259858638786e-13
 10
-1153.340345304783
 20
-309.0366141226489
 10
-1034.056664662102
 20
-597.0128936999907
 10
-844.3037311821348
 20
-844.3037311821338
 10
-597.0128936999917
 20
-1034.0566646621016
 10
-309.0366141226487
 20
-1153.340345304783
 10
-2.1933897879581792e-13
 20
-1194.0257873999822
 10
309.0366141226483
 20
-1153.3403453047833
 10
597.0128936999912
 20
-1034.0566646621019
  0
LWPOLYLINE
  5
75
330
17
100
AcDbEntity
  8
TIER_10
100
AcDbPolyline
 90
66
 70
1
 10
5127.482067018064
 20
376.57727904915384
 10
5124.8392236861
 20
373.13305856249434
 10
5050.286923284424
 20
193.14788382665574
 10
5024.858521974925
 20
9.139124116492415e-14
 10
5050.286923284424
 20
-193.14788382665554
 10
5124.8392236861
 20
-373.1330585624942
 10
5127.482067018064
 20
-376.5772790491535
 10
4574.57245000078
 20
-2440.0640617511017
 10
2672.206041986503
 20
-1341.732303986756
 10
2498.077281324005
 20
-1643.332164513202
 10
4400.443689338283
 20
-2741.6639222775484
 10
2889.8665236536212
 20
-4252.24108796221
 10
2885.5623195499575
 20
-4251.674428741837
 10
2692.4144357233017
 20
-4277.102830051336
 10
2512.4292609874633
 20
-4351.655130453012
 10
2357.8724875611233
 20
-4470.250713877992
 10
2239.2769041361435
 20
-4624.8074873043315
 10
2237.615543364444
 20
-4628.818367011364
 10
174.12876066249743
 20
-5181.727984028646
 10
174.12876066249743
 20
-2985.0644684999556
 10
-174.12876066249743
 20
-2985.0644684999556
 10
-174.12876066249743
 20
-5181.727984028646
 10
-2237.615543364446
 20
-4628.818367011363
 10
-2239.2769041361457
 20
-4624.807487304331
 10
-2357.8724875611256
 20
-4470.25071387799
 10
-2512.4292609874656
 20
-4351.655130453011
 10
-2692.414435723304
 20
-4277.102830051335
 10
-2885.5623195499597
 20
-4251.674428741835
 10
-2889.866523653623
 20
-4252.241087962209
 10
-4400.443689338284
 20
-2741.663922277546
 10
-2498.077281324006
 20
-1643.3321645132012
 10
-2672.206041986503
 20
-1341.732303986755
 10
-4574.572450000783
 20
-2440.064061751101
 10
-5127.482067018064
 20
-376.5772790491535
 10
-5124.8392236861
 20
-373.13305856249406
 10
-5050.286923284424
 20
-193.14788382665546
 10
-5024.858521974925
 20
7.067589316754133e-13
 10
-5050.286923284424
 20
193.14788382665623
 10
-5124.8392236861
 20
373.133058562495
 10
-5127.482067018064
 20
376.57727904915447
 10
-4574.572450000783
 20
2440.0640617510994
 10
-2672.2060419865034
 20
1341.7323039867545
 10
-2498.0772813240064
 20
1643.3321645132005
 10
-4400.443689338285
 20
2741.6639222775457
 10
-2889.8665236536203
 20
4252.24108796221
 10
-2885.5623195499556
 20
4251.674428741837
 10
-2692.414435723301
 20
4277.102830051336
 10
-2512.429260987461
 20
4351.655130453012
 10
-2357.872487561122
 20
4470.250713877992
 10
-2239.276904136142
 20
4624.807487304331
 10
-2237.6155433644417
 20
4628.818367011365
 10
-174.12876066249743
 20
5181.727984028646
 10
-174.12876066249743
 20
2985.0644684999556
 10
174.12876066249743
 20
2985.0644684999556
 10
174.12876066249743
 20
5181.727984028646
 10
2237.615543364444
 20
4628.818367011364
 10
2239.2769041361435
 20
4624.8074873043315
 10
2357.872487561123
 20
4470.250713877992
 10
2512.4292609874624
 20
4351.655130453012
 10
2692.4144357233017
 20
4277.102830051336
 10
2885.5623195499575
 20
4251.674428741837
 10
2889.8665236536212
 20
4252.24108796221
 10
4400.443689338285
 20
2741.6639222775457
 10
2498.0772813240064
 20
1643.3321645132005
 10
2672.2060419865034
 20
1341.7323039867545
 10
4574.572450000783
 20
2440.0640617510994
  0
LWPOLYLINE
  5
76
330
17
100
AcDbEntity
  8
TIER_10
100
AcDbPolyline
 90
24
 70
1
 10
844.3037311821341
 20
-844.3037311821345
 10
1034.0566646621014
 20
-597.0128936999917
 10
1153.3403453047829
 20
-309.0366141226498
 10
1194.0257873999822
 20
0.0
 10
1153.340345304783
 20
309.0366141226488
 10
1034.0566646621019
 20
597.012893699991
 10
844.3037311821344
 20
844.3037311821344
 10
597.0128936999912
 20
1034.0566646621019
 10
309.0366141226488
 20
1153.340345304783
 10
7.31129929319393e-14
 20
1194.0257873999822
 10
-309.0366141226487
 20
1153.340345304783
 10
-597.0128936999909
 20
1034.0566646621019
 10
-844.3037311821342
 20
844.3037311821344
 10
-1034.0566646621019
 20
597.012893699991
 10
-1153.340345304783
 20
309.03661412264915
 10
-1194.0257873999822
 20
1.462259858638786e-13
 10
-1153.340345304783
 20
-309.0366141226489
 10
-1034.056664662102
 20
-597.0128936999907
 10
-844.3037311821348
 20
-844.3037311821338
 10
-597.0128936999917
 20
-1034.0566646621016
 10
-309.0366141226487
 20
-1153.340345304783
 10
-2.1933897879581792e-13
 20
-1194.0257873999822
 10
309.0366141226483
 20
-1153.3403453047833
 10
597.0128936999912
 20
-1034.0566646621019
  0
LWPOLYLINE
  5
78
330
17
100
AcDbEntity
  8
TIER_11
100
AcDbPolyline
 90
30
 70
1
 10
4703.737950363566
 20
0.0
 10
4120.214218558342
 20
-2177.7402145192873
 10
2672.206041986503
 20
-1341.732303986756
 10
2498.077281324005
 20
-1643.332164513202
 10
3946.0854578958447
 20
-2479.340075045734
 10
2351.8689751817833
 20
-4073.5565577597945
 10
174.12876066249743
 20
-4657.080289565018
 10
174.12876066249743
 20
-2985.0644684999556
 10
-174.12876066249743
 20
-2985.0644684999556
 10
-174.12876066249743
 20
-4657.080289565018
 10
-2351.868975181785
 20
-4073.556557759794
 10
-3946.085457895845
 20
-2479.340075045732
 10
-2498.077281324006
 20
-1643.3321645132012
 10
-2672.206041986503
 20
-1341.732303986755
 10
-4120.214218558343
 20
-2177.7402145192864
 10
-4703.737950363566
 20
5.760417624940673e-13
 10
-4120.214218558343
 20
2177.7402145192855
 10
-2672.2060419865034
 20
1341.7323039867545
 10
-2498.0772813240064
 20
1643.3321645132005
 10
-3946.0854578958465
 20
2479.3400750457313
 10
-2351.868975181782
 20
4073.556557759795
 10
-174.12876066249743
 20
4657.080289565018
 10
-174.12876066249743
 20
2985.0644684999556
 10
174.12876066249743
 20
2985.0644684999556
 10
174.12876066249743
 20
4657.080289565018
 10
2351.8689751817833
 20
4073.5565577597945
 10
3946.0854578958465
 20
2479.3400750457313
 10
2498.0772813240064
 20
1643.3321645132005
 10
2672.2060419865034
 20
1341.7323039867545
 10
4120.214218558343
 20
2177.7402145192855
  0
LWPOLYLINE
  5
79
330
17
100
AcDbEntity
  8
TIER_11
100
AcDbPolyline
 90
24
 70
1
 10
844.3037311821341
 20
-844.3037311821345
 10
1034.0566646621014
 20
-597.0128936999917
 10
1153.3403453047829
 20
-309.0366141226498
 10
1194.0257873999822
 20
0.0
 10
1153.340345304783
 20
309.0366141226488
 10
1034.0566646621019
 20
597.012893699991
 10
844.3037311821344
 20
844.3037311821344
 10
597.0128936999912
 20
1034.0566646621019
 10
309.0366141226488
 20
1153.340345304783
 10
7.31129929319393e-14
 20
1194.0257873999822
 10
-309.0366141226487
 20
1153.340345304783
 10
-597.0128936999909
 20
1034.0566646621019
 10
-844.3037311821342
 20
844.3037311821344
 10
-1034.0566646621019
 20
597.012893699991
 10
-1153.340345304783
 20
309.03661412264915
 10
-1194.0257873999822
 20
1.462259858638786e-13
 10
-1153.340345304783
 20
-309.0366141226489
 10
-1034.056664662102
 20
-597.0128936999907
 10
-844.3037311821348
 20
-844.3037311821338
 10
-597.0128936999917
 20
-1034.0566646621016
 10
-309.0366141226487
 20
-1153.340345304783
 10
-2.1933897879581792e-13
 20
-1194.0257873999822
 10
309.0366141226483
 20
-1153.3403453047833
 10
597.0128936999912
 20
-1034.0566646621019
  0
LWPOLYLINE
  5
7B
330
17
100
AcDbEntity
  8
TIER_12
100
AcDbPolyline
 90
30
 70
1
 10
4179.090255899937
 20
0.0
 10
3665.855987115903
 20
-1915.416367287473
 10
2672.206041986503
 20
-1341.732303986756
 10
2498.077281324005
 20
-1643.332164513202
 10
3491.7272264534054
 20
-2217.016227813919
 10
2089.545127949969
 20
-3619.1983263173556
 10
174.12876066249743
 20
-4132.432595101389
 10
174.12876066249743
 20
-2985.0644684999556
 10
-174.12876066249743
 20
-2985.0644684999556
 10
-174.12876066249743
 20
-4132.432595101389
 10
-2089.5451279499703
 20
-3619.198326317355
 10
-3491.7272264534067
 20
-2217.016227813918
 10
-2498.077281324006
 20
-1643.3321645132012
 10
-2672.206041986503
 20
-1341.732303986755
 10
-3665.8559871159046
 20
-1915.416367287472
 10
-4179.090255899937
 20
5.117909505235751e-13
 10
-3665.8559871159046
 20
1915.416367287471
 10
-2672.2060419865034
 20
1341.7323039867545
 10
-2498.0772813240064
 20
1643.3321645132005
 10
-3491.7272264534076
 20
2217.0162278139173
 10
-2089.5451279499675
 20
3619.1983263173565
 10
-174.12876066249743
 20
4132.432595101389
 10
-174.12876066249743
 20
2985.0644684999556
 10
174.12876066249743
 20
2985.0644684999556
 10
174.12876066249743
 20
4132.432595101389
 10
2089.545127949969
 20
3619.1983263173556
 10
3491.7272264534076
 20
2217.0162278139173
 10
2498.0772813240064
 20
1643.3321645132005
 10
2672.2060419865034
 20
1341.7323039867545
 10
3665.8559871159046
 20
1915.416367287471
  0
LWPOLYLINE
  5
7C
330
17
100
AcDbEntity
  8
TIER_12
100
AcDbPolyline
 90
24
 70
1
 10
844.3037311821341
 20
-844.3037311821345
 10
1034.0566646621014
 20
-597.0128936999917
 10
1153.3403453047829
 20
-309.0366141226498
 10
1194.0257873999822
 20
0.0
 10
1153.340345304783
 20
309.0366141226488
 10
1034.0566646621019
 20
597.012893699991
 10
844.3037311821344
 20
844.3037311821344
 10
597.0128936999912
 20
1034.0566646621019
 10
309.0366141226488
 20
1153.340345304783
 10
7.31129929319393e-14
 20
1194.0257873999822
 10
-309.0366141226487
 20
1153.340345304783
 10
-597.0128936999909
 20
1034.0566646621019
 10
-844.3037311821342
 20
844.3037311821344
 10
-1034.0566646621019
 20
597.012893699991
 10
-1153.340345304783
 20
309.03661412264915
 10
-1194.0257873999822
 20
1.462259858638786e-13
 10
-1153.340345304783
 20
-309.0366141226489
 10
-1034.056664662102
 20
-597.0128936999907
 10
-844.3037311821348
 20
-844.3037311821338
 10
-597.0128936999917
 20
-1034.0566646621016
 10
-309.0366141226487
 20
-1153.340345304783
 10
-2.1933897879581792e-13
 20
-1194.0257873999822
 10
309.0366141226483
 20
-1153.3403453047833
 10
597.0128936999912
 20
-1034.0566646621019
  0
TEXT
  5
7D
330
17
100
AcDbEntity
  8
0
100
AcDbText
 10
-13830.798704049796
 20
-12831.068880093342
 30
0.0
 40
100.0
  1
Case B - meters - massing only
 11
-13830.798704049796
 21
-12831.068880093342
 31
0.0
100
AcDbText
  0
ENDSEC
  0
SECTION
  2
OBJECTS
  0
DICTIONARY
  5
A
330
0
100
AcDbDictionary
281
1
  3
ACAD_COLOR
350
B
  3
ACAD_GROUP
350
C
  3
ACAD_LAYOUT
350
D
  3
ACAD_MATERIAL
350
E
  3
ACAD_MLEADERSTYLE
350
F
  3
ACAD_MLINESTYLE
350
10
  3
ACAD_PLOTSETTINGS
350
11
  3
ACAD_PLOTSTYLENAME
350
12
  3
ACAD_SCALELIST
350
14
  3
ACAD_TABLESTYLE
350
15
  3
ACAD_VISUALSTYLE
350
16
  3
EZDXF_META
350
2D
  0
DICTIONARY
  5
B
330
A
100
AcDbDictionary
281
1
  0
DICTIONARY
  5
C
330
A
100
AcDbDictionary
281
1
  0
DICTIONARY
  5
D
330
A
100
AcDbDictionary
281
1
  3
Model
350
1A
  3
Layout1
350
1E
  0
DICTIONARY
  5
E
330
A
100
AcDbDictionary
281
1
  3
ByBlock
350
1F
  3
ByLayer
350
20
  3
Global
350
21
  0
DICTIONARY
  5
F
330
A
100
AcDbDictionary
281
1
  3
Standard
350
2C
  0
DICTIONARY
  5
10
330
A
100
AcDbDictionary
281
1
  3
Standard
350
22
  0
DICTIONARY
  5
11
330
A
100
AcDbDictionary
281
1
  0
ACDBDICTIONARYWDFLT
  5
12
330
A
100
AcDbDictionary
281
1
  3
Normal
350
13
100
AcDbDictionaryWithDefault
340
13
  0
ACDBPLACEHOLDER
  5
13
330
12
  0
DICTIONARY
  5
14
330
A
100
AcDbDictionary
281
1
  0
DICTIONARY
  5
15
330
A
100
AcDbDictionary
281
1
  0
DICTIONARY
  5
16
330
A
100
AcDbDictionary
281
1
  0
LAYOUT
  5
1A
330
D
100
AcDbPlotSettings
  1

  4
A3
  6

 40
7.5
 41
20.0
 42
7.5
 43
20.0
 44
420.0
 45
297.0
 46
0.0
 47
0.0
 48
0.0
 49
0.0
140
0.0
141
0.0
142
1.0
143
1.0
 70
1024
 72
1
 73
0
 74
5
  7

 75
16
 76
0
 77
2
 78
300
147
1.0
148
0.0
149
0.0
100
AcDbLayout
  1
Model
 70
1
 71
0
 10
0.0
 20
0.0
 11
420.0
 21
297.0
 12
0.0
 22
0.0
 32
0.0
 14
1e+20
 24
1e+20
 34
1e+20
 15
-1e+20
 25
-1e+20
 35
-1e+20
146
0.0
 13
0.0
 23
0.0
 33
0.0
 16
1.0
 26
0.0
 36
0.0
 17
0.0
 27
1.0
 37
0.0
 76
1
330
17
  0
LAYOUT
  5
1E
330
D
100
AcDbPlotSettings
  1

  4
A3
  6

 40
7.5
 41
20.0
 42
7.5
 43
20.0
 44
420.0
 45
297.0
 46
0.0
 47
0.0
 48
0.0
 49
0.0
140
0.0
141
0.0
142
1.0
143
1.0
 70
0
 72
1
 73
0
 74
5
  7

 75
16
 76
0
 77
2
 78
300
147
1.0
148
0.0
149
0.0
100
AcDbLayout
  1
Layout1
 70
1
 71
1
 10
0.0
 20
0.0
 11
420.0
 21
297.0
 12
0.0
 22
0.0
 32
0.0
 14
1e+20
 24
1e+20
 34
1e+20
 15
-1e+20
 25
-1e+20
 35
-1e+20
146
0.0
 13
0.0
 23
0.0
 33
0.0
 16
1.0
 26
0.0
 36
0.0
 17
0.0
 27
1.0
 37
0.0
 76
1
330
1B
  0
MATERIAL
  5
1F
102
{ACAD_REACTORS
330
E
102
}
330
E
100
AcDbMaterial
  1
ByBlock
  2

 70
0
 40
1.0
 71
1
 41
1.0
 91
-1023410177
 42
1.0
 72
1
  3

 73
1
 74
1
 75
1
 44
0.5
 73
0
 45
1.0
 46
1.0
 77
1
  4

 78
1
 79
1
170
1
 48
1.0
171
1
  6

172
1
173
1
174
1
140
1.0
141
1.0
175
1
  7

176
1
177
1
178
1
143
1.0
179
1
  8

270
1
271
1
272
1
145
1.0
146
1.0
273
1
  9

274
1
275
1
276
1
 42
1.0
 72
1
  3

 73
1
 74
1
 75
1
 94
63
  0
MATERIAL
  5
20
102
{ACAD_REACTORS
330
E
102
}
330
E
100
AcDbMaterial
  1
ByLayer
  2

 70
0
 40
1.0
 71
1
 41
1.0
 91
-1023410177
 42
1.0
 72
1
  3

 73
1
 74
1
 75
1
 44
0.5
 73
0
 45
1.0
 46
1.0
 77
1
  4

 78
1
 79
1
170
1
 48
1.0
171
1
  6

172
1
173
1
174
1
140
1.0
141
1.0
175
1
  7

176
1
177
1
178
1
143
1.0
179
1
  8

270
1
271
1
272
1
145
1.0
146
1.0
273
1
  9

274
1
275
1
276
1
 42
1.0
 72
1
  3

 73
1
 74
1
 75
1
 94
63
  0
MATERIAL
  5
21
102
{ACAD_REACTORS
330
E
102
}
330
E
100
AcDbMaterial
  1
Global
  2

 70
0
 40
1.0
 71
1
 41
1.0
 91
-1023410177
 42
1.0
 72
1
  3

 73
1
 74
1
 75
1
 44
0.5
 73
0
 45
1.0
 46
1.0
 77
1
  4

 78
1
 79
1
170
1
 48
1.0
171
1
  6

172
1
173
1
174
1
140
1.0
141
1.0
175
1
  7

176
1
177
1
178
1
143
1.0
179
1
  8

270
1
271
1
272
1
145
1.0
146
1.0
273
1
  9

274
1
275
1
276
1
 42
1.0
 72
1
  3

 73
1
 74
1
 75
1
 94
63
  0
MLINESTYLE
  5
22
102
{ACAD_REACTORS
330
10
102
}
330
10
100
AcDbMlineStyle
  2
Standard
 70
0
  3

 62
256
 51
90.0
 52
90.0
 71
2
 49
0.5
 62
256
  6
BYLAYER
 49
-0.5
 62
256
  6
BYLAYER
  0
MLEADERSTYLE
  5
2C
102
{ACAD_REACTORS
330
F
102
}
330
F
100
AcDbMLeaderStyle
179
2
170
2
171
1
172
0
 90
2
 40
0.0
 41
0.0
173
1
 91
-1056964608
 92
-2
290
1
 42
2.0
291
1
 43
8.0
  3
Standard
 44
4.0
300

342
29
174
1
175
1
176
0
178
1
 93
-1056964608
 45
4.0
292
0
297
0
 46
4.0
 94
-1056964608
 47
1.0
 49
1.0
140
1.0
294
1
141
0.0
177
0
142
1.0
295
0
296
0
143
3.75
271
0
272
9
273
9
  0
DICTIONARY
  5
2D
330
A
100
AcDbDictionary
280
1
281
1
  3
CREATED_BY_EZDXF
350
2E
  3
WRITTEN_BY_EZDXF
350
80
  0
DICTIONARYVAR
  5
2E
330
2D
100
DictionaryVariables
280
0
  1
1.4.4 @ 2026-09-25T16:12:55.778836+00:00
  0
DICTIONARYVAR
  5
80
330
2D
100
DictionaryVariables
280
0
  1
1.4.4 @ 2026-09-25T16:12:55.795480+00:00
  0
ENDSEC
  0
EOF
