  0
SECTION
  2
HEADER
  9
$ACADVER
  1
AC1024
  9
$ACADMAINTVER
 70
6
  9
$DWGCODEPAGE
  3
ANSI_1252
  9
$LASTSAVEDBY
  1
ezdxf
  9
$INSBASE
 10
0.0
 20
0.0
 30
0.0
  9
$EXTMIN
 10
1e+20
 20
1e+20
 30
1e+20
  9
$EXTMAX
 10
-1e+20
 20
-1e+20
 30
-1e+20
  9
$LIMMIN
 10
0.0
 20
0.0
  9
$LIMMAX
 10
420.0
 20
297.0
  9
$ORTHOMODE
 70
0
  9
$REGENMODE
 70
1
  9
$FILLMODE
 70
1
  9
$QTEXTMODE
 70
0
  9
$MIRRTEXT
 70
1
  9
$LTSCALE
 40
1.0
  9
$ATTMODE
 70
1
  9
$TEXTSIZE
 40
2.5
  9
$TRACEWID
 40
1.0
  9
$TEXTSTYLE
  7
Standard
  9
$CLAYER
  8
0
  9
$CELTYPE
  6
ByLayer
  9
$CECOLOR
 62
256
  9
$CELTSCALE
 40
1.0
  9
$DISPSILH
 70
0
  9
$DIMSCALE
 40
1.0
  9
$DIMASZ
 40
2.5
  9
$DIMEXO
 40
0.625
  9
$DIMDLI
 40
3.75
  9
$DIMRND
 40
0.0
  9
$DIMDLE
 40
0.0
  9
$DIMEXE
 40
1.25
  9
$DIMTP
 40
0.0
  9
$DIMTM
 40
0.0
  9
$DIMTXT
 40
2.5
  9
$DIMCEN
 40
2.5
  9
$DIMTSZ
 40
0.0
  9
$DIMTOL
 70
0
  9
$DIMLIM
 70
0
  9
$DIMTIH
 70
0
  9
$DIMTOH
 70
0
  9
$DIMSE1
 70
0
  9
$DIMSE2
 70
0
  9
$DIMTAD
 70
1
  9
$DIMZIN
 70
8
  9
$DIMBLK
  1

  9
$DIMASO
 70
1
  9
$DIMSHO
 70
1
  9
$DIMPOST
  1

  9
$DIMAPOST
  1

  9
$DIMALT
 70
0
  9
$DIMALTD
 70
3
  9
$DIMALTF
 40
0.03937007874
  9
$DIMLFAC
 40
1.0
  9
$DIMTOFL
 70
1
  9
$DIMTVP
 40
0.0
  9
$DIMTIX
 70
0
  9
$DIMSOXD
 70
0
  9
$DIMSAH
 70
0
  9
$DIMBLK1
  1

  9
$DIMBLK2
  1

  9
$DIMSTYLE
  2
ISO-25
  9
$DIMCLRD
 70
0
  9
$DIMCLRE
 70
0
  9
$DIMCLRT
 70
0
  9
$DIMTFAC
 40
1.0
  9
$DIMGAP
 40
0.625
  9
$DIMJUST
 70
0
  9
$DIMSD1
 70
0
  9
$DIMSD2
 70
0
  9
$DIMTOLJ
 70
0
  9
$DIMTZIN
 70
8
  9
$DIMALTZ
 70
0
  9
$DIMALTTZ
 70
0
  9
$DIMUPT
 70
0
  9
$DIMDEC
 70
2
  9
$DIMTDEC
 70
2
  9
$DIMALTU
 70
2
  9
$DIMALTTD
 70
3
  9
$DIMTXSTY
  7
Standard
  9
$DIMAUNIT
 70
0
  9
$DIMADEC
 70
0
  9
$DIMALTRND
 40
0.0
  9
$DIMAZIN
 70
0
  9
$DIMDSEP
 70
44
  9
$DIMATFIT
 70
3
  9
$DIMFRAC
 70
0
  9
$DIMLDRBLK
  1

  9
$DIMLUNIT
 70
2
  9
$DIMLWD
 70
-2
  9
$DIMLWE
 70
-2
  9
$DIMTMOVE
 70
0
  9
$DIMFXL
 40
1.0
  9
$DIMFXLON
 70
0
  9
$DIMJOGANG
 40
0.785398163397
  9
$DIMTFILL
 70
0
  9
$DIMTFILLCLR
 70
0
  9
$DIMARCSYM
 70
0
  9
$DIMLTYPE
  6

  9
$DIMLTEX1
  6

  9
$DIMLTEX2
  6

  9
$DIMTXTDIRECTION
 70
0
  9
$LUNITS
 70
2
  9
$LUPREC
 70
4
  9
$SKETCHINC
 40
1.0
  9
$FILLETRAD
 40
10.0
  9
$AUNITS
 70
0
  9
$AUPREC
 70
2
  9
$MENU
  1
.
  9
$ELEVATION
 40
0.0
  9
$PELEVATION
 40
0.0
  9
$THICKNESS
 40
0.0
  9
$LIMCHECK
 70
0
  9
$CHAMFERA
 40
0.0
  9
$CHAMFERB
 40
0.0
  9
$CHAMFERC
 40
0.0
  9
$CHAMFERD
 40
0.0
  9
$SKPOLY
 70
0
  9
$TDCREATE
 40
2461309.4673032407
  9
$TDUCREATE
 40
2458532.153996898
  9
$TDUPDATE
 40
2461309.4673032407
  9
$TDUUPDATE
 40
2458532.1544311
  9
$TDINDWG
 40
0.0
  9
$TDUSRTIMER
 40
0.0
  9
$USRTIMER
 70
1
  9
$ANGBASE
 50
0.0
  9
$ANGDIR
 70
0
  9
$PDMODE
 70
0
  9
$PDSIZE
 40
0.0
  9
$PLINEWID
 40
0.0
  9
$SPLFRAME
 70
0
  9
$SPLINETYPE
 70
6
  9
$SPLINESEGS
 70
8
  9
$HANDSEED
  5
81
  9
$SURFTAB1
 70
6
  9
$SURFTAB2
 70
6
  9
$SURFTYPE
 70
6
  9
$SURFU
 70
6
  9
$SURFV
 70
6
  9
$UCSBASE
  2

  9
$UCSNAME
  2

  9
$UCSORG
 10
0.0
 20
0.0
 30
0.0
  9
$UCSXDIR
 10
1.0
 20
0.0
 30
0.0
  9
$UCSYDIR
 10
0.0
 20
1.0
 30
0.0
  9
$UCSORTHOREF
  2

  9
$UCSORTHOVIEW
 70
0
  9
$UCSORGTOP
 10
0.0
 20
0.0
 30
0.0
  9
$UCSORGBOTTOM
 10
0.0
 20
0.0
 30
0.0
  9
$UCSORGLEFT
 10
0.0
 20
0.0
 30
0.0
  9
$UCSORGRIGHT
 10
0.0
 20
0.0
 30
0.0
  9
$UCSORGFRONT
 10
0.0
 20
0.0
 30
0.0
  9
$UCSORGBACK
 10
0.0
 20
0.0
 30
0.0
  9
$PUCSBASE
  2

  9
$PUCSNAME
  2

  9
$PUCSORG
 10
0.0
 20
0.0
 30
0.0
  9
$PUCSXDIR
 10
1.0
 20
0.0
 30
0.0
  9
$PUCSYDIR
 10
0.0
 20
1.0
 30
0.0
  9
$PUCSORTHOREF
  2

  9
$PUCSORTHOVIEW
 70
0
  9
$PUCSORGTOP
 10
0.0
 20
0.0
 30
0.0
  9
$PUCSORGBOTTOM
 10
0.0
 20
0.0
 30
0.0
  9
$PUCSORGLEFT
 10
0.0
 20
0.0
 30
0.0
  9
$PUCSORGRIGHT
 10
0.0
 20
0.0
 30
0.0
  9
$PUCSORGFRONT
 10
0.0
 20
0.0
 30
0.0
  9
$PUCSORGBACK
 10
0.0
 20
0.0
 30
0.0
  9
$USERI1
 70
0
  9
$USERI2
 70
0
  9
$USERI3
 70
0
  9
$USERI4
 70
0
  9
$USERI5
 70
0
  9
$USERR1
 40
0.0
  9
$USERR2
 40
0.0
  9
$USERR3
 40
0.0
  9
$USERR4
 40
0.0
  9
$USERR5
 40
0.0
  9
$WORLDVIEW
 70
1
  9
$SHADEDGE
 70
3
  9
$SHADEDIF
 70
70
  9
$TILEMODE
 70
1
  9
$MAXACTVP
 70
64
  9
$PINSBASE
 10
0.0
 20
0.0
 30
0.0
  9
$PLIMCHECK
 70
0
  9
$PEXTMIN
 10
1e+20
 20
1e+20
 30
1e+20
  9
$PEXTMAX
 10
-1e+20
 20
-1e+20
 30
-1e+20
  9
$PLIMMIN
 10
0.0
 20
0.0
  9
$PLIMMAX
 10
420.0
 20
297.0
  9
$UNITMODE
 70
0
  9
$VISRETAIN
 70
1
  9
$PLINEGEN
 70
0
  9
$PSLTSCALE
 70
1
  9
$TREEDEPTH
 70
3020
  9
$CMLSTYLE
  2
Standard
  9
$CMLJUST
 70
0
  9
$CMLSCALE
 40
20.0
  9
$PROXYGRAPHICS
 70
1
  9
$MEASUREMENT
 70
1
  9
$CELWEIGHT
370
-1
  9
$ENDCAPS
280
0
  9
$JOINSTYLE
280
0
  9
$LWDISPLAY
290
0
  9
$INSUNITS
 70
6
  9
$HYPERLINKBASE
  1

  9
$STYLESHEET
  1

  9
$XEDIT
290
1
  9
$CEPSNTYPE
380
0
  9
$PSTYLEMODE
290
1
  9
$FINGERPRINTGUID
  2
{A86B8A75-8DC5-4350-B28A-062E6962F669}
  9
$VERSIONGUID
  2
{F9F86A0E-8244-4514-B43C-ECF835B51DC4}
  9
$EXTNAMES
290
1
  9
$PSVPSCALE
 40
0.0
  9
$OLESTARTUP
290
0
  9
$SORTENTS
280
127
  9
$INDEXCTL
280
0
  9
$HIDETEXT
280
1
  9
$XCLIPFRAME
280
1
  9
$HALOGAP
280
0
  9
$OBSCOLOR
 70
257
  9
$OBSLTYPE
280
0
  9
$INTERSECTIONDISPLAY
280
0
  9
$INTERSECTIONCOLOR
 70
257
  9
$DIMASSOC
280
2
  9
$PROJECTNAME
  1

  9
$CAMERADISPLAY
290
0
  9
$LENSLENGTH
 40
50.0
  9
$CAMERAHEIGHT
 40
0.0
  9
$STEPSPERSEC
 40
24.0
  9
$STEPSIZE
 40
100.0
  9
$3DDWFPREC
 40
2.0
  9
$PSOLWIDTH
 40
0.005
  9
$PSOLHEIGHT
 40
0.08
  9
$LOFTANG1
 40
1.570796326795
  9
$LOFTANG2
 40
1.570796326795
  9
$LOFTMAG1
 40
0.0
  9
$LOFTMAG2
 40
0.0
  9
$LOFTPARAM
 70
7
  9
$LOFTNORMALS
280
1
  9
$LATITUDE
 40
37.795
  9
$LONGITUDE
 40
-122.394
  9
$NORTHDIRECTION
 40
0.0
  9
$TIMEZONE
 70
-8000
  9
$LIGHTGLYPHDISPLAY
280
1
  9
$TILEMODELIGHTSYNCH
280
1
  9
$CMATERIAL
347
20
  9
$SOLIDHIST
280
0
  9
$SHOWHIST
280
1
  9
$DWFFRAME
280
2
  9
$DGNFRAME
280
2
  9
$REALWORLDSCALE
290
1
  9
$INTERFERECOLOR
 62
256
  9
$CSHADOW
280
0
  9
$SHADOWPLANELOCATION
 40
0.0
  0
ENDSEC
  0
SECTION
  2
CLASSES
  0
CLASS
  1
ACDBDICTIONARYWDFLT
  2
AcDbDictionaryWithDefault
  3
ObjectDBX Classes
 90
0
 91
0
280
0
281
0
  0
CLASS
  1
SUN
  2
AcDbSun
  3
SCENEOE
 90
1153
 91
0
280
0
281
0
  0
CLASS
  1
VISUALSTYLE
  2
AcDbVisualStyle
  3
ObjectDBX Classes
 90
4095
 91
0
280
0
281
0
  0
CLASS
  1
MATERIAL
  2
AcDbMaterial
  3
ObjectDBX Classes
 90
1153
 91
0
280
0
281
0
  0
CLASS
  1
SCALE
  2
AcDbScale
  3
ObjectDBX Classes
 90
1153
 91
0
280
0
281
0
  0
CLASS
  1
TABLESTYLE
  2
AcDbTableStyle
  3
ObjectDBX Classes
 90
4095
 91
0
280
0
281
0
  0
CLASS
  1
MLEADERSTYLE
  2
AcDbMLeaderStyle
  3
ACDB_MLEADERSTYLE_CLASS
 90
4095
 91
0
280
0
281
0
  0
CLASS
  1
DICTIONARYVAR
  2
AcDbDictionaryVar
  3
ObjectDBX Classes
 90
0
 91
0
280
0
281
0
  0
CLASS
  1
CELLSTYLEMAP
  2
AcDbCellStyleMap
  3
ObjectDBX Classes
 90
1152
 91
0
280
0
281
0
  0
CLASS
  1
MENTALRAYRENDERSETTINGS
  2
AcDbMentalRayRenderSettings
  3
SCENEOE
 90
1024
 91
0
280
0
281
0
  0
CLASS
  1
ACDBDETAILVIEWSTYLE
  2
AcDbDetailViewStyle
  3
ObjectDBX Classes
 90
1025
 91
0
280
0
281
0
  0
CLASS
  1
ACDBSECTIONVIEWSTYLE
  2
AcDbSectionViewStyle
  3
ObjectDBX Classes
 90
1025
 91
0
280
0
281
0
  0
CLASS
  1
RASTERVARIABLES
  2
AcDbRasterVariables
  3
ISM
 90
0
 91
0
280
0
281
0
  0
CLASS
  1
LAYOUT
  2
AcDbLayout
  3
ObjectDBX Classes
 90
0
 91
0
280
0
281
0
  0
CLASS
  1
ACDBPLACEHOLDER
  2
AcDbPlaceHolder
  3
ObjectDBX Classes
 90
0
 91
0
280
0
281
0
  0
ENDSEC
  0
SECTION
  2
TABLES
  0
TABLE
  2
VPORT
  5
8
330
0
100
AcDbSymbolTable
 70
1
  0
VPORT
  5
23
330
8
100
AcDbSymbolTableRecord
100
AcDbViewportTableRecord
  2
*Active
 70
0
 10
0.0
 20
0.0
 11
1.0
 21
1.0
 12
0.0
 22
0.0
 13
0.0
 23
0.0
 14
0.5
 24
0.5
 15
0.5
 25
0.5
 16
0.0
 26
0.0
 36
1.0
 17
0.0
 27
0.0
 37
0.0
 40
1000.0
 41
1.34
 42
50.0
 43
0.0
 44
0.0
 50
0.0
 51
0.0
 71
0
 72
1000
 73
1
 74
3
 75
0
 76
0
 77
0
 78
0
281
0
 65
0
146
0.0
  0
ENDTAB
  0
TABLE
  2
LTYPE
  5
2
330
0
100
AcDbSymbolTable
 70
3
  0
LTYPE
  5
24
330
2
100
AcDbSymbolTableRecord
100
AcDbLinetypeTableRecord
  2
ByBlock
 70
0
  3

 72
65
 73
0
 40
0.0
  0
LTYPE
  5
25
330
2
100
AcDbSymbolTableRecord
100
AcDbLinetypeTableRecord
  2
ByLayer
 70
0
  3

 72
65
 73
0
 40
0.0
  0
LTYPE
  5
26
330
2
100
AcDbSymbolTableRecord
100
AcDbLinetypeTableRecord
  2
Continuous
 70
0
  3

 72
65
 73
0
 40
0.0
  0
ENDTAB
  0
TABLE
  2
LAYER
  5
1
330
0
100
AcDbSymbolTable
 70
14
  0
LAYER
  5
27
330
1
100
AcDbSymbolTableRecord
100
AcDbLayerTableRecord
  2
0
 70
0
 62
7
  6
Continuous
370
-3
390
13
347
21
  0
LAYER
  5
28
330
1
100
AcDbSymbolTableRecord
100
AcDbLayerTableRecord
  2
Defpoints
 70
0
 62
7
  6
Continuous
290
0
370
-3
390
13
347
21
  0
LAYER
  5
2F
330
1
100
AcDbSymbolTableRecord
100
AcDbLayerTableRecord
  2
TIER_01
 70
0
 62
3
  6
Continuous
370
-3
390
13
347
21
  0
LAYER
  5
38
330
1
100
AcDbSymbolTableRecord
100
AcDbLayerTableRecord
  2
TIER_02
 70
0
 62
3
  6
Continuous
370
-3
390
13
347
21
  0
LAYER
  5
41
330
1
100
AcDbSymbolTableRecord
100
AcDbLayerTableRecord
  2
TIER_03
 70
0
 62
3
  6
Continuous
370
-3
390
13
347
21
  0
LAYER
  5
4A
330
1
100
AcDbSymbolTableRecord
100
AcDbLayerTableRecord
  2
TIER_04
 70
0
 62
3
  6
Continuous
370
-3
390
13
347
21
  0
LAYER
  5
53
330
1
100
AcDbSymbolTableRecord
100
AcDbLayerTableRecord
  2
TIER_05
 70
0
 62
3
  6
Continuous
370
-3
390
13
347
21
  0
LAYER
  5
5C
330
1
100
AcDbSymbolTableRecord
100
AcDbLayerTableRecord
  2
TIER_06
 70
0
 62
3
  6
Continuous
370
-3
390
13
347
21
  0
LAYER
  5
65
330
1
100
AcDbSymbolTableRecord
100
AcDbLayerTableRecord
  2
TIER_07
 70
0
 62
3
  6
Continuous
370
-3
390
13
347
21
  0
LAYER
  5
6E
330
1
100
AcDbSymbolTableRecord
100
AcDbLayerTableRecord
  2
TIER_08
 70
0
 62
3
  6
Continuous
370
-3
390
13
347
21
  0
LAYER
  5
71
330
1
100
AcDbSymbolTableRecord
100
AcDbLayerTableRecord
  2
TIER_09
 70
0
 62
3
  6
Continuous
370
-3
390
13
347
21
  0
LAYER
  5
74
330
1
100
AcDbSymbolTableRecord
100
AcDbLayerTableRecord
  2
TIER_10
 70
0
 62
3
  6
Continuous
370
-3
390
13
347
21
  0
LAYER
  5
77
330
1
100
AcDbSymbolTableRecord
100
AcDbLayerTableRecord
  2
TIER_11
 70
0
 62
3
  6
Continuous
370
-3
390
13
347
21
  0
LAYER
  5
7A
330
1
100
AcDbSymbolTableRecord
100
AcDbLayerTableRecord
  2
TIER_12
 70
0
 62
3
  6
Continuous
370
-3
390
13
347
21
  0
ENDTAB
  0
TABLE
  2
STYLE
  5
5
330
0
100
AcDbSymbolTable
 70
1
  0
STYLE
  5
29
330
5
100
AcDbSymbolTableRecord
100
AcDbTextStyleTableRecord
  2
Standard
 70
0
 40
0.0
 41
1.0
 50
0.0
 71
0
 42
2.5
  3
txt
  4

  0
ENDTAB
  0
TABLE
  2
VIEW
  5
7
330
0
100
AcDbSymbolTable
 70
0
  0
ENDTAB
  0
TABLE
  2
UCS
  5
6
330
0
100
AcDbSymbolTable
 70
0
  0
ENDTAB
  0
TABLE
  2
APPID
  5
3
330
0
100
AcDbSymbolTable
 70
3
  0
APPID
  5
2A
330
3
100
AcDbSymbolTableRecord
100
AcDbRegAppTableRecord
  2
ACAD
 70
0
  0
APPID
  5
7E
330
3
100
AcDbSymbolTableRecord
100
AcDbRegAppTableRecord
  2
HATCHBACKGROUNDCOLOR
 70
0
  0
APPID
  5
7F
330
3
100
AcDbSymbolTableRecord
100
AcDbRegAppTableRecord
  2
EZDXF
 70
0
  0
ENDTAB
  0
TABLE
  2
DIMSTYLE
  5
4
330
0
100
AcDbSymbolTable
 70
1
100
AcDbDimStyleTable
  0
DIMSTYLE
105
2B
330
4
100
AcDbSymbolTableRecord
100
AcDbDimStyleTableRecord
  2
Standard
 70
0
 40
1.0
 41
2.5
 42
0.625
 43
3.75
 44
1.25
 45
0.0
 46
0.0
 47
0.0
 48
0.0
 49
2.5
140
2.5
141
2.5
142
0.0
143
0.03937007874
144
1.0
145
0.0
146
1.0
147
0.625
148
0.0
 69
0
 70
0
 71
0
 72
0
 73
0
 74
0
 75
0
 76
0
 77
1
 78
8
 79
3
170
0
171
3
172
1
173
0
174
0
175
0
176
0
177
0
178
0
179
2
271
2
272
2
273
2
274
3
275
0
276
0
277
2
278
44
279
0
280
0
281
0
282
0
283
0
284
8
285
0
286
0
288
0
289
3
290
0
371
-2
372
-2
  0
ENDTAB
  0
TABLE
  2
BLOCK_RECORD
  5
9
330
0
100
AcDbSymbolTable
 70
2
  0
BLOCK_RECORD
  5
17
330
9
100
AcDbSymbolTableRecord
100
AcDbBlockTableRecord
  2
*Model_Space
340
1A
 70
0
280
1
281
0
  0
BLOCK_RECORD
  5
1B
330
9
100
AcDbSymbolTableRecord
100
AcDbBlockTableRecord
  2
*Paper_Space
340
1E
 70
0
280
1
281
0
  0
ENDTAB
  0
ENDSEC
  0
SECTION
  2
BLOCKS
  0
BLOCK
  5
18
330
17
100
AcDbEntity
  8
0
100
AcDbBlockBegin
  2
*Model_Space
 70
0
 10
0.0
 20
0.0
 30
0.0
  3
*Model_Space
  1

  0
ENDBLK
  5
19
330
17
100
AcDbEntity
  8
0
100
AcDbBlockEnd
  0
BLOCK
  5
1C
330
1B
100
AcDbEntity
  8
0
100
AcDbBlockBegin
  2
*Paper_Space
 70
0
 10
0.0
 20
0.0
 30
0.0
  3
*Paper_Space
  1

  0
ENDBLK
  5
1D
330
1B
100
AcDbEntity
  8
0
100
AcDbBlockEnd
  0
ENDSEC
  0
SECTION
  2
ENTITIES
  0
LWPOLYLINE
  5
30
330
17
100
AcDbEntity
  8
TIER_01
100
AcDbPolyline
 90
78
 70
1
 10
7625.853811604095
 20
-10044.299369318762
 10
6467.724952980173
 20
-11202.428227942684
 10
4885.691511244015
 20
-11626.332811054917
 10
3303.658069507857
 20
-11202.428227942684
 10
2145.5292108839335
 20
-10044.299369318758
 10
1817.250930964865
 20
-8819.148149639475
 10
162.85638370813382
 20
-9262.441832539369
 10
162.85638370813382
 20
-2791.823720710865
 10
-162.85638370813382
 20
-2791.823720710865
 10
-162.85638370813382
 20
-9262.441832539369
 10
-1817.2509309648685
 20
-8819.148149639475
 10
-2145.529210883938
 20
-10044.299369318758
 10
-3303.658069507861
 20
-11202.428227942682
 10
-4885.691511244019
 20
-11626.332811054916
 10
-6467.724952980177
 20
-11202.428227942682
 10
-7625.8538116041
 20
-10044.299369318758
 10
-8049.758394716332
 20
-8462.2659275826
 10
-7625.853811604099
 20
-6880.232485846444
 10
-6728.9808718438835
 20
-5983.359546086229
 10
-7940.081736200716
 20
-4772.258681729396
 10
-2336.362073169534
 20
-1536.9496258151428
 10
-2499.2184568776674
 20
-1254.874094895723
 10
-8102.938119908851
 20
-4490.183150809977
 10
-8546.231802808745
 20
-2835.788603553244
 10
-9771.38302248803
 20
-3164.0668834723133
 10
-11353.416464224187
 20
-2740.16230036008
 10
-12511.545322848111
 20
-1582.033441736155
 10
-12935.449905960344
 20
1.5841357322865265e-12
 10
-12511.545322848111
 20
1582.033441736158
 10
-11353.416464224185
 20
2740.1623003600826
 10
-9771.38302248803
 20
3164.066883472315
 10
-8546.231802808743
 20
2835.788603553246
 10
-8102.938119908851
 20
4490.183150809975
 10
-2499.218456877668
 20
1254.8740948957222
 10
-2336.3620731695346
 20
1536.9496258151423
 10
-7940.081736200717
 20
4772.258681729395
 10
-6728.980871843879
 20
5983.3595460862325
 10
-7625.853811604094
 20
6880.232485846447
 10
-8049.758394716326
 20
8462.265927582604
 10
-7625.853811604093
 20
10044.299369318762
 10
-6467.724952980168
 20
11202.428227942684
 10
-4885.691511244012
 20
11626.332811054917
 10
-3303.658069507855
 20
11202.428227942684
 10
-2145.529210883931
 20
10044.299369318762
 10
-1817.2509309648617
 20
8819.148149639475
 10
-162.85638370813382
 20
9262.441832539369
 10
-162.85638370813382
 20
2791.823720710865
 10
162.85638370813382
 20
2791.823720710865
 10
162.85638370813382
 20
9262.441832539369
 10
1817.2509309648651
 20
8819.148149639475
 10
2145.529210883934
 20
10044.299369318758
 10
3303.658069507859
 20
11202.428227942684
 10
4885.691511244016
 20
11626.332811054917
 10
6467.724952980173
 20
11202.428227942684
 10
7625.853811604097
 20
10044.299369318758
 10
8049.75839471633
 20
8462.265927582603
 10
7625.853811604095
 20
6880.232485846444
 10
6728.980871843882
 20
5983.35954608623
 10
7940.081736200717
 20
4772.258681729395
 10
2336.3620731695346
 20
1536.9496258151423
 10
2499.218456877668
 20
1254.8740948957222
 10
8102.938119908851
 20
4490.183150809975
 10
8546.231802808745
 20
2835.7886035532447
 10
9771.38302248803
 20
3164.066883472314
 10
11353.416464224187
 20
2740.162300360081
 10
12511.545322848111
 20
1582.0334417361569
 10
12935.449905960344
 20
0.0
 10
12511.54532284811
 20
-1582.0334417361582
 10
11353.416464224187
 20
-2740.162300360081
 10
9771.38302248803
 20
-3164.066883472314
 10
8546.231802808743
 20
-2835.7886035532442
 10
8102.9381199088475
 20
-4490.1831508099785
 10
2499.2184568776674
 20
-1254.8740948957238
 10
2336.362073169533
 20
-1536.9496258151437
 10
7940.081736200715
 20
-4772.258681729399
 10
6728.980871843882
 20
-5983.35954608623
 10
7625.853811604097
 20
-6880.232485846446
 10
8049.75839471633
 20
-8462.265927582603
  0
LWPOLYLINE
  5
31
330
17
100
AcDbEntity
  8
TIER_01
100
AcDbPolyline
 90
24
 70
1
 10
-2094.3153637646055
 20
-5023.3724774678185
 10
-2024.5892714502397
 20
-4855.0387997512
 10
-2000.806999842789
 20
-4674.394512378961
 10
-2024.5892714502395
 20
-4493.750225006723
 10
-2094.315363764605
 20
-4325.416547290102
 10
-2205.233558822478
 20
-4180.865141180932
 10
-2349.7849649316477
 20
-4069.9469461230606
 10
-2518.1186426482673
 20
-4000.2208538086948
 10
-2698.7629300205053
 20
-3976.438582201244
 10
-2879.4072173927434
 20
-4000.2208538086948
 10
-3047.7408951093635
 20
-4069.9469461230606
 10
-3192.2923012185333
 20
-4180.865141180932
 10
-3303.2104962764056
 20
-4325.416547290102
 10
-3372.9365885907714
 20
-4493.750225006723
 10
-3396.718860198222
 20
-4674.394512378961
 10
-3372.9365885907714
 20
-4855.038799751199
 10
-3303.2104962764056
 20
-5023.3724774678185
 10
-3192.2923012185333
 20
-5167.923883576988
 10
-3047.740895109364
 20
-5278.842078634861
 10
-2879.4072173927434
 20
-5348.568170949226
 10
-2698.7629300205053
 20
-5372.350442556676
 10
-2518.1186426482677
 20
-5348.568170949226
 10
-2349.7849649316477
 20
-5278.842078634861
 10
-2205.233558822478
 20
-5167.923883576988
  0
LWPOLYLINE
  5
32
330
17
100
AcDbEntity
  8
TIER_01
100
AcDbPolyline
 90
24
 70
1
 10
789.646993916844
 20
-789.6469939168445
 10
967.1161060094399
 20
-558.3647441421735
 10
1078.677853712425
 20
-289.030859795582
 10
1116.729488284346
 20
0.0
 10
1078.6778537124253
 20
289.0308597955811
 10
967.1161060094404
 20
558.364744142173
 10
789.6469939168443
 20
789.6469939168443
 10
558.3647441421731
 20
967.1161060094403
 10
289.0308597955811
 20
1078.6778537124253
 10
6.837995966704429e-14
 20
1116.729488284346
 10
-289.03085979558097
 20
1078.6778537124253
 10
-558.3647441421728
 20
967.1161060094404
 10
-789.6469939168442
 20
789.6469939168443
 10
-967.1161060094404
 20
558.364744142173
 10
-1078.6778537124253
 20
289.03085979558136
 10
-1116.729488284346
 20
1.3675991933408859e-13
 10
-1078.6778537124253
 20
-289.03085979558114
 10
-967.1161060094405
 20
-558.3647441421726
 10
-789.6469939168447
 20
-789.6469939168438
 10
-558.3647441421735
 20
-967.1161060094402
 10
-289.03085979558097
 20
-1078.6778537124253
 10
-2.0513987900113288e-13
 20
-1116.729488284346
 10
289.03085979558057
 20
-1078.6778537124255
 10
558.3647441421731
 20
-967.1161060094403
  0
LWPOLYLINE
  5
33
330
17
100
AcDbEntity
  8
TIER_01
100
AcDbPolyline
 90
24
 70
1
 10
-4793.078293785105
 20
-348.9779650888578
 10
-4723.35220147074
 20
-180.6442873722381
 10
-4699.56992986329
 20
6.610062767814282e-13
 10
-4723.35220147074
 20
180.6442873722388
 10
-4793.078293785105
 20
348.9779650888587
 10
-4903.996488842978
 20
493.52937119802834
 10
-5048.5478949521475
 20
604.4475662559008
 10
-5216.881572668767
 20
674.1736585702665
 10
-5397.525860041006
 20
697.9559301777169
 10
-5578.170147413244
 20
674.1736585702665
 10
-5746.503825129864
 20
604.4475662559009
 10
-5891.055231239034
 20
493.52937119802834
 10
-6001.973426296906
 20
348.9779650888587
 10
-6071.699518611272
 20
180.644287372239
 10
-6095.4817902187215
 20
7.464812263652336e-13
 10
-6071.699518611272
 20
-180.64428737223756
 10
-6001.973426296906
 20
-348.9779650888573
 10
-5891.055231239034
 20
-493.52937119802675
 10
-5746.503825129864
 20
-604.4475662558993
 10
-5578.170147413244
 20
-674.1736585702653
 10
-5397.525860041006
 20
-697.9559301777156
 10
-5216.881572668767
 20
-674.1736585702653
 10
-5048.5478949521475
 20
-604.4475662558996
 10
-4903.996488842978
 20
-493.52937119802715
  0
LWPOLYLINE
  5
34
330
17
100
AcDbEntity
  8
TIER_01
100
AcDbPolyline
 90
24
 70
1
 10
-2205.233558822474
 20
4180.865141180934
 10
-2094.315363764602
 20
4325.416547290103
 10
-2024.589271450236
 20
4493.750225006723
 10
-2000.8069998427854
 20
4674.394512378962
 10
-2024.5892714502359
 20
4855.0387997512
 10
-2094.3153637646014
 20
5023.372477467819
 10
-2205.233558822474
 20
5167.923883576989
 10
-2349.7849649316436
 20
5278.8420786348615
 10
-2518.1186426482636
 20
5348.568170949227
 10
-2698.7629300205017
 20
5372.350442556677
 10
-2879.4072173927398
 20
5348.568170949227
 10
-3047.74089510936
 20
5278.8420786348615
 10
-3192.2923012185297
 20
5167.923883576989
 10
-3303.2104962764024
 20
5023.372477467819
 10
-3372.9365885907678
 20
4855.0387997512
 10
-3396.7188601982184
 20
4674.394512378962
 10
-3372.9365885907678
 20
4493.750225006724
 10
-3303.2104962764024
 20
4325.416547290103
 10
-3192.2923012185297
 20
4180.865141180934
 10
-3047.7408951093603
 20
4069.9469461230615
 10
-2879.4072173927398
 20
4000.2208538086957
 10
-2698.7629300205017
 20
3976.438582201245
 10
-2518.118642648264
 20
4000.2208538086957
 10
-2349.7849649316436
 20
4069.9469461230615
  0
LWPOLYLINE
  5
35
330
17
100
AcDbEntity
  8
TIER_01
100
AcDbPolyline
 90
24
 70
1
 10
3192.292301218531
 20
-5167.923883576989
 10
3303.2104962764033
 20
-5023.37247746782
 10
3372.936588590769
 20
-4855.038799751201
 10
3396.7188601982198
 20
-4674.394512378962
 10
3372.936588590769
 20
-4493.750225006724
 10
3303.2104962764033
 20
-4325.416547290103
 10
3192.292301218531
 20
-4180.865141180934
 10
3047.740895109361
 20
-4069.9469461230615
 10
2879.4072173927416
 20
-4000.2208538086957
 10
2698.7629300205035
 20
-3976.438582201245
 10
2518.118642648265
 20
-4000.2208538086957
 10
2349.7849649316454
 20
-4069.9469461230615
 10
2205.2335588224755
 20
-4180.865141180934
 10
2094.3153637646033
 20
-4325.416547290103
 10
2024.5892714502374
 20
-4493.750225006724
 10
2000.806999842787
 20
-4674.394512378962
 10
2024.5892714502374
 20
-4855.0387997512
 10
2094.3153637646033
 20
-5023.372477467819
 10
2205.2335588224755
 20
-5167.923883576989
 10
2349.784964931645
 20
-5278.8420786348615
 10
2518.118642648265
 20
-5348.568170949227
 10
2698.7629300205035
 20
-5372.350442556677
 10
2879.407217392741
 20
-5348.568170949227
 10
3047.740895109361
 20
-5278.8420786348615
  0
LWPOLYLINE
  5
36
330
17
100
AcDbEntity
  8
TIER_01
100
AcDbPolyline
 90
24
 70
1
 10
5891.055231239034
 20
-493.52937119802783
 10
6001.973426296906
 20
-348.97796508885847
 10
6071.699518611272
 20
-180.64428737223875
 10
6095.4817902187215
 20
0.0
 10
6071.699518611272
 20
180.64428737223818
 10
6001.973426296906
 20
348.97796508885807
 10
5891.055231239034
 20
493.52937119802766
 10
5746.503825129864
 20
604.4475662559001
 10
5578.170147413244
 20
674.173658570266
 10
5397.525860041006
 20
697.9559301777163
 10
5216.881572668767
 20
674.173658570266
 10
5048.5478949521475
 20
604.4475662559003
 10
4903.996488842978
 20
493.52937119802766
 10
4793.078293785105
 20
348.97796508885807
 10
4723.35220147074
 20
180.64428737223835
 10
4699.56992986329
 20
8.547494958380537e-14
 10
4723.35220147074
 20
-180.6442873722382
 10
4793.078293785105
 20
-348.97796508885796
 10
4903.996488842978
 20
-493.52937119802743
 10
5048.5478949521475
 20
-604.4475662559
 10
5216.881572668767
 20
-674.173658570266
 10
5397.525860041006
 20
-697.9559301777163
 10
5578.170147413244
 20
-674.173658570266
 10
5746.503825129864
 20
-604.4475662559001
  0
LWPOLYLINE
  5
37
330
17
100
AcDbEntity
  8
TIER_01
100
AcDbPolyline
 90
24
 70
1
 10
3192.292301218531
 20
4180.865141180934
 10
3303.2104962764033
 20
4325.416547290103
 10
3372.936588590769
 20
4493.750225006723
 10
3396.7188601982198
 20
4674.394512378962
 10
3372.936588590769
 20
4855.0387997512
 10
3303.2104962764033
 20
5023.372477467819
 10
3192.292301218531
 20
5167.923883576989
 10
3047.740895109361
 20
5278.8420786348615
 10
2879.4072173927416
 20
5348.568170949227
 10
2698.7629300205035
 20
5372.350442556677
 10
2518.118642648265
 20
5348.568170949227
 10
2349.7849649316454
 20
5278.8420786348615
 10
2205.2335588224755
 20
5167.923883576989
 10
2094.3153637646033
 20
5023.372477467819
 10
2024.5892714502374
 20
4855.0387997512
 10
2000.806999842787
 20
4674.394512378962
 10
2024.5892714502374
 20
4493.750225006724
 10
2094.3153637646033
 20
4325.416547290103
 10
2205.2335588224755
 20
4180.865141180934
 10
2349.784964931645
 20
4069.9469461230615
 10
2518.118642648265
 20
4000.2208538086957
 10
2698.7629300205035
 20
3976.438582201245
 10
2879.407217392741
 20
4000.2208538086957
 10
3047.740895109361
 20
4069.9469461230615
  0
LWPOLYLINE
  5
39
330
17
100
AcDbEntity
  8
TIER_02
100
AcDbPolyline
 90
90
 70
1
 10
-3629.370836924129
 20
-10638.277166103842
 10
-4885.691511244018
 20
-10974.907276222382
 10
-6142.012185563909
 20
-10638.277166103842
 10
-7061.702749765261
 20
-9718.58660190249
 10
-7398.332859883797
 20
-8462.2659275826
 10
-7061.70274976526
 20
-7205.945253262712
 10
-6142.012185563907
 20
-6286.25468906136
 10
-5837.415203903486
 20
-6204.638173808493
 10
-7515.1367805299005
 20
-4526.916597182077
 10
-2336.362073169534
 20
-1536.9496258151428
 10
-2499.2184568776674
 20
-1254.874094895723
 10
-7677.993164238036
 20
-4244.841066262658
 10
-8292.081881760587
 20
-1953.0307721136867
 10
-8515.06234816814
 20
-2176.0112385212396
 10
-9771.38302248803
 20
-2512.641348639778
 10
-11027.703696807917
 20
-2176.011238521239
 10
-11947.394261009269
 20
-1256.3206743198873
 10
-12284.024371127807
 20
1.504359112674975e-12
 10
-11947.394261009269
 20
1256.3206743198905
 10
-11027.703696807917
 20
2176.0112385212424
 10
-9771.38302248803
 20
2512.64134863978
 10
-8515.06234816814
 20
2176.0112385212424
 10
-8292.081881760587
 20
1953.030772113689
 10
-7677.993164238036
 20
4244.841066262657
 10
-2499.218456877668
 20
1254.8740948957222
 10
-2336.3620731695346
 20
1536.9496258151423
 10
-7515.136780529903
 20
4526.916597182076
 10
-5837.415203903481
 20
6204.638173808496
 10
-6142.012185563903
 20
6286.254689061364
 10
-7061.702749765254
 20
7205.945253262716
 10
-7398.332859883791
 20
8462.265927582604
 10
-7061.702749765253
 20
9718.586601902492
 10
-6142.012185563901
 20
10638.277166103846
 10
-4885.691511244012
 20
10974.907276222382
 10
-3629.3708369241226
 20
10638.277166103846
 10
-2709.6802727227714
 20
9718.586601902492
 10
-2373.0501626042333
 20
8462.265927582604
 10
-2454.6666778571007
 20
8157.668945922183
 10
-162.85638370813382
 20
8771.757663444732
 10
-162.85638370813382
 20
2791.823720710865
 10
162.85638370813382
 20
2791.823720710865
 10
162.85638370813382
 20
8771.757663444732
 10
2454.666677857104
 20
8157.668945922183
 10
2373.0501626042364
 20
8462.265927582603
 10
2709.6802727227746
 20
9718.586601902492
 10
3629.3708369241263
 20
10638.277166103844
 10
4885.691511244016
 20
10974.907276222382
 10
6142.0121855639045
 20
10638.277166103844
 10
7061.702749765256
 20
9718.586601902492
 10
7398.332859883794
 20
8462.265927582603
 10
7061.702749765255
 20
7205.945253262712
 10
6142.0121855639045
 20
6286.254689061361
 10
5837.415203903484
 20
6204.638173808495
 10
7515.136780529903
 20
4526.916597182076
 10
2336.3620731695346
 20
1536.9496258151423
 10
2499.218456877668
 20
1254.8740948957222
 10
7677.993164238036
 20
4244.841066262657
 10
8292.081881760587
 20
1953.0307721136878
 10
8515.06234816814
 20
2176.011238521241
 10
9771.38302248803
 20
2512.6413486397787
 10
11027.703696807917
 20
2176.011238521241
 10
11947.394261009269
 20
1256.3206743198891
 10
12284.024371127807
 20
0.0
 10
11947.394261009269
 20
-1256.3206743198905
 10
11027.703696807917
 20
-2176.011238521241
 10
9771.38302248803
 20
-2512.6413486397787
 10
8515.062348168138
 20
-2176.0112385212406
 10
8292.081881760585
 20
-1953.0307721136874
 10
7677.993164238033
 20
-4244.84106626266
 10
2499.2184568776674
 20
-1254.8740948957238
 10
2336.362073169533
 20
-1536.9496258151437
 10
7515.1367805299
 20
-4526.91659718208
 10
5837.415203903485
 20
-6204.638173808495
 10
6142.0121855639045
 20
-6286.254689061361
 10
7061.702749765256
 20
-7205.945253262713
 10
7398.332859883794
 20
-8462.265927582603
 10
7061.702749765255
 20
-9718.586601902494
 10
6142.0121855639045
 20
-10638.277166103844
 10
4885.691511244016
 20
-10974.907276222382
 10
3629.370836924125
 20
-10638.277166103844
 10
2709.6802727227737
 20
-9718.586601902492
 10
2373.0501626042364
 20
-8462.265927582603
 10
2454.666677857104
 20
-8157.668945922182
 10
162.85638370813382
 20
-8771.757663444732
 10
162.85638370813382
 20
-2791.823720710865
 10
-162.85638370813382
 20
-2791.823720710865
 10
-162.85638370813382
 20
-8771.757663444732
 10
-2454.6666778571066
 20
-8157.668945922182
 10
-2373.0501626042396
 20
-8462.2659275826
 10
-2709.6802727227787
 20
-9718.586601902492
  0
LWPOLYLINE
  5
3A
330
17
100
AcDbEntity
  8
TIER_02
100
AcDbPolyline
 90
24
 70
1
 10
-2094.3153637646055
 20
-5023.3724774678185
 10
-2024.5892714502397
 20
-4855.0387997512
 10
-2000.806999842789
 20
-4674.394512378961
 10
-2024.5892714502395
 20
-4493.750225006723
 10
-2094.315363764605
 20
-4325.416547290102
 10
-2205.233558822478
 20
-4180.865141180932
 10
-2349.7849649316477
 20
-4069.9469461230606
 10
-2518.1186426482673
 20
-4000.2208538086948
 10
-2698.7629300205053
 20
-3976.438582201244
 10
-2879.4072173927434
 20
-4000.2208538086948
 10
-3047.7408951093635
 20
-4069.9469461230606
 10
-3192.2923012185333
 20
-4180.865141180932
 10
-3303.2104962764056
 20
-4325.416547290102
 10
-3372.9365885907714
 20
-4493.750225006723
 10
-3396.718860198222
 20
-4674.394512378961
 10
-3372.9365885907714
 20
-4855.038799751199
 10
-3303.2104962764056
 20
-5023.3724774678185
 10
-3192.2923012185333
 20
-5167.923883576988
 10
-3047.740895109364
 20
-5278.842078634861
 10
-2879.4072173927434
 20
-5348.568170949226
 10
-2698.7629300205053
 20
-5372.350442556676
 10
-2518.1186426482677
 20
-5348.568170949226
 10
-2349.7849649316477
 20
-5278.842078634861
 10
-2205.233558822478
 20
-5167.923883576988
  0
LWPOLYLINE
  5
3B
330
17
100
AcDbEntity
  8
TIER_02
100
AcDbPolyline
 90
24
 70
1
 10
789.646993916844
 20
-789.6469939168445
 10
967.1161060094399
 20
-558.3647441421735
 10
1078.677853712425
 20
-289.030859795582
 10
1116.729488284346
 20
0.0
 10
1078.6778537124253
 20
289.0308597955811
 10
967.1161060094404
 20
558.364744142173
 10
789.6469939168443
 20
789.6469939168443
 10
558.3647441421731
 20
967.1161060094403
 10
289.0308597955811
 20
1078.6778537124253
 10
6.837995966704429e-14
 20
1116.729488284346
 10
-289.03085979558097
 20
1078.6778537124253
 10
-558.3647441421728
 20
967.1161060094404
 10
-789.6469939168442
 20
789.6469939168443
 10
-967.1161060094404
 20
558.364744142173
 10
-1078.6778537124253
 20
289.03085979558136
 10
-1116.729488284346
 20
1.3675991933408859e-13
 10
-1078.6778537124253
 20
-289.03085979558114
 10
-967.1161060094405
 20
-558.3647441421726
 10
-789.6469939168447
 20
-789.6469939168438
 10
-558.3647441421735
 20
-967.1161060094402
 10
-289.03085979558097
 20
-1078.6778537124253
 10
-2.0513987900113288e-13
 20
-1116.729488284346
 10
289.03085979558057
 20
-1078.6778537124255
 10
558.3647441421731
 20
-967.1161060094403
  0
LWPOLYLINE
  5
3C
330
17
100
AcDbEntity
  8
TIER_02
100
AcDbPolyline
 90
24
 70
1
 10
-4793.078293785105
 20
-348.9779650888578
 10
-4723.35220147074
 20
-180.6442873722381
 10
-4699.56992986329
 20
6.610062767814282e-13
 10
-4723.35220147074
 20
180.6442873722388
 10
-4793.078293785105
 20
348.9779650888587
 10
-4903.996488842978
 20
493.52937119802834
 10
-5048.5478949521475
 20
604.4475662559008
 10
-5216.881572668767
 20
674.1736585702665
 10
-5397.525860041006
 20
697.9559301777169
 10
-5578.170147413244
 20
674.1736585702665
 10
-5746.503825129864
 20
604.4475662559009
 10
-5891.055231239034
 20
493.52937119802834
 10
-6001.973426296906
 20
348.9779650888587
 10
-6071.699518611272
 20
180.644287372239
 10
-6095.4817902187215
 20
7.464812263652336e-13
 10
-6071.699518611272
 20
-180.64428737223756
 10
-6001.973426296906
 20
-348.9779650888573
 10
-5891.055231239034
 20
-493.52937119802675
 10
-5746.503825129864
 20
-604.4475662558993
 10
-5578.170147413244
 20
-674.1736585702653
 10
-5397.525860041006
 20
-697.9559301777156
 10
-5216.881572668767
 20
-674.1736585702653
 10
-5048.5478949521475
 20
-604.4475662558996
 10
-4903.996488842978
 20
-493.52937119802715
  0
LWPOLYLINE
  5
3D
330
17
100
AcDbEntity
  8
TIER_02
100
AcDbPolyline
 90
24
 70
1
 10
-2205.233558822474
 20
4180.865141180934
 10
-2094.315363764602
 20
4325.416547290103
 10
-2024.589271450236
 20
4493.750225006723
 10
-2000.8069998427854
 20
4674.394512378962
 10
-2024.5892714502359
 20
4855.0387997512
 10
-2094.3153637646014
 20
5023.372477467819
 10
-2205.233558822474
 20
5167.923883576989
 10
-2349.7849649316436
 20
5278.8420786348615
 10
-2518.1186426482636
 20
5348.568170949227
 10
-2698.7629300205017
 20
5372.350442556677
 10
-2879.4072173927398
 20
5348.568170949227
 10
-3047.74089510936
 20
5278.8420786348615
 10
-3192.2923012185297
 20
5167.923883576989
 10
-3303.2104962764024
 20
5023.372477467819
 10
-3372.9365885907678
 20
4855.0387997512
 10
-3396.7188601982184
 20
4674.394512378962
 10
-3372.9365885907678
 20
4493.750225006724
 10
-3303.2104962764024
 20
4325.416547290103
 10
-3192.2923012185297
 20
4180.865141180934
 10
-3047.7408951093603
 20
4069.9469461230615
 10
-2879.4072173927398
 20
4000.2208538086957
 10
-2698.7629300205017
 20
3976.438582201245
 10
-2518.118642648264
 20
4000.2208538086957
 10
-2349.7849649316436
 20
4069.9469461230615
  0
LWPOLYLINE
  5
3E
330
17
100
AcDbEntity
  8
TIER_02
100
AcDbPolyline
 90
24
 70
1
 10
3192.292301218531
 20
-5167.923883576989
 10
3303.2104962764033
 20
-5023.37247746782
 10
3372.936588590769
 20
-4855.038799751201
 10
3396.7188601982198
 20
-4674.394512378962
 10
3372.936588590769
 20
-4493.750225006724
 10
3303.2104962764033
 20
-4325.416547290103
 10
3192.292301218531
 20
-4180.865141180934
 10
3047.740895109361
 20
-4069.9469461230615
 10
2879.4072173927416
 20
-4000.2208538086957
 10
2698.7629300205035
 20
-3976.438582201245
 10
2518.118642648265
 20
-4000.2208538086957
 10
2349.7849649316454
 20
-4069.9469461230615
 10
2205.2335588224755
 20
-4180.865141180934
 10
2094.3153637646033
 20
-4325.416547290103
 10
2024.5892714502374
 20
-4493.750225006724
 10
2000.806999842787
 20
-4674.394512378962
 10
2024.5892714502374
 20
-4855.0387997512
 10
2094.3153637646033
 20
-5023.372477467819
 10
2205.2335588224755
 20
-5167.923883576989
 10
2349.784964931645
 20
-5278.8420786348615
 10
2518.118642648265
 20
-5348.568170949227
 10
2698.7629300205035
 20
-5372.350442556677
 10
2879.407217392741
 20
-5348.568170949227
 10
3047.740895109361
 20
-5278.8420786348615
  0
LWPOLYLINE
  5
3F
330
17
100
AcDbEntity
  8
TIER_02
100
AcDbPolyline
 90
24
 70
1
 10
5891.055231239034
 20
-493.52937119802783
 10
6001.973426296906
 20
-348.97796508885847
 10
6071.699518611272
 20
-180.64428737223875
 10
6095.4817902187215
 20
0.0
 10
6071.699518611272
 20
180.64428737223818
 10
6001.973426296906
 20
348.97796508885807
 10
5891.055231239034
 20
493.52937119802766
 10
5746.503825129864
 20
604.4475662559001
 10
5578.170147413244
 20
674.173658570266
 10
5397.525860041006
 20
697.9559301777163
 10
5216.881572668767
 20
674.173658570266
 10
5048.5478949521475
 20
604.4475662559003
 10
4903.996488842978
 20
493.52937119802766
 10
4793.078293785105
 20
348.97796508885807
 10
4723.35220147074
 20
180.64428737223835
 10
4699.56992986329
 20
8.547494958380537e-14
 10
4723.35220147074
 20
-180.6442873722382
 10
4793.078293785105
 20
-348.97796508885796
 10
4903.996488842978
 20
-493.52937119802743
 10
5048.5478949521475
 20
-604.4475662559
 10
5216.881572668767
 20
-674.173658570266
 10
5397.525860041006
 20
-697.9559301777163
 10
5578.170147413244
 20
-674.173658570266
 10
5746.503825129864
 20
-604.4475662559001
  0
LWPOLYLINE
  5
40
330
17
100
AcDbEntity
  8
TIER_02
100
AcDbPolyline
 90
24
 70
1
 10
3192.292301218531
 20
4180.865141180934
 10
3303.2104962764033
 20
4325.416547290103
 10
3372.936588590769
 20
4493.750225006723
 10
3396.7188601982198
 20
4674.394512378962
 10
3372.936588590769
 20
4855.0387997512
 10
3303.2104962764033
 20
5023.372477467819
 10
3192.292301218531
 20
5167.923883576989
 10
3047.740895109361
 20
5278.8420786348615
 10
2879.4072173927416
 20
5348.568170949227
 10
2698.7629300205035
 20
5372.350442556677
 10
2518.118642648265
 20
5348.568170949227
 10
2349.7849649316454
 20
5278.8420786348615
 10
2205.2335588224755
 20
5167.923883576989
 10
2094.3153637646033
 20
5023.372477467819
 10
2024.5892714502374
 20
4855.0387997512
 10
2000.806999842787
 20
4674.394512378962
 10
2024.5892714502374
 20
4493.750225006724
 10
2094.3153637646033
 20
4325.416547290103
 10
2205.2335588224755
 20
4180.865141180934
 10
2349.784964931645
 20
4069.9469461230615
 10
2518.118642648265
 20
4000.2208538086957
 10
2698.7629300205035
 20
3976.438582201245
 10
2879.407217392741
 20
4000.2208538086957
 10
3047.740895109361
 20
4069.9469461230615
  0
LWPOLYLINE
  5
42
330
17
100
AcDbEntity
  8
TIER_03
100
AcDbPolyline
 90
102
 70
1
 10
6497.551687926417
 20
-7531.658020678981
 10
6746.907325051258
 20
-8462.265927582603
 10
6497.551687926415
 20
-9392.873834486225
 10
5816.299418147638
 20
-10074.126104265002
 10
4885.691511244016
 20
-10323.481741389845
 10
3955.083604340393
 20
-10074.126104265002
 10
3273.8313345616143
 20
-9392.873834486223
 10
3024.475697436772
 20
-8462.265927582603
 10
3273.8313345616143
 20
-7531.658020678981
 10
3388.8066220871424
 20
-7416.682733153452
 10
162.85638370813382
 20
-8281.073494350096
 10
162.85638370813382
 20
-2791.823720710865
 10
-162.85638370813382
 20
-2791.823720710865
 10
-162.85638370813382
 20
-8281.073494350096
 10
-3388.8066220871456
 20
-7416.682733153452
 10
-3273.8313345616175
 20
-7531.65802067898
 10
-3024.4756974367747
 20
-8462.2659275826
 10
-3273.8313345616184
 20
-9392.873834486225
 10
-3955.0836043403965
 20
-10074.126104265002
 10
-4885.691511244018
 20
-10323.481741389845
 10
-5816.299418147641
 20
-10074.126104265002
 10
-6497.55168792642
 20
-9392.873834486223
 10
-6746.907325051263
 20
-8462.2659275826
 10
-6497.55168792642
 20
-7531.65802067898
 10
-5816.29941814764
 20
-6850.4057509002005
 10
-4885.691511244018
 20
-6601.050113775357
 10
-4728.632347676726
 20
-6643.133989817122
 10
-7090.191824859086
 20
-4281.574512634758
 10
-2336.362073169534
 20
-1536.9496258151428
 10
-2499.2184568776674
 20
-1254.874094895723
 10
-7253.048208567222
 20
-3999.4989817153396
 10
-8117.438969763864
 20
-773.5487433363277
 10
-8159.522845805628
 20
-930.6079069036214
 10
-8840.775115584405
 20
-1611.8601766823992
 10
-9771.38302248803
 20
-1861.2158138072423
 10
-10701.990929391652
 20
-1611.860176682399
 10
-11383.24319917043
 20
-930.6079069036201
 10
-11632.598836295272
 20
1.4245824930634231e-12
 10
-11383.243199170429
 20
930.6079069036228
 10
-10701.99092939165
 20
1611.8601766824022
 10
-9771.38302248803
 20
1861.2158138072448
 10
-8840.775115584405
 20
1611.860176682402
 10
-8159.522845805627
 20
930.6079069036228
 10
-8117.438969763864
 20
773.5487433363307
 10
-7253.048208567222
 20
3999.498981715338
 10
-2499.218456877668
 20
1254.8740948957222
 10
-2336.3620731695346
 20
1536.9496258151423
 10
-7090.191824859088
 20
4281.574512634757
 10
-4728.632347676721
 20
6643.133989817123
 10
-4885.691511244012
 20
6601.05011377536
 10
-5816.299418147635
 20
6850.405750900203
 10
-6497.551687926413
 20
7531.658020678982
 10
-6746.9073250512565
 20
8462.265927582604
 10
-6497.551687926413
 20
9392.873834486225
 10
-5816.299418147633
 20
10074.126104265004
 10
-4885.691511244012
 20
10323.481741389847
 10
-3955.08360434039
 20
10074.126104265004
 10
-3273.831334561611
 20
9392.873834486225
 10
-3024.4756974367688
 20
8462.265927582604
 10
-3273.831334561612
 20
7531.658020678981
 10
-3388.806622087139
 20
7416.682733153454
 10
-162.85638370813382
 20
8281.073494350096
 10
-162.85638370813382
 20
2791.823720710865
 10
162.85638370813382
 20
2791.823720710865
 10
162.85638370813382
 20
8281.073494350096
 10
3388.8066220871424
 20
7416.682733153453
 10
3273.8313345616143
 20
7531.658020678981
 10
3024.475697436772
 20
8462.265927582603
 10
3273.8313345616143
 20
9392.873834486225
 10
3955.083604340394
 20
10074.126104265002
 10
4885.691511244016
 20
10323.481741389845
 10
5816.299418147638
 20
10074.126104265002
 10
6497.551687926417
 20
9392.873834486225
 10
6746.907325051258
 20
8462.265927582603
 10
6497.551687926415
 20
7531.65802067898
 10
5816.299418147638
 20
6850.405750900202
 10
4885.691511244016
 20
6601.05011377536
 10
4728.632347676723
 20
6643.133989817124
 10
7090.191824859088
 20
4281.574512634757
 10
2336.3620731695346
 20
1536.9496258151423
 10
2499.218456877668
 20
1254.8740948957222
 10
7253.048208567222
 20
3999.498981715338
 10
8117.438969763864
 20
773.5487433363297
 10
8159.522845805627
 20
930.6079069036217
 10
8840.775115584407
 20
1611.8601766824008
 10
9771.38302248803
 20
1861.2158138072436
 10
10701.990929391652
 20
1611.8601766824006
 10
11383.243199170429
 20
930.6079069036217
 10
11632.598836295272
 20
0.0
 10
11383.243199170429
 20
-930.6079069036225
 10
10701.990929391652
 20
-1611.8601766824006
 10
9771.38302248803
 20
-1861.2158138072436
 10
8840.775115584405
 20
-1611.8601766824004
 10
8159.522845805627
 20
-930.6079069036213
 10
8117.438969763864
 20
-773.5487433363288
 10
7253.048208567218
 20
-3999.498981715342
 10
2499.2184568776674
 20
-1254.8740948957238
 10
2336.362073169533
 20
-1536.9496258151437
 10
7090.1918248590855
 20
-4281.574512634762
 10
4728.632347676724
 20
-6643.133989817123
 10
4885.691511244016
 20
-6601.05011377536
 10
5816.299418147638
 20
-6850.405750900202
  0
LWPOLYLINE
  5
43
330
17
100
AcDbEntity
  8
TIER_03
100
AcDbPolyline
 90
24
 70
1
 10
-2094.3153637646055
 20
-5023.3724774678185
 10
-2024.5892714502397
 20
-4855.0387997512
 10
-2000.806999842789
 20
-4674.394512378961
 10
-2024.5892714502395
 20
-4493.750225006723
 10
-2094.315363764605
 20
-4325.416547290102
 10
-2205.233558822478
 20
-4180.865141180932
 10
-2349.7849649316477
 20
-4069.9469461230606
 10
-2518.1186426482673
 20
-4000.2208538086948
 10
-2698.7629300205053
 20
-3976.438582201244
 10
-2879.4072173927434
 20
-4000.2208538086948
 10
-3047.7408951093635
 20
-4069.9469461230606
 10
-3192.2923012185333
 20
-4180.865141180932
 10
-3303.2104962764056
 20
-4325.416547290102
 10
-3372.9365885907714
 20
-4493.750225006723
 10
-3396.718860198222
 20
-4674.394512378961
 10
-3372.9365885907714
 20
-4855.038799751199
 10
-3303.2104962764056
 20
-5023.3724774678185
 10
-3192.2923012185333
 20
-5167.923883576988
 10
-3047.740895109364
 20
-5278.842078634861
 10
-2879.4072173927434
 20
-5348.568170949226
 10
-2698.7629300205053
 20
-5372.350442556676
 10
-2518.1186426482677
 20
-5348.568170949226
 10
-2349.7849649316477
 20
-5278.842078634861
 10
-2205.233558822478
 20
-5167.923883576988
  0
LWPOLYLINE
  5
44
330
17
100
AcDbEntity
  8
TIER_03
100
AcDbPolyline
 90
24
 70
1
 10
789.646993916844
 20
-789.6469939168445
 10
967.1161060094399
 20
-558.3647441421735
 10
1078.677853712425
 20
-289.030859795582
 10
1116.729488284346
 20
0.0
 10
1078.6778537124253
 20
289.0308597955811
 10
967.1161060094404
 20
558.364744142173
 10
789.6469939168443
 20
789.6469939168443
 10
558.3647441421731
 20
967.1161060094403
 10
289.0308597955811
 20
1078.6778537124253
 10
6.837995966704429e-14
 20
1116.729488284346
 10
-289.03085979558097
 20
1078.6778537124253
 10
-558.3647441421728
 20
967.1161060094404
 10
-789.6469939168442
 20
789.6469939168443
 10
-967.1161060094404
 20
558.364744142173
 10
-1078.6778537124253
 20
289.03085979558136
 10
-1116.729488284346
 20
1.3675991933408859e-13
 10
-1078.6778537124253
 20
-289.03085979558114
 10
-967.1161060094405
 20
-558.3647441421726
 10
-789.6469939168447
 20
-789.6469939168438
 10
-558.3647441421735
 20
-967.1161060094402
 10
-289.03085979558097
 20
-1078.6778537124253
 10
-2.0513987900113288e-13
 20
-1116.729488284346
 10
289.03085979558057
 20
-1078.6778537124255
 10
558.3647441421731
 20
-967.1161060094403
  0
LWPOLYLINE
  5
45
330
17
100
AcDbEntity
  8
TIER_03
100
AcDbPolyline
 90
24
 70
1
 10
-4793.078293785105
 20
-348.9779650888578
 10
-4723.35220147074
 20
-180.6442873722381
 10
-4699.56992986329
 20
6.610062767814282e-13
 10
-4723.35220147074
 20
180.6442873722388
 10
-4793.078293785105
 20
348.9779650888587
 10
-4903.996488842978
 20
493.52937119802834
 10
-5048.5478949521475
 20
604.4475662559008
 10
-5216.881572668767
 20
674.1736585702665
 10
-5397.525860041006
 20
697.9559301777169
 10
-5578.170147413244
 20
674.1736585702665
 10
-5746.503825129864
 20
604.4475662559009
 10
-5891.055231239034
 20
493.52937119802834
 10
-6001.973426296906
 20
348.9779650888587
 10
-6071.699518611272
 20
180.644287372239
 10
-6095.4817902187215
 20
7.464812263652336e-13
 10
-6071.699518611272
 20
-180.64428737223756
 10
-6001.973426296906
 20
-348.9779650888573
 10
-5891.055231239034
 20
-493.52937119802675
 10
-5746.503825129864
 20
-604.4475662558993
 10
-5578.170147413244
 20
-674.1736585702653
 10
-5397.525860041006
 20
-697.9559301777156
 10
-5216.881572668767
 20
-674.1736585702653
 10
-5048.5478949521475
 20
-604.4475662558996
 10
-4903.996488842978
 20
-493.52937119802715
  0
LWPOLYLINE
  5
46
330
17
100
AcDbEntity
  8
TIER_03
100
AcDbPolyline
 90
24
 70
1
 10
-2205.233558822474
 20
4180.865141180934
 10
-2094.315363764602
 20
4325.416547290103
 10
-2024.589271450236
 20
4493.750225006723
 10
-2000.8069998427854
 20
4674.394512378962
 10
-2024.5892714502359
 20
4855.0387997512
 10
-2094.3153637646014
 20
5023.372477467819
 10
-2205.233558822474
 20
5167.923883576989
 10
-2349.7849649316436
 20
5278.8420786348615
 10
-2518.1186426482636
 20
5348.568170949227
 10
-2698.7629300205017
 20
5372.350442556677
 10
-2879.4072173927398
 20
5348.568170949227
 10
-3047.74089510936
 20
5278.8420786348615
 10
-3192.2923012185297
 20
5167.923883576989
 10
-3303.2104962764024
 20
5023.372477467819
 10
-3372.9365885907678
 20
4855.0387997512
 10
-3396.7188601982184
 20
4674.394512378962
 10
-3372.9365885907678
 20
4493.750225006724
 10
-3303.2104962764024
 20
4325.416547290103
 10
-3192.2923012185297
 20
4180.865141180934
 10
-3047.7408951093603
 20
4069.9469461230615
 10
-2879.4072173927398
 20
4000.2208538086957
 10
-2698.7629300205017
 20
3976.438582201245
 10
-2518.118642648264
 20
4000.2208538086957
 10
-2349.7849649316436
 20
4069.9469461230615
  0
LWPOLYLINE
  5
47
330
17
100
AcDbEntity
  8
TIER_03
100
AcDbPolyline
 90
24
 70
1
 10
3192.292301218531
 20
-5167.923883576989
 10
3303.2104962764033
 20
-5023.37247746782
 10
3372.936588590769
 20
-4855.038799751201
 10
3396.7188601982198
 20
-4674.394512378962
 10
3372.936588590769
 20
-4493.750225006724
 10
3303.2104962764033
 20
-4325.416547290103
 10
3192.292301218531
 20
-4180.865141180934
 10
3047.740895109361
 20
-4069.9469461230615
 10
2879.4072173927416
 20
-4000.2208538086957
 10
2698.7629300205035
 20
-3976.438582201245
 10
2518.118642648265
 20
-4000.2208538086957
 10
2349.7849649316454
 20
-4069.9469461230615
 10
2205.2335588224755
 20
-4180.865141180934
 10
2094.3153637646033
 20
-4325.416547290103
 10
2024.5892714502374
 20
-4493.750225006724
 10
2000.806999842787
 20
-4674.394512378962
 10
2024.5892714502374
 20
-4855.0387997512
 10
2094.3153637646033
 20
-5023.372477467819
 10
2205.2335588224755
 20
-5167.923883576989
 10
2349.784964931645
 20
-5278.8420786348615
 10
2518.118642648265
 20
-5348.568170949227
 10
2698.7629300205035
 20
-5372.350442556677
 10
2879.407217392741
 20
-5348.568170949227
 10
3047.740895109361
 20
-5278.8420786348615
  0
LWPOLYLINE
  5
48
330
17
100
AcDbEntity
  8
TIER_03
100
AcDbPolyline
 90
24
 70
1
 10
5891.055231239034
 20
-493.52937119802783
 10
6001.973426296906
 20
-348.97796508885847
 10
6071.699518611272
 20
-180.64428737223875
 10
6095.4817902187215
 20
0.0
 10
6071.699518611272
 20
180.64428737223818
 10
6001.973426296906
 20
348.97796508885807
 10
5891.055231239034
 20
493.52937119802766
 10
5746.503825129864
 20
604.4475662559001
 10
5578.170147413244
 20
674.173658570266
 10
5397.525860041006
 20
697.9559301777163
 10
5216.881572668767
 20
674.173658570266
 10
5048.5478949521475
 20
604.4475662559003
 10
4903.996488842978
 20
493.52937119802766
 10
4793.078293785105
 20
348.97796508885807
 10
4723.35220147074
 20
180.64428737223835
 10
4699.56992986329
 20
8.547494958380537e-14
 10
4723.35220147074
 20
-180.6442873722382
 10
4793.078293785105
 20
-348.97796508885796
 10
4903.996488842978
 20
-493.52937119802743
 10
5048.5478949521475
 20
-604.4475662559
 10
5216.881572668767
 20
-674.173658570266
 10
5397.525860041006
 20
-697.9559301777163
 10
5578.170147413244
 20
-674.173658570266
 10
5746.503825129864
 20
-604.4475662559001
  0
LWPOLYLINE
  5
49
330
17
100
AcDbEntity
  8
TIER_03
100
AcDbPolyline
 90
24
 70
1
 10
3192.292301218531
 20
4180.865141180934
 10
3303.2104962764033
 20
4325.416547290103
 10
3372.936588590769
 20
4493.750225006723
 10
3396.7188601982198
 20
4674.394512378962
 10
3372.936588590769
 20
4855.0387997512
 10
3303.2104962764033
 20
5023.372477467819
 10
3192.292301218531
 20
5167.923883576989
 10
3047.740895109361
 20
5278.8420786348615
 10
2879.4072173927416
 20
5348.568170949227
 10
2698.7629300205035
 20
5372.350442556677
 10
2518.118642648265
 20
5348.568170949227
 10
2349.7849649316454
 20
5278.8420786348615
 10
2205.2335588224755
 20
5167.923883576989
 10
2094.3153637646033
 20
5023.372477467819
 10
2024.5892714502374
 20
4855.0387997512
 10
2000.806999842787
 20
4674.394512378962
 10
2024.5892714502374
 20
4493.750225006724
 10
2094.3153637646033
 20
4325.416547290103
 10
2205.2335588224755
 20
4180.865141180934
 10
2349.784964931645
 20
4069.9469461230615
 10
2518.118642648265
 20
4000.2208538086957
 10
2698.7629300205035
 20
3976.438582201245
 10
2879.407217392741
 20
4000.2208538086957
 10
3047.740895109361
 20
4069.9469461230615
  0
LWPOLYLINE
  5
4B
330
17
100
AcDbEntity
  8
TIER_04
100
AcDbPolyline
 90
30
 70
1
 10
7834.026561752306
 20
0.0
 10
6828.103252896404
 20
-3754.156897168023
 10
2499.2184568776674
 20
-1254.8740948957238
 10
2336.362073169533
 20
-1536.9496258151437
 10
6665.2468691882705
 20
-4036.2324280874427
 10
3917.013280876154
 20
-6784.466016399559
 10
162.85638370813382
 20
-7790.389325255459
 10
162.85638370813382
 20
-2791.823720710865
 10
-162.85638370813382
 20
-2791.823720710865
 10
-162.85638370813382
 20
-7790.389325255459
 10
-3917.013280876157
 20
-6784.466016399558
 10
-6665.246869188271
 20
-4036.2324280874395
 10
-2336.362073169534
 20
-1536.9496258151428
 10
-2499.2184568776674
 20
-1254.874094895723
 10
-6828.103252896406
 20
-3754.156897168021
 10
-7834.026561752306
 20
9.593915553285308e-13
 10
-6828.103252896406
 20
3754.1568971680185
 10
-2499.218456877668
 20
1254.8740948957222
 10
-2336.3620731695346
 20
1536.9496258151423
 10
-6665.246869188273
 20
4036.2324280874386
 10
-3917.013280876152
 20
6784.466016399559
 10
-162.85638370813382
 20
7790.389325255459
 10
-162.85638370813382
 20
2791.823720710865
 10
162.85638370813382
 20
2791.823720710865
 10
162.85638370813382
 20
7790.389325255459
 10
3917.013280876154
 20
6784.466016399559
 10
6665.246869188273
 20
4036.2324280874386
 10
2336.3620731695346
 20
1536.9496258151423
 10
2499.218456877668
 20
1254.8740948957222
 10
6828.103252896406
 20
3754.1568971680185
  0
LWPOLYLINE
  5
4C
330
17
100
AcDbEntity
  8
TIER_04
100
AcDbPolyline
 90
24
 70
1
 10
-2094.3153637646055
 20
-5023.3724774678185
 10
-2024.5892714502397
 20
-4855.0387997512
 10
-2000.806999842789
 20
-4674.394512378961
 10
-2024.5892714502395
 20
-4493.750225006723
 10
-2094.315363764605
 20
-4325.416547290102
 10
-2205.233558822478
 20
-4180.865141180932
 10
-2349.7849649316477
 20
-4069.9469461230606
 10
-2518.1186426482673
 20
-4000.2208538086948
 10
-2698.7629300205053
 20
-3976.438582201244
 10
-2879.4072173927434
 20
-4000.2208538086948
 10
-3047.7408951093635
 20
-4069.9469461230606
 10
-3192.2923012185333
 20
-4180.865141180932
 10
-3303.2104962764056
 20
-4325.416547290102
 10
-3372.9365885907714
 20
-4493.750225006723
 10
-3396.718860198222
 20
-4674.394512378961
 10
-3372.9365885907714
 20
-4855.038799751199
 10
-3303.2104962764056
 20
-5023.3724774678185
 10
-3192.2923012185333
 20
-5167.923883576988
 10
-3047.740895109364
 20
-5278.842078634861
 10
-2879.4072173927434
 20
-5348.568170949226
 10
-2698.7629300205053
 20
-5372.350442556676
 10
-2518.1186426482677
 20
-5348.568170949226
 10
-2349.7849649316477
 20
-5278.842078634861
 10
-2205.233558822478
 20
-5167.923883576988
  0
LWPOLYLINE
  5
4D
330
17
100
AcDbEntity
  8
TIER_04
100
AcDbPolyline
 90
24
 70
1
 10
789.646993916844
 20
-789.6469939168445
 10
967.1161060094399
 20
-558.3647441421735
 10
1078.677853712425
 20
-289.030859795582
 10
1116.729488284346
 20
0.0
 10
1078.6778537124253
 20
289.0308597955811
 10
967.1161060094404
 20
558.364744142173
 10
789.6469939168443
 20
789.6469939168443
 10
558.3647441421731
 20
967.1161060094403
 10
289.0308597955811
 20
1078.6778537124253
 10
6.837995966704429e-14
 20
1116.729488284346
 10
-289.03085979558097
 20
1078.6778537124253
 10
-558.3647441421728
 20
967.1161060094404
 10
-789.6469939168442
 20
789.6469939168443
 10
-967.1161060094404
 20
558.364744142173
 10
-1078.6778537124253
 20
289.03085979558136
 10
-1116.729488284346
 20
1.3675991933408859e-13
 10
-1078.6778537124253
 20
-289.03085979558114
 10
-967.1161060094405
 20
-558.3647441421726
 10
-789.6469939168447
 20
-789.6469939168438
 10
-558.3647441421735
 20
-967.1161060094402
 10
-289.03085979558097
 20
-1078.6778537124253
 10
-2.0513987900113288e-13
 20
-1116.729488284346
 10
289.03085979558057
 20
-1078.6778537124255
 10
558.3647441421731
 20
-967.1161060094403
  0
LWPOLYLINE
  5
4E
330
17
100
AcDbEntity
  8
TIER_04
100
AcDbPolyline
 90
24
 70
1
 10
-4793.078293785105
 20
-348.9779650888578
 10
-4723.35220147074
 20
-180.6442873722381
 10
-4699.56992986329
 20
6.610062767814282e-13
 10
-4723.35220147074
 20
180.6442873722388
 10
-4793.078293785105
 20
348.9779650888587
 10
-4903.996488842978
 20
493.52937119802834
 10
-5048.5478949521475
 20
604.4475662559008
 10
-5216.881572668767
 20
674.1736585702665
 10
-5397.525860041006
 20
697.9559301777169
 10
-5578.170147413244
 20
674.1736585702665
 10
-5746.503825129864
 20
604.4475662559009
 10
-5891.055231239034
 20
493.52937119802834
 10
-6001.973426296906
 20
348.9779650888587
 10
-6071.699518611272
 20
180.644287372239
 10
-6095.4817902187215
 20
7.464812263652336e-13
 10
-6071.699518611272
 20
-180.64428737223756
 10
-6001.973426296906
 20
-348.9779650888573
 10
-5891.055231239034
 20
-493.52937119802675
 10
-5746.503825129864
 20
-604.4475662558993
 10
-5578.170147413244
 20
-674.1736585702653
 10
-5397.525860041006
 20
-697.9559301777156
 10
-5216.881572668767
 20
-674.1736585702653
 10
-5048.5478949521475
 20
-604.4475662558996
 10
-4903.996488842978
 20
-493.52937119802715
  0
LWPOLYLINE
  5
4F
330
17
100
AcDbEntity
  8
TIER_04
100
AcDbPolyline
 90
24
 70
1
 10
-2205.233558822474
 20
4180.865141180934
 10
-2094.315363764602
 20
4325.416547290103
 10
-2024.589271450236
 20
4493.750225006723
 10
-2000.8069998427854
 20
4674.394512378962
 10
-2024.5892714502359
 20
4855.0387997512
 10
-2094.3153637646014
 20
5023.372477467819
 10
-2205.233558822474
 20
5167.923883576989
 10
-2349.7849649316436
 20
5278.8420786348615
 10
-2518.1186426482636
 20
5348.568170949227
 10
-2698.7629300205017
 20
5372.350442556677
 10
-2879.4072173927398
 20
5348.568170949227
 10
-3047.74089510936
 20
5278.8420786348615
 10
-3192.2923012185297
 20
5167.923883576989
 10
-3303.2104962764024
 20
5023.372477467819
 10
-3372.9365885907678
 20
4855.0387997512
 10
-3396.7188601982184
 20
4674.394512378962
 10
-3372.9365885907678
 20
4493.750225006724
 10
-3303.2104962764024
 20
4325.416547290103
 10
-3192.2923012185297
 20
4180.865141180934
 10
-3047.7408951093603
 20
4069.9469461230615
 10
-2879.4072173927398
 20
4000.2208538086957
 10
-2698.7629300205017
 20
3976.438582201245
 10
-2518.118642648264
 20
4000.2208538086957
 10
-2349.7849649316436
 20
4069.9469461230615
  0
LWPOLYLINE
  5
50
330
17
100
AcDbEntity
  8
TIER_04
100
AcDbPolyline
 90
24
 70
1
 10
3192.292301218531
 20
-5167.923883576989
 10
3303.2104962764033
 20
-5023.37247746782
 10
3372.936588590769
 20
-4855.038799751201
 10
3396.7188601982198
 20
-4674.394512378962
 10
3372.936588590769
 20
-4493.750225006724
 10
3303.2104962764033
 20
-4325.416547290103
 10
3192.292301218531
 20
-4180.865141180934
 10
3047.740895109361
 20
-4069.9469461230615
 10
2879.4072173927416
 20
-4000.2208538086957
 10
2698.7629300205035
 20
-3976.438582201245
 10
2518.118642648265
 20
-4000.2208538086957
 10
2349.7849649316454
 20
-4069.9469461230615
 10
2205.2335588224755
 20
-4180.865141180934
 10
2094.3153637646033
 20
-4325.416547290103
 10
2024.5892714502374
 20
-4493.750225006724
 10
2000.806999842787
 20
-4674.394512378962
 10
2024.5892714502374
 20
-4855.0387997512
 10
2094.3153637646033
 20
-5023.372477467819
 10
2205.2335588224755
 20
-5167.923883576989
 10
2349.784964931645
 20
-5278.8420786348615
 10
2518.118642648265
 20
-5348.568170949227
 10
2698.7629300205035
 20
-5372.350442556677
 10
2879.407217392741
 20
-5348.568170949227
 10
3047.740895109361
 20
-5278.8420786348615
  0
LWPOLYLINE
  5
51
330
17
100
AcDbEntity
  8
TIER_04
100
AcDbPolyline
 90
24
 70
1
 10
5891.055231239034
 20
-493.52937119802783
 10
6001.973426296906
 20
-348.97796508885847
 10
6071.699518611272
 20
-180.64428737223875
 10
6095.4817902187215
 20
0.0
 10
6071.699518611272
 20
180.64428737223818
 10
6001.973426296906
 20
348.97796508885807
 10
5891.055231239034
 20
493.52937119802766
 10
5746.503825129864
 20
604.4475662559001
 10
5578.170147413244
 20
674.173658570266
 10
5397.525860041006
 20
697.9559301777163
 10
5216.881572668767
 20
674.173658570266
 10
5048.5478949521475
 20
604.4475662559003
 10
4903.996488842978
 20
493.52937119802766
 10
4793.078293785105
 20
348.97796508885807
 10
4723.35220147074
 20
180.64428737223835
 10
4699.56992986329
 20
8.547494958380537e-14
 10
4723.35220147074
 20
-180.6442873722382
 10
4793.078293785105
 20
-348.97796508885796
 10
4903.996488842978
 20
-493.52937119802743
 10
5048.5478949521475
 20
-604.4475662559
 10
5216.881572668767
 20
-674.173658570266
 10
5397.525860041006
 20
-697.9559301777163
 10
5578.170147413244
 20
-674.173658570266
 10
5746.503825129864
 20
-604.4475662559001
  0
LWPOLYLINE
  5
52
330
17
100
AcDbEntity
  8
TIER_04
100
AcDbPolyline
 90
24
 70
1
 10
3192.292301218531
 20
4180.865141180934
 10
3303.2104962764033
 20
4325.416547290103
 10
3372.936588590769
 20
4493.750225006723
 10
3396.7188601982198
 20
4674.394512378962
 10
3372.936588590769
 20
4855.0387997512
 10
3303.2104962764033
 20
5023.372477467819
 10
3192.292301218531
 20
5167.923883576989
 10
3047.740895109361
 20
5278.8420786348615
 10
2879.4072173927416
 20
5348.568170949227
 10
2698.7629300205035
 20
5372.350442556677
 10
2518.118642648265
 20
5348.568170949227
 10
2349.7849649316454
 20
5278.8420786348615
 10
2205.2335588224755
 20
5167.923883576989
 10
2094.3153637646033
 20
5023.372477467819
 10
2024.5892714502374
 20
4855.0387997512
 10
2000.806999842787
 20
4674.394512378962
 10
2024.5892714502374
 20
4493.750225006724
 10
2094.3153637646033
 20
4325.416547290103
 10
2205.2335588224755
 20
4180.865141180934
 10
2349.784964931645
 20
4069.9469461230615
 10
2518.118642648265
 20
4000.2208538086957
 10
2698.7629300205035
 20
3976.438582201245
 10
2879.407217392741
 20
4000.2208538086957
 10
3047.740895109361
 20
4069.9469461230615
  0
LWPOLYLINE
  5
54
330
17
100
AcDbEntity
  8
TIER_05
100
AcDbPolyline
 90
30
 70
1
 10
7343.34239265767
 20
0.0
 10
6403.158297225589
 20
-3508.8148126207043
 10
2499.2184568776674
 20
-1254.8740948957238
 10
2336.362073169533
 20
-1536.9496258151437
 10
6240.301913517456
 20
-3790.8903435401244
 10
3671.671196328836
 20
-6359.521060728744
 10
162.85638370813382
 20
-7299.705156160822
 10
162.85638370813382
 20
-2791.823720710865
 10
-162.85638370813382
 20
-2791.823720710865
 10
-162.85638370813382
 20
-7299.705156160822
 10
-3671.6711963288376
 20
-6359.521060728744
 10
-6240.301913517457
 20
-3790.890343540121
 10
-2336.362073169534
 20
-1536.9496258151428
 10
-2499.2184568776674
 20
-1254.874094895723
 10
-6403.158297225592
 20
-3508.8148126207025
 10
-7343.34239265767
 20
8.993000756211281e-13
 10
-6403.158297225592
 20
3508.8148126207006
 10
-2499.218456877668
 20
1254.8740948957222
 10
-2336.3620731695346
 20
1536.9496258151423
 10
-6240.301913517458
 20
3790.8903435401203
 10
-3671.671196328833
 20
6359.5210607287445
 10
-162.85638370813382
 20
7299.705156160822
 10
-162.85638370813382
 20
2791.823720710865
 10
162.85638370813382
 20
2791.823720710865
 10
162.85638370813382
 20
7299.705156160822
 10
3671.671196328836
 20
6359.521060728744
 10
6240.301913517458
 20
3790.8903435401203
 10
2336.3620731695346
 20
1536.9496258151423
 10
2499.218456877668
 20
1254.8740948957222
 10
6403.158297225592
 20
3508.8148126207006
  0
LWPOLYLINE
  5
55
330
17
100
AcDbEntity
  8
TIER_05
100
AcDbPolyline
 90
24
 70
1
 10
-2094.3153637646055
 20
-5023.3724774678185
 10
-2024.5892714502397
 20
-4855.0387997512
 10
-2000.806999842789
 20
-4674.394512378961
 10
-2024.5892714502395
 20
-4493.750225006723
 10
-2094.315363764605
 20
-4325.416547290102
 10
-2205.233558822478
 20
-4180.865141180932
 10
-2349.7849649316477
 20
-4069.9469461230606
 10
-2518.1186426482673
 20
-4000.2208538086948
 10
-2698.7629300205053
 20
-3976.438582201244
 10
-2879.4072173927434
 20
-4000.2208538086948
 10
-3047.7408951093635
 20
-4069.9469461230606
 10
-3192.2923012185333
 20
-4180.865141180932
 10
-3303.2104962764056
 20
-4325.416547290102
 10
-3372.9365885907714
 20
-4493.750225006723
 10
-3396.718860198222
 20
-4674.394512378961
 10
-3372.9365885907714
 20
-4855.038799751199
 10
-3303.2104962764056
 20
-5023.3724774678185
 10
-3192.2923012185333
 20
-5167.923883576988
 10
-3047.740895109364
 20
-5278.842078634861
 10
-2879.4072173927434
 20
-5348.568170949226
 10
-2698.7629300205053
 20
-5372.350442556676
 10
-2518.1186426482677
 20
-5348.568170949226
 10
-2349.7849649316477
 20
-5278.842078634861
 10
-2205.233558822478
 20
-5167.923883576988
  0
LWPOLYLINE
  5
56
330
17
100
AcDbEntity
  8
TIER_05
100
AcDbPolyline
 90
24
 70
1
 10
789.646993916844
 20
-789.6469939168445
 10
967.1161060094399
 20
-558.3647441421735
 10
1078.677853712425
 20
-289.030859795582
 10
1116.729488284346
 20
0.0
 10
1078.6778537124253
 20
289.0308597955811
 10
967.1161060094404
 20
558.364744142173
 10
789.6469939168443
 20
789.6469939168443
 10
558.3647441421731
 20
967.1161060094403
 10
289.0308597955811
 20
1078.6778537124253
 10
6.837995966704429e-14
 20
1116.729488284346
 10
-289.03085979558097
 20
1078.6778537124253
 10
-558.3647441421728
 20
967.1161060094404
 10
-789.6469939168442
 20
789.6469939168443
 10
-967.1161060094404
 20
558.364744142173
 10
-1078.6778537124253
 20
289.03085979558136
 10
-1116.729488284346
 20
1.3675991933408859e-13
 10
-1078.6778537124253
 20
-289.03085979558114
 10
-967.1161060094405
 20
-558.3647441421726
 10
-789.6469939168447
 20
-789.6469939168438
 10
-558.3647441421735
 20
-967.1161060094402
 10
-289.03085979558097
 20
-1078.6778537124253
 10
-2.0513987900113288e-13
 20
-1116.729488284346
 10
289.03085979558057
 20
-1078.6778537124255
 10
558.3647441421731
 20
-967.1161060094403
  0
LWPOLYLINE
  5
57
330
17
100
AcDbEntity
  8
TIER_05
100
AcDbPolyline
 90
24
 70
1
 10
-4793.078293785105
 20
-348.9779650888578
 10
-4723.35220147074
 20
-180.6442873722381
 10
-4699.56992986329
 20
6.610062767814282e-13
 10
-4723.35220147074
 20
180.6442873722388
 10
-4793.078293785105
 20
348.9779650888587
 10
-4903.996488842978
 20
493.52937119802834
 10
-5048.5478949521475
 20
604.4475662559008
 10
-5216.881572668767
 20
674.1736585702665
 10
-5397.525860041006
 20
697.9559301777169
 10
-5578.170147413244
 20
674.1736585702665
 10
-5746.503825129864
 20
604.4475662559009
 10
-5891.055231239034
 20
493.52937119802834
 10
-6001.973426296906
 20
348.9779650888587
 10
-6071.699518611272
 20
180.644287372239
 10
-6095.4817902187215
 20
7.464812263652336e-13
 10
-6071.699518611272
 20
-180.64428737223756
 10
-6001.973426296906
 20
-348.9779650888573
 10
-5891.055231239034
 20
-493.52937119802675
 10
-5746.503825129864
 20
-604.4475662558993
 10
-5578.170147413244
 20
-674.1736585702653
 10
-5397.525860041006
 20
-697.9559301777156
 10
-5216.881572668767
 20
-674.1736585702653
 10
-5048.5478949521475
 20
-604.4475662558996
 10
-4903.996488842978
 20
-493.52937119802715
  0
LWPOLYLINE
  5
58
330
17
100
AcDbEntity
  8
TIER_05
100
AcDbPolyline
 90
24
 70
1
 10
-2205.233558822474
 20
4180.865141180934
 10
-2094.315363764602
 20
4325.416547290103
 10
-2024.589271450236
 20
4493.750225006723
 10
-2000.8069998427854
 20
4674.394512378962
 10
-2024.5892714502359
 20
4855.0387997512
 10
-2094.3153637646014
 20
5023.372477467819
 10
-2205.233558822474
 20
5167.923883576989
 10
-2349.7849649316436
 20
5278.8420786348615
 10
-2518.1186426482636
 20
5348.568170949227
 10
-2698.7629300205017
 20
5372.350442556677
 10
-2879.4072173927398
 20
5348.568170949227
 10
-3047.74089510936
 20
5278.8420786348615
 10
-3192.2923012185297
 20
5167.923883576989
 10
-3303.2104962764024
 20
5023.372477467819
 10
-3372.9365885907678
 20
4855.0387997512
 10
-3396.7188601982184
 20
4674.394512378962
 10
-3372.9365885907678
 20
4493.750225006724
 10
-3303.2104962764024
 20
4325.416547290103
 10
-3192.2923012185297
 20
4180.865141180934
 10
-3047.7408951093603
 20
4069.9469461230615
 10
-2879.4072173927398
 20
4000.2208538086957
 10
-2698.7629300205017
 20
3976.438582201245
 10
-2518.118642648264
 20
4000.2208538086957
 10
-2349.7849649316436
 20
4069.9469461230615
  0
LWPOLYLINE
  5
59
330
17
100
AcDbEntity
  8
TIER_05
100
AcDbPolyline
 90
24
 70
1
 10
3192.292301218531
 20
-5167.923883576989
 10
3303.2104962764033
 20
-5023.37247746782
 10
3372.936588590769
 20
-4855.038799751201
 10
3396.7188601982198
 20
-4674.394512378962
 10
3372.936588590769
 20
-4493.750225006724
 10
3303.2104962764033
 20
-4325.416547290103
 10
3192.292301218531
 20
-4180.865141180934
 10
3047.740895109361
 20
-4069.9469461230615
 10
2879.4072173927416
 20
-4000.2208538086957
 10
2698.7629300205035
 20
-3976.438582201245
 10
2518.118642648265
 20
-4000.2208538086957
 10
2349.7849649316454
 20
-4069.9469461230615
 10
2205.2335588224755
 20
-4180.865141180934
 10
2094.3153637646033
 20
-4325.416547290103
 10
2024.5892714502374
 20
-4493.750225006724
 10
2000.806999842787
 20
-4674.394512378962
 10
2024.5892714502374
 20
-4855.0387997512
 10
2094.3153637646033
 20
-5023.372477467819
 10
2205.2335588224755
 20
-5167.923883576989
 10
2349.784964931645
 20
-5278.8420786348615
 10
2518.118642648265
 20
-5348.568170949227
 10
2698.7629300205035
 20
-5372.350442556677
 10
2879.407217392741
 20
-5348.568170949227
 10
3047.740895109361
 20
-5278.8420786348615
  0
LWPOLYLINE
  5
5A
330
17
100
AcDbEntity
  8
TIER_05
100
AcDbPolyline
 90
24
 70
1
 10
5891.055231239034
 20
-493.52937119802783
 10
6001.973426296906
 20
-348.97796508885847
 10
6071.699518611272
 20
-180.64428737223875
 10
6095.4817902187215
 20
0.0
 10
6071.699518611272
 20
180.64428737223818
 10
6001.973426296906
 20
348.97796508885807
 10
5891.055231239034
 20
493.52937119802766
 10
5746.503825129864
 20
604.4475662559001
 10
5578.170147413244
 20
674.173658570266
 10
5397.525860041006
 20
697.9559301777163
 10
5216.881572668767
 20
674.173658570266
 10
5048.5478949521475
 20
604.4475662559003
 10
4903.996488842978
 20
493.52937119802766
 10
4793.078293785105
 20
348.97796508885807
 10
4723.35220147074
 20
180.64428737223835
 10
4699.56992986329
 20
8.547494958380537e-14
 10
4723.35220147074
 20
-180.6442873722382
 10
4793.078293785105
 20
-348.97796508885796
 10
4903.996488842978
 20
-493.52937119802743
 10
5048.5478949521475
 20
-604.4475662559
 10
5216.881572668767
 20
-674.173658570266
 10
5397.525860041006
 20
-697.9559301777163
 10
5578.170147413244
 20
-674.173658570266
 10
5746.503825129864
 20
-604.4475662559001
  0
LWPOLYLINE
  5
5B
330
17
100
AcDbEntity
  8
TIER_05
100
AcDbPolyline
 90
24
 70
1
 10
3192.292301218531
 20
4180.865141180934
 10
3303.2104962764033
 20
4325.416547290103
 10
3372.936588590769
 20
4493.750225006723
 10
3396.7188601982198
 20
4674.394512378962
 10
3372.936588590769
 20
4855.0387997512
 10
3303.2104962764033
 20
5023.372477467819
 10
3192.292301218531
 20
5167.923883576989
 10
3047.740895109361
 20
5278.8420786348615
 10
2879.4072173927416
 20
5348.568170949227
 10
2698.7629300205035
 20
5372.350442556677
 10
2518.118642648265
 20
5348.568170949227
 10
2349.7849649316454
 20
5278.8420786348615
 10
2205.2335588224755
 20
5167.923883576989
 10
2094.3153637646033
 20
5023.372477467819
 10
2024.5892714502374
 20
4855.0387997512
 10
2000.806999842787
 20
4674.394512378962
 10
2024.5892714502374
 20
4493.750225006724
 10
2094.3153637646033
 20
4325.416547290103
 10
2205.2335588224755
 20
4180.865141180934
 10
2349.784964931645
 20
4069.9469461230615
 10
2518.118642648265
 20
4000.2208538086957
 10
2698.7629300205035
 20
3976.438582201245
 10
2879.407217392741
 20
4000.2208538086957
 10
3047.740895109361
 20
4069.9469461230615
  0
LWPOLYLINE
  5
5D
330
17
100
AcDbEntity
  8
TIER_06
100
AcDbPolyline
 90
30
 70
1
 10
6852.658223563032
 20
0.0
 10
5978.213341554775
 20
-3263.4727280733855
 10
2499.2184568776674
 20
-1254.8740948957238
 10
2336.362073169533
 20
-1536.9496258151437
 10
5815.356957846641
 20
-3545.5482589928056
 10
3426.3291117815165
 20
-5934.5761050579285
 10
162.85638370813382
 20
-6809.020987066185
 10
162.85638370813382
 20
-2791.823720710865
 10
-162.85638370813382
 20
-2791.823720710865
 10
-162.85638370813382
 20
-6809.020987066185
 10
-3426.3291117815193
 20
-5934.5761050579285
 10
-5815.356957846642
 20
-3545.548258992803
 10
-2336.362073169534
 20
-1536.9496258151428
 10
-2499.2184568776674
 20
-1254.874094895723
 10
-5978.213341554777
 20
-3263.4727280733837
 10
-6852.658223563032
 20
8.392085959137255e-13
 10
-5978.213341554777
 20
3263.4727280733823
 10
-2499.218456877668
 20
1254.8740948957222
 10
-2336.3620731695346
 20
1536.9496258151423
 10
-5815.356957846644
 20
3545.5482589928024
 10
-3426.3291117815147
 20
5934.576105057929
 10
-162.85638370813382
 20
6809.020987066185
 10
-162.85638370813382
 20
2791.823720710865
 10
162.85638370813382
 20
2791.823720710865
 10
162.85638370813382
 20
6809.020987066185
 10
3426.3291117815165
 20
5934.5761050579285
 10
5815.356957846644
 20
3545.5482589928024
 10
2336.3620731695346
 20
1536.9496258151423
 10
2499.218456877668
 20
1254.8740948957222
 10
5978.213341554777
 20
3263.4727280733823
  0
LWPOLYLINE
  5
5E
330
17
100
AcDbEntity
  8
TIER_06
100
AcDbPolyline
 90
24
 70
1
 10
-2094.3153637646055
 20
-5023.3724774678185
 10
-2024.5892714502397
 20
-4855.0387997512
 10
-2000.806999842789
 20
-4674.394512378961
 10
-2024.5892714502395
 20
-4493.750225006723
 10
-2094.315363764605
 20
-4325.416547290102
 10
-2205.233558822478
 20
-4180.865141180932
 10
-2349.7849649316477
 20
-4069.9469461230606
 10
-2518.1186426482673
 20
-4000.2208538086948
 10
-2698.7629300205053
 20
-3976.438582201244
 10
-2879.4072173927434
 20
-4000.2208538086948
 10
-3047.7408951093635
 20
-4069.9469461230606
 10
-3192.2923012185333
 20
-4180.865141180932
 10
-3303.2104962764056
 20
-4325.416547290102
 10
-3372.9365885907714
 20
-4493.750225006723
 10
-3396.718860198222
 20
-4674.394512378961
 10
-3372.9365885907714
 20
-4855.038799751199
 10
-3303.2104962764056
 20
-5023.3724774678185
 10
-3192.2923012185333
 20
-5167.923883576988
 10
-3047.740895109364
 20
-5278.842078634861
 10
-2879.4072173927434
 20
-5348.568170949226
 10
-2698.7629300205053
 20
-5372.350442556676
 10
-2518.1186426482677
 20
-5348.568170949226
 10
-2349.7849649316477
 20
-5278.842078634861
 10
-2205.233558822478
 20
-5167.923883576988
  0
LWPOLYLINE
  5
5F
330
17
100
AcDbEntity
  8
TIER_06
100
AcDbPolyline
 90
24
 70
1
 10
789.646993916844
 20
-789.6469939168445
 10
967.1161060094399
 20
-558.3647441421735
 10
1078.677853712425
 20
-289.030859795582
 10
1116.729488284346
 20
0.0
 10
1078.6778537124253
 20
289.0308597955811
 10
967.1161060094404
 20
558.364744142173
 10
789.6469939168443
 20
789.6469939168443
 10
558.3647441421731
 20
967.1161060094403
 10
289.0308597955811
 20
1078.6778537124253
 10
6.837995966704429e-14
 20
1116.729488284346
 10
-289.03085979558097
 20
1078.6778537124253
 10
-558.3647441421728
 20
967.1161060094404
 10
-789.6469939168442
 20
789.6469939168443
 10
-967.1161060094404
 20
558.364744142173
 10
-1078.6778537124253
 20
289.03085979558136
 10
-1116.729488284346
 20
1.3675991933408859e-13
 10
-1078.6778537124253
 20
-289.03085979558114
 10
-967.1161060094405
 20
-558.3647441421726
 10
-789.6469939168447
 20
-789.6469939168438
 10
-558.3647441421735
 20
-967.1161060094402
 10
-289.03085979558097
 20
-1078.6778537124253
 10
-2.0513987900113288e-13
 20
-1116.729488284346
 10
289.03085979558057
 20
-1078.6778537124255
 10
558.3647441421731
 20
-967.1161060094403
  0
LWPOLYLINE
  5
60
330
17
100
AcDbEntity
  8
TIER_06
100
AcDbPolyline
 90
24
 70
1
 10
-4793.078293785105
 20
-348.9779650888578
 10
-4723.35220147074
 20
-180.6442873722381
 10
-4699.56992986329
 20
6.610062767814282e-13
 10
-4723.35220147074
 20
180.6442873722388
 10
-4793.078293785105
 20
348.9779650888587
 10
-4903.996488842978
 20
493.52937119802834
 10
-5048.5478949521475
 20
604.4475662559008
 10
-5216.881572668767
 20
674.1736585702665
 10
-5397.525860041006
 20
697.9559301777169
 10
-5578.170147413244
 20
674.1736585702665
 10
-5746.503825129864
 20
604.4475662559009
 10
-5891.055231239034
 20
493.52937119802834
 10
-6001.973426296906
 20
348.9779650888587
 10
-6071.699518611272
 20
180.644287372239
 10
-6095.4817902187215
 20
7.464812263652336e-13
 10
-6071.699518611272
 20
-180.64428737223756
 10
-6001.973426296906
 20
-348.9779650888573
 10
-5891.055231239034
 20
-493.52937119802675
 10
-5746.503825129864
 20
-604.4475662558993
 10
-5578.170147413244
 20
-674.1736585702653
 10
-5397.525860041006
 20
-697.9559301777156
 10
-5216.881572668767
 20
-674.1736585702653
 10
-5048.5478949521475
 20
-604.4475662558996
 10
-4903.996488842978
 20
-493.52937119802715
  0
LWPOLYLINE
  5
61
330
17
100
AcDbEntity
  8
TIER_06
100
AcDbPolyline
 90
24
 70
1
 10
-2205.233558822474
 20
4180.865141180934
 10
-2094.315363764602
 20
4325.416547290103
 10
-2024.589271450236
 20
4493.750225006723
 10
-2000.8069998427854
 20
4674.394512378962
 10
-2024.5892714502359
 20
4855.0387997512
 10
-2094.3153637646014
 20
5023.372477467819
 10
-2205.233558822474
 20
5167.923883576989
 10
-2349.7849649316436
 20
5278.8420786348615
 10
-2518.1186426482636
 20
5348.568170949227
 10
-2698.7629300205017
 20
5372.350442556677
 10
-2879.4072173927398
 20
5348.568170949227
 10
-3047.74089510936
 20
5278.8420786348615
 10
-3192.2923012185297
 20
5167.923883576989
 10
-3303.2104962764024
 20
5023.372477467819
 10
-3372.9365885907678
 20
4855.0387997512
 10
-3396.7188601982184
 20
4674.394512378962
 10
-3372.9365885907678
 20
4493.750225006724
 10
-3303.2104962764024
 20
4325.416547290103
 10
-3192.2923012185297
 20
4180.865141180934
 10
-3047.7408951093603
 20
4069.9469461230615
 10
-2879.4072173927398
 20
4000.2208538086957
 10
-2698.7629300205017
 20
3976.438582201245
 10
-2518.118642648264
 20
4000.2208538086957
 10
-2349.7849649316436
 20
4069.9469461230615
  0
LWPOLYLINE
  5
62
330
17
100
AcDbEntity
  8
TIER_06
100
AcDbPolyline
 90
24
 70
1
 10
3192.292301218531
 20
-5167.923883576989
 10
3303.2104962764033
 20
-5023.37247746782
 10
3372.936588590769
 20
-4855.038799751201
 10
3396.7188601982198
 20
-4674.394512378962
 10
3372.936588590769
 20
-4493.750225006724
 10
3303.2104962764033
 20
-4325.416547290103
 10
3192.292301218531
 20
-4180.865141180934
 10
3047.740895109361
 20
-4069.9469461230615
 10
2879.4072173927416
 20
-4000.2208538086957
 10
2698.7629300205035
 20
-3976.438582201245
 10
2518.118642648265
 20
-4000.2208538086957
 10
2349.7849649316454
 20
-4069.9469461230615
 10
2205.2335588224755
 20
-4180.865141180934
 10
2094.3153637646033
 20
-4325.416547290103
 10
2024.5892714502374
 20
-4493.750225006724
 10
2000.806999842787
 20
-4674.394512378962
 10
2024.5892714502374
 20
-4855.0387997512
 10
2094.3153637646033
 20
-5023.372477467819
 10
2205.2335588224755
 20
-5167.923883576989
 10
2349.784964931645
 20
-5278.8420786348615
 10
2518.118642648265
 20
-5348.568170949227
 10
2698.7629300205035
 20
-5372.350442556677
 10
2879.407217392741
 20
-5348.568170949227
 10
3047.740895109361
 20
-5278.8420786348615
  0
LWPOLYLINE
  5
63
330
17
100
AcDbEntity
  8
TIER_06
100
AcDbPolyline
 90
24
 70
1
 10
5891.055231239034
 20
-493.52937119802783
 10
6001.973426296906
 20
-348.97796508885847
 10
6071.699518611272
 20
-180.64428737223875
 10
6095.4817902187215
 20
0.0
 10
6071.699518611272
 20
180.64428737223818
 10
6001.973426296906
 20
348.97796508885807
 10
5891.055231239034
 20
493.52937119802766
 10
5746.503825129864
 20
604.4475662559001
 10
5578.170147413244
 20
674.173658570266
 10
5397.525860041006
 20
697.9559301777163
 10
5216.881572668767
 20
674.173658570266
 10
5048.5478949521475
 20
604.4475662559003
 10
4903.996488842978
 20
493.52937119802766
 10
4793.078293785105
 20
348.97796508885807
 10
4723.35220147074
 20
180.64428737223835
 10
4699.56992986329
 20
8.547494958380537e-14
 10
4723.35220147074
 20
-180.6442873722382
 10
4793.078293785105
 20
-348.97796508885796
 10
4903.996488842978
 20
-493.52937119802743
 10
5048.5478949521475
 20
-604.4475662559
 10
5216.881572668767
 20
-674.173658570266
 10
5397.525860041006
 20
-697.9559301777163
 10
5578.170147413244
 20
-674.173658570266
 10
5746.503825129864
 20
-604.4475662559001
  0
LWPOLYLINE
  5
64
330
17
100
AcDbEntity
  8
TIER_06
100
AcDbPolyline
 90
24
 70
1
 10
3192.292301218531
 20
4180.865141180934
 10
3303.2104962764033
 20
4325.416547290103
 10
3372.936588590769
 20
4493.750225006723
 10
3396.7188601982198
 20
4674.394512378962
 10
3372.936588590769
 20
4855.0387997512
 10
3303.2104962764033
 20
5023.372477467819
 10
3192.292301218531
 20
5167.923883576989
 10
3047.740895109361
 20
5278.8420786348615
 10
2879.4072173927416
 20
5348.568170949227
 10
2698.7629300205035
 20
5372.350442556677
 10
2518.118642648265
 20
5348.568170949227
 10
2349.7849649316454
 20
5278.8420786348615
 10
2205.2335588224755
 20
5167.923883576989
 10
2094.3153637646033
 20
5023.372477467819
 10
2024.5892714502374
 20
4855.0387997512
 10
2000.806999842787
 20
4674.394512378962
 10
2024.5892714502374
 20
4493.750225006724
 10
2094.3153637646033
 20
4325.416547290103
 10
2205.2335588224755
 20
4180.865141180934
 10
2349.784964931645
 20
4069.9469461230615
 10
2518.118642648265
 20
4000.2208538086957
 10
2698.7629300205035
 20
3976.438582201245
 10
2879.407217392741
 20
4000.2208538086957
 10
3047.740895109361
 20
4069.9469461230615
  0
LWPOLYLINE
  5
66
330
17
100
AcDbEntity
  8
TIER_07
100
AcDbPolyline
 90
30
 70
1
 10
6361.9740544683955
 20
0.0
 10
5553.26838588396
 20
-3018.1306435260667
 10
2499.2184568776674
 20
-1254.8740948957238
 10
2336.362073169533
 20
-1536.9496258151437
 10
5390.412002175826
 20
-3300.206174445487
 10
3180.987027234198
 20
-5509.631149387114
 10
162.85638370813382
 20
-6318.336817971548
 10
162.85638370813382
 20
-2791.823720710865
 10
-162.85638370813382
 20
-2791.823720710865
 10
-162.85638370813382
 20
-6318.336817971548
 10
-3180.9870272342005
 20
-5509.631149387113
 10
-5390.412002175828
 20
-3300.2061744454845
 10
-2336.362073169534
 20
-1536.9496258151428
 10
-2499.2184568776674
 20
-1254.874094895723
 10
-5553.268385883963
 20
-3018.1306435260653
 10
-6361.9740544683955
 20
7.79117116206323e-13
 10
-5553.268385883963
 20
3018.130643526064
 10
-2499.218456877668
 20
1254.8740948957222
 10
-2336.3620731695346
 20
1536.9496258151423
 10
-5390.412002175829
 20
3300.2061744454836
 10
-3180.9870272341964
 20
5509.631149387115
 10
-162.85638370813382
 20
6318.336817971548
 10
-162.85638370813382
 20
2791.823720710865
 10
162.85638370813382
 20
2791.823720710865
 10
162.85638370813382
 20
6318.336817971548
 10
3180.987027234198
 20
5509.631149387114
 10
5390.412002175829
 20
3300.2061744454836
 10
2336.3620731695346
 20
1536.9496258151423
 10
2499.218456877668
 20
1254.8740948957222
 10
5553.268385883963
 20
3018.130643526064
  0
LWPOLYLINE
  5
67
330
17
100
AcDbEntity
  8
TIER_07
100
AcDbPolyline
 90
24
 70
1
 10
-2094.3153637646055
 20
-5023.3724774678185
 10
-2024.5892714502397
 20
-4855.0387997512
 10
-2000.806999842789
 20
-4674.394512378961
 10
-2024.5892714502395
 20
-4493.750225006723
 10
-2094.315363764605
 20
-4325.416547290102
 10
-2205.233558822478
 20
-4180.865141180932
 10
-2349.7849649316477
 20
-4069.9469461230606
 10
-2518.1186426482673
 20
-4000.2208538086948
 10
-2698.7629300205053
 20
-3976.438582201244
 10
-2879.4072173927434
 20
-4000.2208538086948
 10
-3047.7408951093635
 20
-4069.9469461230606
 10
-3192.2923012185333
 20
-4180.865141180932
 10
-3303.2104962764056
 20
-4325.416547290102
 10
-3372.9365885907714
 20
-4493.750225006723
 10
-3396.718860198222
 20
-4674.394512378961
 10
-3372.9365885907714
 20
-4855.038799751199
 10
-3303.2104962764056
 20
-5023.3724774678185
 10
-3192.2923012185333
 20
-5167.923883576988
 10
-3047.740895109364
 20
-5278.842078634861
 10
-2879.4072173927434
 20
-5348.568170949226
 10
-2698.7629300205053
 20
-5372.350442556676
 10
-2518.1186426482677
 20
-5348.568170949226
 10
-2349.7849649316477
 20
-5278.842078634861
 10
-2205.233558822478
 20
-5167.923883576988
  0
LWPOLYLINE
  5
68
330
17
100
AcDbEntity
  8
TIER_07
100
AcDbPolyline
 90
24
 70
1
 10
789.646993916844
 20
-789.6469939168445
 10
967.1161060094399
 20
-558.3647441421735
 10
1078.677853712425
 20
-289.030859795582
 10
1116.729488284346
 20
0.0
 10
1078.6778537124253
 20
289.0308597955811
 10
967.1161060094404
 20
558.364744142173
 10
789.6469939168443
 20
789.6469939168443
 10
558.3647441421731
 20
967.1161060094403
 10
289.0308597955811
 20
1078.6778537124253
 10
6.837995966704429e-14
 20
1116.729488284346
 10
-289.03085979558097
 20
1078.6778537124253
 10
-558.3647441421728
 20
967.1161060094404
 10
-789.6469939168442
 20
789.6469939168443
 10
-967.1161060094404
 20
558.364744142173
 10
-1078.6778537124253
 20
289.03085979558136
 10
-1116.729488284346
 20
1.3675991933408859e-13
 10
-1078.6778537124253
 20
-289.03085979558114
 10
-967.1161060094405
 20
-558.3647441421726
 10
-789.6469939168447
 20
-789.6469939168438
 10
-558.3647441421735
 20
-967.1161060094402
 10
-289.03085979558097
 20
-1078.6778537124253
 10
-2.0513987900113288e-13
 20
-1116.729488284346
 10
289.03085979558057
 20
-1078.6778537124255
 10
558.3647441421731
 20
-967.1161060094403
  0
LWPOLYLINE
  5
69
330
17
100
AcDbEntity
  8
TIER_07
100
AcDbPolyline
 90
24
 70
1
 10
-4793.078293785105
 20
-348.9779650888578
 10
-4723.35220147074
 20
-180.6442873722381
 10
-4699.56992986329
 20
6.610062767814282e-13
 10
-4723.35220147074
 20
180.6442873722388
 10
-4793.078293785105
 20
348.9779650888587
 10
-4903.996488842978
 20
493.52937119802834
 10
-5048.5478949521475
 20
604.4475662559008
 10
-5216.881572668767
 20
674.1736585702665
 10
-5397.525860041006
 20
697.9559301777169
 10
-5578.170147413244
 20
674.1736585702665
 10
-5746.503825129864
 20
604.4475662559009
 10
-5891.055231239034
 20
493.52937119802834
 10
-6001.973426296906
 20
348.9779650888587
 10
-6071.699518611272
 20
180.644287372239
 10
-6095.4817902187215
 20
7.464812263652336e-13
 10
-6071.699518611272
 20
-180.64428737223756
 10
-6001.973426296906
 20
-348.9779650888573
 10
-5891.055231239034
 20
-493.52937119802675
 10
-5746.503825129864
 20
-604.4475662558993
 10
-5578.170147413244
 20
-674.1736585702653
 10
-5397.525860041006
 20
-697.9559301777156
 10
-5216.881572668767
 20
-674.1736585702653
 10
-5048.5478949521475
 20
-604.4475662558996
 10
-4903.996488842978
 20
-493.52937119802715
  0
LWPOLYLINE
  5
6A
330
17
100
AcDbEntity
  8
TIER_07
100
AcDbPolyline
 90
24
 70
1
 10
-2205.233558822474
 20
4180.865141180934
 10
-2094.315363764602
 20
4325.416547290103
 10
-2024.589271450236
 20
4493.750225006723
 10
-2000.8069998427854
 20
4674.394512378962
 10
-2024.5892714502359
 20
4855.0387997512
 10
-2094.3153637646014
 20
5023.372477467819
 10
-2205.233558822474
 20
5167.923883576989
 10
-2349.7849649316436
 20
5278.8420786348615
 10
-2518.1186426482636
 20
5348.568170949227
 10
-2698.7629300205017
 20
5372.350442556677
 10
-2879.4072173927398
 20
5348.568170949227
 10
-3047.74089510936
 20
5278.8420786348615
 10
-3192.2923012185297
 20
5167.923883576989
 10
-3303.2104962764024
 20
5023.372477467819
 10
-3372.9365885907678
 20
4855.0387997512
 10
-3396.7188601982184
 20
4674.394512378962
 10
-3372.9365885907678
 20
4493.750225006724
 10
-3303.2104962764024
 20
4325.416547290103
 10
-3192.2923012185297
 20
4180.865141180934
 10
-3047.7408951093603
 20
4069.9469461230615
 10
-2879.4072173927398
 20
4000.2208538086957
 10
-2698.7629300205017
 20
3976.438582201245
 10
-2518.118642648264
 20
4000.2208538086957
 10
-2349.7849649316436
 20
4069.9469461230615
  0
LWPOLYLINE
  5
6B
330
17
100
AcDbEntity
  8
TIER_07
100
AcDbPolyline
 90
24
 70
1
 10
3192.292301218531
 20
-5167.923883576989
 10
3303.2104962764033
 20
-5023.37247746782
 10
3372.936588590769
 20
-4855.038799751201
 10
3396.7188601982198
 20
-4674.394512378962
 10
3372.936588590769
 20
-4493.750225006724
 10
3303.2104962764033
 20
-4325.416547290103
 10
3192.292301218531
 20
-4180.865141180934
 10
3047.740895109361
 20
-4069.9469461230615
 10
2879.4072173927416
 20
-4000.2208538086957
 10
2698.7629300205035
 20
-3976.438582201245
 10
2518.118642648265
 20
-4000.2208538086957
 10
2349.7849649316454
 20
-4069.9469461230615
 10
2205.2335588224755
 20
-4180.865141180934
 10
2094.3153637646033
 20
-4325.416547290103
 10
2024.5892714502374
 20
-4493.750225006724
 10
2000.806999842787
 20
-4674.394512378962
 10
2024.5892714502374
 20
-4855.0387997512
 10
2094.3153637646033
 20
-5023.372477467819
 10
2205.2335588224755
 20
-5167.923883576989
 10
2349.784964931645
 20
-5278.8420786348615
 10
2518.118642648265
 20
-5348.568170949227
 10
2698.7629300205035
 20
-5372.350442556677
 10
2879.407217392741
 20
-5348.568170949227
 10
3047.740895109361
 20
-5278.8420786348615
  0
LWPOLYLINE
  5
6C
330
17
100
AcDbEntity
  8
TIER_07
100
AcDbPolyline
 90
24
 70
1
 10
5891.055231239034
 20
-493.52937119802783
 10
6001.973426296906
 20
-348.97796508885847
 10
6071.699518611272
 20
-180.64428737223875
 10
6095.4817902187215
 20
0.0
 10
6071.699518611272
 20
180.64428737223818
 10
6001.973426296906
 20
348.97796508885807
 10
5891.055231239034
 20
493.52937119802766
 10
5746.503825129864
 20
604.4475662559001
 10
5578.170147413244
 20
674.173658570266
 10
5397.525860041006
 20
697.9559301777163
 10
5216.881572668767
 20
674.173658570266
 10
5048.5478949521475
 20
604.4475662559003
 10
4903.996488842978
 20
493.52937119802766
 10
4793.078293785105
 20
348.97796508885807
 10
4723.35220147074
 20
180.64428737223835
 10
4699.56992986329
 20
8.547494958380537e-14
 10
4723.35220147074
 20
-180.6442873722382
 10
4793.078293785105
 20
-348.97796508885796
 10
4903.996488842978
 20
-493.52937119802743
 10
5048.5478949521475
 20
-604.4475662559
 10
5216.881572668767
 20
-674.173658570266
 10
5397.525860041006
 20
-697.9559301777163
 10
5578.170147413244
 20
-674.173658570266
 10
5746.503825129864
 20
-604.4475662559001
  0
LWPOLYLINE
  5
6D
330
17
100
AcDbEntity
  8
TIER_07
100
AcDbPolyline
 90
24
 70
1
 10
3192.292301218531
 20
4180.865141180934
 10
3303.2104962764033
 20
4325.416547290103
 10
3372.936588590769
 20
4493.750225006723
 10
3396.7188601982198
 20
4674.394512378962
 10
3372.936588590769
 20
4855.0387997512
 10
3303.2104962764033
 20
5023.372477467819
 10
3192.292301218531
 20
5167.923883576989
 10
3047.740895109361
 20
5278.8420786348615
 10
2879.4072173927416
 20
5348.568170949227
 10
2698.7629300205035
 20
5372.350442556677
 10
2518.118642648265
 20
5348.568170949227
 10
2349.7849649316454
 20
5278.8420786348615
 10
2205.2335588224755
 20
5167.923883576989
 10
2094.3153637646033
 20
5023.372477467819
 10
2024.5892714502374
 20
4855.0387997512
 10
2000.806999842787
 20
4674.394512378962
 10
2024.5892714502374
 20
4493.750225006724
 10
2094.3153637646033
 20
4325.416547290103
 10
2205.2335588224755
 20
4180.865141180934
 10
2349.784964931645
 20
4069.9469461230615
 10
2518.118642648265
 20
4000.2208538086957
 10
2698.7629300205035
 20
3976.438582201245
 10
2879.407217392741
 20
4000.2208538086957
 10
3047.740895109361
 20
4069.9469461230615
  0
LWPOLYLINE
  5
6F
330
17
100
AcDbEntity
  8
TIER_08
100
AcDbPolyline
 90
126
 70
1
 10
5704.687533643526
 20
621.7684413176877
 10
5578.170147413244
 20
674.173658570266
 10
5397.525860041006
 20
697.9559301777163
 10
5216.881572668767
 20
674.173658570266
 10
5048.5478949521475
 20
604.4475662559003
 10
4903.996488842978
 20
493.52937119802766
 10
4793.078293785105
 20
348.97796508885807
 10
4723.35220147074
 20
180.64428737223835
 10
4699.56992986329
 20
8.547494958380537e-14
 10
4723.35220147074
 20
-180.6442873722382
 10
4793.078293785105
 20
-348.97796508885796
 10
4903.996488842978
 20
-493.52937119802743
 10
5048.5478949521475
 20
-604.4475662559
 10
5216.881572668767
 20
-674.173658570266
 10
5397.525860041006
 20
-697.9559301777163
 10
5578.170147413244
 20
-674.173658570266
 10
5704.687533643526
 20
-621.7684413176878
 10
5128.323430213146
 20
-2772.788558978748
 10
2499.2184568776674
 20
-1254.8740948957238
 10
2336.362073169533
 20
-1536.9496258151437
 10
4965.467046505012
 20
-3054.8640898981685
 10
3390.8110322743355
 20
-4629.520104128845
 10
3372.936588590769
 20
-4493.750225006724
 10
3303.2104962764033
 20
-4325.416547290103
 10
3192.292301218531
 20
-4180.865141180934
 10
3047.740895109361
 20
-4069.9469461230615
 10
2879.4072173927416
 20
-4000.2208538086957
 10
2698.7629300205035
 20
-3976.438582201245
 10
2518.118642648265
 20
-4000.2208538086957
 10
2349.7849649316454
 20
-4069.9469461230615
 10
2205.2335588224755
 20
-4180.865141180934
 10
2094.3153637646033
 20
-4325.416547290103
 10
2024.5892714502374
 20
-4493.750225006724
 10
2000.806999842787
 20
-4674.394512378962
 10
2024.5892714502374
 20
-4855.0387997512
 10
2094.3153637646033
 20
-5023.372477467819
 10
2205.2335588224755
 20
-5167.923883576989
 10
2313.8765013691914
 20
-5251.288545446532
 10
162.85638370813382
 20
-5827.652648876911
 10
162.85638370813382
 20
-2791.823720710865
 10
-162.85638370813382
 20
-2791.823720710865
 10
-162.85638370813382
 20
-5827.652648876911
 10
-2313.876501369194
 20
-5251.28854544653
 10
-2205.233558822478
 20
-5167.923883576988
 10
-2094.3153637646055
 20
-5023.3724774678185
 10
-2024.5892714502397
 20
-4855.0387997512
 10
-2000.806999842789
 20
-4674.394512378961
 10
-2024.5892714502395
 20
-4493.750225006723
 10
-2094.315363764605
 20
-4325.416547290102
 10
-2205.233558822478
 20
-4180.865141180932
 10
-2349.7849649316477
 20
-4069.9469461230606
 10
-2518.1186426482673
 20
-4000.2208538086948
 10
-2698.7629300205053
 20
-3976.438582201244
 10
-2879.4072173927434
 20
-4000.2208538086948
 10
-3047.7408951093635
 20
-4069.9469461230606
 10
-3192.2923012185333
 20
-4180.865141180932
 10
-3303.2104962764056
 20
-4325.416547290102
 10
-3372.9365885907714
 20
-4493.750225006723
 10
-3390.8110322743373
 20
-4629.520104128842
 10
-4965.467046505012
 20
-3054.8640898981657
 10
-2336.362073169534
 20
-1536.9496258151428
 10
-2499.2184568776674
 20
-1254.874094895723
 10
-5128.323430213147
 20
-2772.7885589787466
 10
-5704.687533643526
 20
-621.7684413176869
 10
-5578.170147413244
 20
-674.1736585702653
 10
-5397.525860041006
 20
-697.9559301777156
 10
-5216.881572668767
 20
-674.1736585702653
 10
-5048.5478949521475
 20
-604.4475662558996
 10
-4903.996488842978
 20
-493.52937119802715
 10
-4793.078293785105
 20
-348.9779650888578
 10
-4723.35220147074
 20
-180.6442873722381
 10
-4699.56992986329
 20
6.610062767814282e-13
 10
-4723.35220147074
 20
180.6442873722388
 10
-4793.078293785105
 20
348.9779650888587
 10
-4903.996488842978
 20
493.52937119802834
 10
-5048.5478949521475
 20
604.4475662559008
 10
-5216.881572668767
 20
674.1736585702665
 10
-5397.525860041006
 20
697.9559301777169
 10
-5578.170147413244
 20
674.1736585702665
 10
-5704.687533643526
 20
621.7684413176885
 10
-5128.323430213148
 20
2772.788558978745
 10
-2499.218456877668
 20
1254.8740948957222
 10
-2336.3620731695346
 20
1536.9496258151423
 10
-4965.467046505015
 20
3054.8640898981653
 10
-3390.8110322743337
 20
4629.520104128845
 10
-3372.9365885907678
 20
4493.750225006724
 10
-3303.2104962764024
 20
4325.416547290103
 10
-3192.2923012185297
 20
4180.865141180934
 10
-3047.7408951093603
 20
4069.9469461230615
 10
-2879.4072173927398
 20
4000.2208538086957
 10
-2698.7629300205017
 20
3976.438582201245
 10
-2518.118642648264
 20
4000.2208538086957
 10
-2349.7849649316436
 20
4069.9469461230615
 10
-2205.233558822474
 20
4180.865141180934
 10
-2094.315363764602
 20
4325.416547290103
 10
-2024.589271450236
 20
4493.750225006723
 10
-2000.8069998427854
 20
4674.394512378962
 10
-2024.5892714502359
 20
4855.0387997512
 10
-2094.3153637646014
 20
5023.372477467819
 10
-2205.233558822474
 20
5167.923883576989
 10
-2313.8765013691905
 20
5251.288545446533
 10
-162.85638370813382
 20
5827.652648876911
 10
-162.85638370813382
 20
2791.823720710865
 10
162.85638370813382
 20
2791.823720710865
 10
162.85638370813382
 20
5827.652648876911
 10
2313.876501369192
 20
5251.288545446532
 10
2205.2335588224755
 20
5167.923883576989
 10
2094.3153637646033
 20
5023.372477467819
 10
2024.5892714502374
 20
4855.0387997512
 10
2000.806999842787
 20
4674.394512378962
 10
2024.5892714502374
 20
4493.750225006724
 10
2094.3153637646033
 20
4325.416547290103
 10
2205.2335588224755
 20
4180.865141180934
 10
2349.784964931645
 20
4069.9469461230615
 10
2518.118642648265
 20
4000.2208538086957
 10
2698.7629300205035
 20
3976.438582201245
 10
2879.407217392741
 20
4000.2208538086957
 10
3047.740895109361
 20
4069.9469461230615
 10
3192.292301218531
 20
4180.865141180934
 10
3303.2104962764033
 20
4325.416547290103
 10
3372.936588590769
 20
4493.750225006723
 10
3390.8110322743355
 20
4629.520104128844
 10
4965.467046505015
 20
3054.8640898981653
 10
2336.3620731695346
 20
1536.9496258151423
 10
2499.218456877668
 20
1254.8740948957222
 10
5128.323430213148
 20
2772.788558978745
  0
LWPOLYLINE
  5
70
330
17
100
AcDbEntity
  8
TIER_08
100
AcDbPolyline
 90
24
 70
1
 10
789.646993916844
 20
-789.6469939168445
 10
967.1161060094399
 20
-558.3647441421735
 10
1078.677853712425
 20
-289.030859795582
 10
1116.729488284346
 20
0.0
 10
1078.6778537124253
 20
289.0308597955811
 10
967.1161060094404
 20
558.364744142173
 10
789.6469939168443
 20
789.6469939168443
 10
558.3647441421731
 20
967.1161060094403
 10
289.0308597955811
 20
1078.6778537124253
 10
6.837995966704429e-14
 20
1116.729488284346
 10
-289.03085979558097
 20
1078.6778537124253
 10
-558.3647441421728
 20
967.1161060094404
 10
-789.6469939168442
 20
789.6469939168443
 10
-967.1161060094404
 20
558.364744142173
 10
-1078.6778537124253
 20
289.03085979558136
 10
-1116.729488284346
 20
1.3675991933408859e-13
 10
-1078.6778537124253
 20
-289.03085979558114
 10
-967.1161060094405
 20
-558.3647441421726
 10
-789.6469939168447
 20
-789.6469939168438
 10
-558.3647441421735
 20
-967.1161060094402
 10
-289.03085979558097
 20
-1078.6778537124253
 10
-2.0513987900113288e-13
 20
-1116.729488284346
 10
289.03085979558057
 20
-1078.6778537124255
 10
558.3647441421731
 20
-967.1161060094403
  0
LWPOLYLINE
  5
72
330
17
100
AcDbEntity
  8
TIER_09
100
AcDbPolyline
 90
90
 70
1
 10
5201.651758417534
 20
667.8652629549822
 10
5048.5478949521475
 20
604.4475662559003
 10
4903.996488842978
 20
493.52937119802766
 10
4793.078293785105
 20
348.97796508885807
 10
4723.35220147074
 20
180.64428737223835
 10
4699.56992986329
 20
8.547494958380537e-14
 10
4723.35220147074
 20
-180.6442873722382
 10
4793.078293785105
 20
-348.97796508885796
 10
4903.996488842978
 20
-493.52937119802743
 10
5048.5478949521475
 20
-604.4475662559
 10
5201.651758417534
 20
-667.8652629549822
 10
4703.378474542331
 20
-2527.4464744314296
 10
2499.2184568776674
 20
-1254.8740948957238
 10
2336.362073169533
 20
-1536.9496258151437
 10
4540.522090834197
 20
-2809.5220053508497
 10
3179.2141632329567
 20
-4170.82993295209
 10
3047.740895109361
 20
-4069.9469461230615
 10
2879.4072173927416
 20
-4000.2208538086957
 10
2698.7629300205035
 20
-3976.438582201245
 10
2518.118642648265
 20
-4000.2208538086957
 10
2349.7849649316454
 20
-4069.9469461230615
 10
2205.2335588224755
 20
-4180.865141180934
 10
2094.3153637646033
 20
-4325.416547290103
 10
2024.5892714502374
 20
-4493.750225006724
 10
2000.806999842787
 20
-4674.394512378962
 10
2022.437595184579
 20
-4838.695195907071
 10
162.85638370813382
 20
-5336.968479782274
 10
162.85638370813382
 20
-2791.823720710865
 10
-162.85638370813382
 20
-2791.823720710865
 10
-162.85638370813382
 20
-5336.968479782274
 10
-2022.4375951845811
 20
-4838.69519590707
 10
-2000.806999842789
 20
-4674.394512378961
 10
-2024.5892714502395
 20
-4493.750225006723
 10
-2094.315363764605
 20
-4325.416547290102
 10
-2205.233558822478
 20
-4180.865141180932
 10
-2349.7849649316477
 20
-4069.9469461230606
 10
-2518.1186426482673
 20
-4000.2208538086948
 10
-2698.7629300205053
 20
-3976.438582201244
 10
-2879.4072173927434
 20
-4000.2208538086948
 10
-3047.7408951093635
 20
-4069.9469461230606
 10
-3179.214163232958
 20
-4170.829932952089
 10
-4540.522090834198
 20
-2809.5220053508474
 10
-2336.362073169534
 20
-1536.9496258151428
 10
-2499.2184568776674
 20
-1254.874094895723
 10
-4703.378474542333
 20
-2527.4464744314278
 10
-5201.651758417534
 20
-667.8652629549815
 10
-5048.5478949521475
 20
-604.4475662558996
 10
-4903.996488842978
 20
-493.52937119802715
 10
-4793.078293785105
 20
-348.9779650888578
 10
-4723.35220147074
 20
-180.6442873722381
 10
-4699.56992986329
 20
6.610062767814282e-13
 10
-4723.35220147074
 20
180.6442873722388
 10
-4793.078293785105
 20
348.9779650888587
 10
-4903.996488842978
 20
493.52937119802834
 10
-5048.5478949521475
 20
604.4475662559008
 10
-5201.651758417534
 20
667.8652629549829
 10
-4703.378474542333
 20
2527.4464744314264
 10
-2499.218456877668
 20
1254.8740948957222
 10
-2336.3620731695346
 20
1536.9496258151423
 10
-4540.522090834199
 20
2809.522005350846
 10
-3179.214163232955
 20
4170.8299329520905
 10
-3047.7408951093603
 20
4069.9469461230615
 10
-2879.4072173927398
 20
4000.2208538086957
 10
-2698.7629300205017
 20
3976.438582201245
 10
-2518.118642648264
 20
4000.2208538086957
 10
-2349.7849649316436
 20
4069.9469461230615
 10
-2205.233558822474
 20
4180.865141180934
 10
-2094.315363764602
 20
4325.416547290103
 10
-2024.589271450236
 20
4493.750225006723
 10
-2000.8069998427854
 20
4674.394512378962
 10
-2022.4375951845775
 20
4838.695195907071
 10
-162.85638370813382
 20
5336.968479782274
 10
-162.85638370813382
 20
2791.823720710865
 10
162.85638370813382
 20
2791.823720710865
 10
162.85638370813382
 20
5336.968479782274
 10
2022.437595184579
 20
4838.695195907071
 10
2000.806999842787
 20
4674.394512378962
 10
2024.5892714502374
 20
4493.750225006724
 10
2094.3153637646033
 20
4325.416547290103
 10
2205.2335588224755
 20
4180.865141180934
 10
2349.784964931645
 20
4069.9469461230615
 10
2518.118642648265
 20
4000.2208538086957
 10
2698.7629300205035
 20
3976.438582201245
 10
2879.407217392741
 20
4000.2208538086957
 10
3047.740895109361
 20
4069.9469461230615
 10
3179.2141632329567
 20
4170.82993295209
 10
4540.522090834199
 20
2809.522005350846
 10
2336.3620731695346
 20
1536.9496258151423
 10
2499.218456877668
 20
1254.8740948957222
 10
4703.378474542333
 20
2527.4464744314264
  0
LWPOLYLINE
  5
73
330
17
100
AcDbEntity
  8
TIER_09
100
AcDbPolyline
 90
24
 70
1
 10
789.646993916844
 20
-789.6469939168445
 10
967.1161060094399
 20
-558.3647441421735
 10
1078.677853712425
 20
-289.030859795582
 10
1116.729488284346
 20
0.0
 10
1078.6778537124253
 20
289.0308597955811
 10
967.1161060094404
 20
558.364744142173
 10
789.6469939168443
 20
789.6469939168443
 10
558.3647441421731
 20
967.1161060094403
 10
289.0308597955811
 20
1078.6778537124253
 10
6.837995966704429e-14
 20
1116.729488284346
 10
-289.03085979558097
 20
1078.6778537124253
 10
-558.3647441421728
 20
967.1161060094404
 10
-789.6469939168442
 20
789.6469939168443
 10
-967.1161060094404
 20
558.364744142173
 10
-1078.6778537124253
 20
289.03085979558136
 10
-1116.729488284346
 20
1.3675991933408859e-13
 10
-1078.6778537124253
 20
-289.03085979558114
 10
-967.1161060094405
 20
-558.3647441421726
 10
-789.6469939168447
 20
-789.6469939168438
 10
-558.3647441421735
 20
-967.1161060094402
 10
-289.03085979558097
 20
-1078.6778537124253
 10
-2.0513987900113288e-13
 20
-1116.729488284346
 10
289.03085979558057
 20
-1078.6778537124255
 10
558.3647441421731
 20
-967.1161060094403
  0
LWPOLYLINE
  5
75
330
17
100
AcDbEntity
  8
TIER_10
100
AcDbPolyline
 90
66
 70
1
 10
4795.550050352563
 20
352.1992209630558
 10
4793.078293785105
 20
348.97796508885807
 10
4723.35220147074
 20
180.64428737223835
 10
4699.56992986329
 20
8.547494958380537e-14
 10
4723.35220147074
 20
-180.6442873722382
 10
4793.078293785105
 20
-348.97796508885796
 10
4795.550050352563
 20
-352.19922096305544
 10
4278.433518871516
 20
-2282.1043898841103
 10
2499.2184568776674
 20
-1254.8740948957238
 10
2336.362073169533
 20
-1536.9496258151437
 10
4115.577135163382
 20
-2564.179920803531
 10
2702.788497723377
 20
-3976.968558243536
 10
2698.7629300205035
 20
-3976.438582201245
 10
2518.118642648265
 20
-4000.2208538086957
 10
2349.7849649316454
 20
-4069.9469461230615
 10
2205.2335588224755
 20
-4180.865141180934
 10
2094.3153637646033
 20
-4325.416547290103
 10
2092.761552629187
 20
-4329.167779206592
 10
162.85638370813382
 20
-4846.284310687637
 10
162.85638370813382
 20
-2791.823720710865
 10
-162.85638370813382
 20
-2791.823720710865
 10
-162.85638370813382
 20
-4846.284310687637
 10
-2092.761552629189
 20
-4329.16777920659
 10
-2094.315363764605
 20
-4325.416547290102
 10
-2205.233558822478
 20
-4180.865141180932
 10
-2349.7849649316477
 20
-4069.9469461230606
 10
-2518.1186426482673
 20
-4000.2208538086948
 10
-2698.7629300205053
 20
-3976.438582201244
 10
-2702.788497723379
 20
-3976.9685582435345
 10
-4115.577135163383
 20
-2564.1799208035286
 10
-2336.362073169534
 20
-1536.9496258151428
 10
-2499.2184568776674
 20
-1254.874094895723
 10
-4278.433518871519
 20
-2282.1043898841094
 10
-4795.550050352563
 20
-352.19922096305544
 10
-4793.078293785105
 20
-348.9779650888578
 10
-4723.35220147074
 20
-180.6442873722381
 10
-4699.56992986329
 20
6.610062767814282e-13
 10
-4723.35220147074
 20
180.6442873722388
 10
-4793.078293785105
 20
348.9779650888587
 10
-4795.550050352563
 20
352.19922096305635
 10
-4278.433518871519
 20
2282.1043898841085
 10
-2499.218456877668
 20
1254.8740948957222
 10
-2336.3620731695346
 20
1536.9496258151423
 10
-4115.577135163384
 20
2564.179920803528
 10
-2702.788497723376
 20
3976.968558243536
 10
-2698.7629300205017
 20
3976.438582201245
 10
-2518.118642648264
 20
4000.2208538086957
 10
-2349.7849649316436
 20
4069.9469461230615
 10
-2205.233558822474
 20
4180.865141180934
 10
-2094.315363764602
 20
4325.416547290103
 10
-2092.761552629185
 20
4329.167779206592
 10
-162.85638370813382
 20
4846.284310687637
 10
-162.85638370813382
 20
2791.823720710865
 10
162.85638370813382
 20
2791.823720710865
 10
162.85638370813382
 20
4846.284310687637
 10
2092.761552629187
 20
4329.167779206592
 10
2094.3153637646033
 20
4325.416547290103
 10
2205.2335588224755
 20
4180.865141180934
 10
2349.784964931645
 20
4069.9469461230615
 10
2518.118642648265
 20
4000.2208538086957
 10
2698.7629300205035
 20
3976.438582201245
 10
2702.788497723377
 20
3976.968558243536
 10
4115.577135163384
 20
2564.179920803528
 10
2336.3620731695346
 20
1536.9496258151423
 10
2499.218456877668
 20
1254.8740948957222
 10
4278.433518871519
 20
2282.1043898841085
  0
LWPOLYLINE
  5
76
330
17
100
AcDbEntity
  8
TIER_10
100
AcDbPolyline
 90
24
 70
1
 10
789.646993916844
 20
-789.6469939168445
 10
967.1161060094399
 20
-558.3647441421735
 10
1078.677853712425
 20
-289.030859795582
 10
1116.729488284346
 20
0.0
 10
1078.6778537124253
 20
289.0308597955811
 10
967.1161060094404
 20
558.364744142173
 10
789.6469939168443
 20
789.6469939168443
 10
558.3647441421731
 20
967.1161060094403
 10
289.0308597955811
 20
1078.6778537124253
 10
6.837995966704429e-14
 20
1116.729488284346
 10
-289.03085979558097
 20
1078.6778537124253
 10
-558.3647441421728
 20
967.1161060094404
 10
-789.6469939168442
 20
789.6469939168443
 10
-967.1161060094404
 20
558.364744142173
 10
-1078.6778537124253
 20
289.03085979558136
 10
-1116.729488284346
 20
1.3675991933408859e-13
 10
-1078.6778537124253
 20
-289.03085979558114
 10
-967.1161060094405
 20
-558.3647441421726
 10
-789.6469939168447
 20
-789.6469939168438
 10
-558.3647441421735
 20
-967.1161060094402
 10
-289.03085979558097
 20
-1078.6778537124253
 10
-2.0513987900113288e-13
 20
-1116.729488284346
 10
289.03085979558057
 20
-1078.6778537124255
 10
558.3647441421731
 20
-967.1161060094403
  0
LWPOLYLINE
  5
78
330
17
100
AcDbEntity
  8
TIER_11
100
AcDbPolyline
 90
30
 70
1
 10
4399.237378089848
 20
0.0
 10
3853.4885632007017
 20
-2036.762305336792
 10
2499.2184568776674
 20
-1254.8740948957238
 10
2336.362073169533
 20
-1536.9496258151437
 10
3690.632179492568
 20
-2318.837836256212
 10
2199.6186890449244
 20
-3809.851326703855
 10
162.85638370813382
 20
-4355.600141593
 10
162.85638370813382
 20
-2791.823720710865
 10
-162.85638370813382
 20
-2791.823720710865
 10
-162.85638370813382
 20
-4355.600141593
 10
-2199.6186890449258
 20
-3809.8513267038547
 10
-3690.6321794925684
 20
-2318.8378362562103
 10
-2336.362073169534
 20
-1536.9496258151428
 10
-2499.2184568776674
 20
-1254.874094895723
 10
-3853.488563200703
 20
-2036.7623053367909
 10
-4399.237378089848
 20
5.387511973767127e-13
 10
-3853.488563200703
 20
2036.76230533679
 10
-2499.218456877668
 20
1254.8740948957222
 10
-2336.3620731695346
 20
1536.9496258151423
 10
-3690.63217949257
 20
2318.8378362562094
 10
-2199.6186890449226
 20
3809.8513267038556
 10
-162.85638370813382
 20
4355.600141593
 10
-162.85638370813382
 20
2791.823720710865
 10
162.85638370813382
 20
2791.823720710865
 10
162.85638370813382
 20
4355.600141593
 10
2199.6186890449244
 20
3809.851326703855
 10
3690.63217949257
 20
2318.8378362562094
 10
2336.3620731695346
 20
1536.9496258151423
 10
2499.218456877668
 20
1254.8740948957222
 10
3853.488563200703
 20
2036.76230533679
  0
LWPOLYLINE
  5
79
330
17
100
AcDbEntity
  8
TIER_11
100
AcDbPolyline
 90
24
 70
1
 10
789.646993916844
 20
-789.6469939168445
 10
967.1161060094399
 20
-558.3647441421735
 10
1078.677853712425
 20
-289.030859795582
 10
1116.729488284346
 20
0.0
 10
1078.6778537124253
 20
289.0308597955811
 10
967.1161060094404
 20
558.364744142173
 10
789.6469939168443
 20
789.6469939168443
 10
558.3647441421731
 20
967.1161060094403
 10
289.0308597955811
 20
1078.6778537124253
 10
6.837995966704429e-14
 20
1116.729488284346
 10
-289.03085979558097
 20
1078.6778537124253
 10
-558.3647441421728
 20
967.1161060094404
 10
-789.6469939168442
 20
789.6469939168443
 10
-967.1161060094404
 20
558.364744142173
 10
-1078.6778537124253
 20
289.03085979558136
 10
-1116.729488284346
 20
1.3675991933408859e-13
 10
-1078.6778537124253
 20
-289.03085979558114
 10
-967.1161060094405
 20
-558.3647441421726
 10
-789.6469939168447
 20
-789.6469939168438
 10
-558.3647441421735
 20
-967.1161060094402
 10
-289.03085979558097
 20
-1078.6778537124253
 10
-2.0513987900113288e-13
 20
-1116.729488284346
 10
289.03085979558057
 20
-1078.6778537124255
 10
558.3647441421731
 20
-967.1161060094403
  0
LWPOLYLINE
  5
7B
330
17
100
AcDbEntity
  8
TIER_12
100
AcDbPolyline
 90
30
 70
1
 10
3908.5532089952108
 20
0.0
 10
3428.543607529887
 20
-1791.4202207894732
 10
2499.2184568776674
 20
-1254.8740948957238
 10
2336.362073169533
 20
-1536.9496258151437
 10
3265.687223821753
 20
-2073.4957517088933
 10
1954.2766044976058
 20
-3384.9063710330406
 10
162.85638370813382
 20
-3864.9159724983633
 10
162.85638370813382
 20
-2791.823720710865
 10
-162.85638370813382
 20
-2791.823720710865
 10
-162.85638370813382
 20
-3864.9159724983633
 10
-1954.2766044976072
 20
-3384.90637103304
 10
-3265.687223821754
 20
-2073.495751708892
 10
-2336.362073169534
 20
-1536.9496258151428
 10
-2499.2184568776674
 20
-1254.874094895723
 10
-3428.5436075298885
 20
-1791.4202207894723
 10
-3908.5532089952108
 20
4.786597176693101e-13
 10
-3428.5436075298885
 20
1791.4202207894714
 10
-2499.218456877668
 20
1254.8740948957222
 10
-2336.3620731695346
 20
1536.9496258151423
 10
-3265.687223821755
 20
2073.4957517088915
 10
-1954.2766044976045
 20
3384.906371033041
 10
-162.85638370813382
 20
3864.9159724983633
 10
-162.85638370813382
 20
2791.823720710865
 10
162.85638370813382
 20
2791.823720710865
 10
162.85638370813382
 20
3864.9159724983633
 10
1954.2766044976058
 20
3384.9063710330406
 10
3265.687223821755
 20
2073.4957517088915
 10
2336.3620731695346
 20
1536.9496258151423
 10
2499.218456877668
 20
1254.8740948957222
 10
3428.5436075298885
 20
1791.4202207894714
  0
LWPOLYLINE
  5
7C
330
17
100
AcDbEntity
  8
TIER_12
100
AcDbPolyline
 90
24
 70
1
 10
789.646993916844
 20
-789.6469939168445
 10
967.1161060094399
 20
-558.3647441421735
 10
1078.677853712425
 20
-289.030859795582
 10
1116.729488284346
 20
0.0
 10
1078.6778537124253
 20
289.0308597955811
 10
967.1161060094404
 20
558.364744142173
 10
789.6469939168443
 20
789.6469939168443
 10
558.3647441421731
 20
967.1161060094403
 10
289.0308597955811
 20
1078.6778537124253
 10
6.837995966704429e-14
 20
1116.729488284346
 10
-289.03085979558097
 20
1078.6778537124253
 10
-558.3647441421728
 20
967.1161060094404
 10
-789.6469939168442
 20
789.6469939168443
 10
-967.1161060094404
 20
558.364744142173
 10
-1078.6778537124253
 20
289.03085979558136
 10
-1116.729488284346
 20
1.3675991933408859e-13
 10
-1078.6778537124253
 20
-289.03085979558114
 10
-967.1161060094405
 20
-558.3647441421726
 10
-789.6469939168447
 20
-789.6469939168438
 10
-558.3647441421735
 20
-967.1161060094402
 10
-289.03085979558097
 20
-1078.6778537124253
 10
-2.0513987900113288e-13
 20
-1116.729488284346
 10
289.03085979558057
 20
-1078.6778537124255
 10
558.3647441421731
 20
-967.1161060094403
  0
TEXT
  5
7D
330
17
100
AcDbEntity
  8
0
100
AcDbText
 10
-12935.449905960344
 20
-12026.332811054917
 30
0.0
 40
100.0
  1
Case A - meters - massing only
 11
-12935.449905960344
 21
-12026.332811054917
 31
0.0
100
AcDbText
  0
ENDSEC
  0
SECTION
  2
OBJECTS
  0
DICTIONARY
  5
A
330
0
100
AcDbDictionary
281
1
  3
ACAD_COLOR
350
B
  3
ACAD_GROUP
350
C
  3
ACAD_LAYOUT
350
D
  3
ACAD_MATERIAL
350
E
  3
ACAD_MLEADERSTYLE
350
F
  3
ACAD_MLINESTYLE
350
10
  3
ACAD_PLOTSETTINGS
350
11
  3
ACAD_PLOTSTYLENAME
350
12
  3
ACAD_SCALELIST
350
14
  3
ACAD_TABLESTYLE
350
15
  3
ACAD_VISUALSTYLE
350
16
  3
EZDXF_META
350
2D
  0
DICTIONARY
  5
B
330
A
100
AcDbDictionary
281
1
  0
DICTIONARY
  5
C
330
A
100
AcDbDictionary
281
1
  0
DICTIONARY
  5
D
330
A
100
AcDbDictionary
281
1
  3
Model
350
1A
  3
Layout1
350
1E
  0
DICTIONARY
  5
E
330
A
100
AcDbDictionary
281
1
  3
ByBlock
350
1F
  3
ByLayer
350
20
  3
Global
350
21
  0
DICTIONARY
  5
F
330
A
100
AcDbDictionary
281
1
  3
Standard
350
2C
  0
DICTIONARY
  5
10
330
A
100
AcDbDictionary
281
1
  3
Standard
350
22
  0
DICTIONARY
  5
11
330
A
100
AcDbDictionary
281
1
  0
ACDBDICTIONARYWDFLT
  5
12
330
A
100
AcDbDictionary
281
1
  3
Normal
350
13
100
AcDbDictionaryWithDefault
340
13
  0
ACDBPLACEHOLDER
  5
13
330
12
  0
DICTIONARY
  5
14
330
A
100
AcDbDictionary
281
1
  0
DICTIONARY
  5
15
330
A
100
AcDbDictionary
281
1
  0
DICTIONARY
  5
16
330
A
100
AcDbDictionary
281
1
  0
LAYOUT
  5
1A
330
D
100
AcDbPlotSettings
  1

  4
A3
  6

 40
7.5
 41
20.0
 42
7.5
 43
20.0
 44
420.0
 45
297.0
 46
0.0
 47
0.0
 48
0.0
 49
0.0
140
0.0
141
0.0
142
1.0
143
1.0
 70
1024
 72
1
 73
0
 74
5
  7

 75
16
 76
0
 77
2
 78
300
147
1.0
148
0.0
149
0.0
100
AcDbLayout
  1
Model
 70
1
 71
0
 10
0.0
 20
0.0
 11
420.0
 21
297.0
 12
0.0
 22
0.0
 32
0.0
 14
1e+20
 24
1e+20
 34
1e+20
 15
-1e+20
 25
-1e+20
 35
-1e+20
146
0.0
 13
0.0
 23
0.0
 33
0.0
 16
1.0
 26
0.0
 36
0.0
 17
0.0
 27
1.0
 37
0.0
 76
1
330
17
  0
LAYOUT
  5
1E
330
D
100
AcDbPlotSettings
  1

  4
A3
  6

 40
7.5
 41
20.0
 42
7.5
 43
20.0
 44
420.0
 45
297.0
 46
0.0
 47
0.0
 48
0.0
 49
0.0
140
0.0
141
0.0
142
1.0
143
1.0
 70
0
 72
1
 73
0
 74
5
  7

 75
16
 76
0
 77
2
 78
300
147
1.0
148
0.0
149
0.0
100
AcDbLayout
  1
Layout1
 70
1
 71
1
 10
0.0
 20
0.0
 11
420.0
 21
297.0
 12
0.0
 22
0.0
 32
0.0
 14
1e+20
 24
1e+20
 34
1e+20
 15
-1e+20
 25
-1e+20
 35
-1e+20
146
0.0
 13
0.0
 23
0.0
 33
0.0
 16
1.0
 26
0.0
 36
0.0
 17
0.0
 27
1.0
 37
0.0
 76
1
330
1B
  0
MATERIAL
  5
1F
102
{ACAD_REACTORS
330
E
102
}
330
E
100
AcDbMaterial
  1
ByBlock
  2

 70
0
 40
1.0
 71
1
 41
1.0
 91
-1023410177
 42
1.0
 72
1
  3

 73
1
 74
1
 75
1
 44
0.5
 73
0
 45
1.0
 46
1.0
 77
1
  4

 78
1
 79
1
170
1
 48
1.0
171
1
  6

172
1
173
1
174
1
140
1.0
141
1.0
175
1
  7

176
1
177
1
178
1
143
1.0
179
1
  8

270
1
271
1
272
1
145
1.0
146
1.0
273
1
  9

274
1
275
1
276
1
 42
1.0
 72
1
  3

 73
1
 74
1
 75
1
 94
63
  0
MATERIAL
  5
20
102
{ACAD_REACTORS
330
E
102
}
330
E
100
AcDbMaterial
  1
ByLayer
  2

 70
0
 40
1.0
 71
1
 41
1.0
 91
-1023410177
 42
1.0
 72
1
  3

 73
1
 74
1
 75
1
 44
0.5
 73
0
 45
1.0
 46
1.0
 77
1
  4

 78
1
 79
1
170
1
 48
1.0
171
1
  6

172
1
173
1
174
1
140
1.0
141
1.0
175
1
  7

176
1
177
1
178
1
143
1.0
179
1
  8

270
1
271
1
272
1
145
1.0
146
1.0
273
1
  9

274
1
275
1
276
1
 42
1.0
 72
1
  3

 73
1
 74
1
 75
1
 94
63
  0
MATERIAL
  5
21
102
{ACAD_REACTORS
330
E
102
}
330
E
100
AcDbMaterial
  1
Global
  2

 70
0
 40
1.0
 71
1
 41
1.0
 91
-1023410177
 42
1.0
 72
1
  3

 73
1
 74
1
 75
1
 44
0.5
 73
0
 45
1.0
 46
1.0
 77
1
  4

 78
1
 79
1
170
1
 48
1.0
171
1
  6

172
1
173
1
174
1
140
1.0
141
1.0
175
1
  7

176
1
177
1
178
1
143
1.0
179
1
  8

270
1
271
1
272
1
145
1.0
146
1.0
273
1
  9

274
1
275
1
276
1
 42
1.0
 72
1
  3

 73
1
 74
1
 75
1
 94
63
  0
MLINESTYLE
  5
22
102
{ACAD_REACTORS
330
10
102
}
330
10
100
AcDbMlineStyle
  2
Standard
 70
0
  3

 62
256
 51
90.0
 52
90.0
 71
2
 49
0.5
 62
256
  6
BYLAYER
 49
-0.5
 62
256
  6
BYLAYER
  0
MLEADERSTYLE
  5
2C
102
{ACAD_REACTORS
330
F
102
}
330
F
100
AcDbMLeaderStyle
179
2
170
2
171
1
172
0
 90
2
 40
0.0
 41
0.0
173
1
 91
-1056964608
 92
-2
290
1
 42
2.0
291
1
 43
8.0
  3
Standard
 44
4.0
300

342
29
174
1
175
1
176
0
178
1
 93
-1056964608
 45
4.0
292
0
297
0
 46
4.0
 94
-1056964608
 47
1.0
 49
1.0
140
1.0
294
1
141
0.0
177
0
142
1.0
295
0
296
0
143
3.75
271
0
272
9
273
9
  0
DICTIONARY
  5
2D
330
A
100
AcDbDictionary
280
1
281
1
  3
CREATED_BY_EZDXF
350
2E
  3
WRITTEN_BY_EZDXF
350
80
  0
DICTIONARYVAR
  5
2E
330
2D
100
DictionaryVariables
280
0
  1
1.4.4 @ 2026-09-25T16:12:55.641973+00:00
  0
DICTIONARYVAR
  5
80
330
2D
100
DictionaryVariables
280
0
  1
1.4.4 @ 2026-09-25T16:12:55.658599+00:00
  0
ENDSEC
  0
EOF
